<svg width="20" height="21" viewBox="0 0 20 21" fill="none" xmlns="http://www.w3.org/2000/svg">
<path d="M18.9854 10.5072L11.3094 18.1832C10.2438 19.2214 8.81226 19.7981 7.32462 19.7884C5.83699 19.7787 4.41303 19.1835 3.3611 18.1315C2.30916 17.0796 1.7139 15.6556 1.70422 14.168C1.69454 12.6804 2.27122 11.2488 3.30938 10.1832L11.2147 2.27791C11.922 1.57067 12.8812 1.17334 13.8814 1.17334C14.8816 1.17334 15.8408 1.57067 16.548 2.27791C17.2553 2.98515 17.6526 3.94438 17.6526 4.94458C17.6526 5.94477 17.2553 6.904 16.548 7.61124L8.87071 15.2886C8.51709 15.6422 8.03747 15.8409 7.53738 15.8409C7.03728 15.8409 6.55766 15.6422 6.20404 15.2886C5.85042 14.935 5.65176 14.4553 5.65176 13.9552C5.65176 13.4551 5.85042 12.9755 6.20404 12.6219L13.652 5.17391" fill="#D9D9D9"/>
<path d="M18.9854 10.5072L11.3094 18.1832C10.2438 19.2214 8.81226 19.7981 7.32462 19.7884C5.83699 19.7787 4.41303 19.1835 3.3611 18.1315C2.30916 17.0796 1.7139 15.6556 1.70422 14.168C1.69454 12.6804 2.27122 11.2488 3.30938 10.1832L11.2147 2.27791C11.922 1.57067 12.8812 1.17334 13.8814 1.17334C14.8816 1.17334 15.8408 1.57067 16.548 2.27791C17.2553 2.98515 17.6526 3.94438 17.6526 4.94458C17.6526 5.94477 17.2553 6.904 16.548 7.61124L8.87071 15.2886C8.51709 15.6422 8.03747 15.8409 7.53738 15.8409C7.03728 15.8409 6.55766 15.6422 6.20404 15.2886C5.85042 14.935 5.65176 14.4553 5.65176 13.9552C5.65176 13.4551 5.85042 12.9755 6.20404 12.6219L13.652 5.17391" stroke="#101010" stroke-width="2"/>
</svg>
