<svg width="40" height="40" viewBox="0 0 40 40" fill="none" xmlns="http://www.w3.org/2000/svg">
<path d="M0.31136 23.4705C2.24358 34.349 12.571 41.6236 23.498 39.6881C34.3584 37.7527 41.6209 27.4081 39.6886 16.4629C37.7564 5.6511 27.3624 -1.62347 16.502 0.311964C5.64162 2.18066 -1.62086 12.592 0.31136 23.4705Z" fill="#F58B29"/>
<path d="M26.8959 18.4649C28.7358 18.4649 30.2273 16.9709 30.2273 15.128C30.2273 13.285 28.7358 11.791 26.8959 11.791C25.056 11.791 23.5645 13.285 23.5645 15.128C23.5645 16.9709 25.056 18.4649 26.8959 18.4649Z" fill="#302424"/>
<path d="M11.7709 21.1344C13.6108 21.1344 15.1023 19.6404 15.1023 17.7974C15.1023 15.9545 13.6108 14.4604 11.7709 14.4604C9.93098 14.4604 8.43945 15.9545 8.43945 17.7974C8.43945 19.6404 9.93098 21.1344 11.7709 21.1344Z" fill="#302424"/>
<path d="M27.4954 26.5406C23.6309 25.5395 19.5 26.2737 16.2352 28.5428C15.4357 29.1435 16.9681 31.2124 17.7676 30.6785C19.8997 29.1435 23.3644 28.1424 26.8957 29.0767C27.7619 29.2769 28.4948 26.8743 27.4954 26.5406Z" fill="#302424"/>
</svg>
