<svg width="40" height="40" viewBox="0 0 40 40" fill="none" xmlns="http://www.w3.org/2000/svg">
<path fill-rule="evenodd" clip-rule="evenodd" d="M35.6008 8.85325L9.97845 34.4748L5.58594 30.0825L31.2085 4.46094L35.6008 8.85325Z" fill="#FBB713"/>
<path opacity="0.25" fill-rule="evenodd" clip-rule="evenodd" d="M31.2066 4.46094L30.148 5.51949L33.482 8.85307L8.91797 33.4163L9.97652 34.4748L35.5989 8.85307L31.2066 4.46094Z" fill="black"/>
<path fill-rule="evenodd" clip-rule="evenodd" d="M11.9038 32.4281C11.0464 31.5709 9.92327 31.1415 8.79977 31.1398C8.79791 30.0163 8.36866 28.8932 7.51128 28.0358C5.79299 26.3175 3.00706 26.3175 1.28858 28.0358C-0.429526 29.7541 -0.429526 32.54 1.28858 34.2583C2.14615 35.1155 3.2691 35.5447 4.3926 35.5466C4.39464 36.6701 4.82389 37.7932 5.68109 38.6504C7.39956 40.3687 10.1855 40.3687 11.9038 38.6504C13.6221 36.9321 13.6221 34.1464 11.9038 32.4281Z" fill="#FBB713"/>
<path opacity="0.25" fill-rule="evenodd" clip-rule="evenodd" d="M11.9034 36.5335C10.1851 38.2516 7.39919 38.2516 5.68072 36.5335C4.82352 35.6763 4.39427 34.5531 4.39223 33.4296C3.26873 33.428 2.14578 32.9985 1.28821 32.1413C0.700847 31.5538 0.319107 30.8404 0.133527 30.0886C-0.224087 31.5354 0.157467 33.1277 1.28821 34.2584C2.14578 35.1156 3.26873 35.5449 4.39223 35.5467C4.39427 36.6702 4.82352 37.7934 5.68072 38.6506C7.39919 40.3688 10.1851 40.3688 11.9034 38.6506C13.0342 37.5198 13.4159 35.9277 13.0583 34.4808C12.8725 35.2327 12.491 35.9461 11.9034 36.5335Z" fill="black"/>
<path fill-rule="evenodd" clip-rule="evenodd" d="M38.7104 5.74188C37.853 4.88469 36.7301 4.45562 35.6064 4.45377C35.6045 3.33008 35.1753 2.20695 34.3179 1.34975C32.5996 -0.368537 29.8138 -0.368537 28.0954 1.34975C26.3771 3.06804 26.3771 5.85397 28.0954 7.57207C28.9527 8.42945 30.0757 8.85852 31.1994 8.86037C31.2012 9.98406 31.6305 11.1072 32.4877 11.9644C34.2062 13.6827 36.9919 13.6827 38.7104 11.9644C40.4287 10.2461 40.4287 7.46017 38.7104 5.74188Z" fill="#FBB713"/>
<path opacity="0.25" fill-rule="evenodd" clip-rule="evenodd" d="M38.7103 10.5532C36.9918 12.2715 34.206 12.2715 32.4876 10.5532C31.6304 9.69598 31.2011 8.57285 31.1993 7.44935C30.0756 7.44749 28.9526 7.01824 28.0952 6.16086C27.4162 5.4822 27.01 4.63595 26.8676 3.75537C26.6496 5.10343 27.0558 6.53295 28.0952 7.5722C28.9526 8.42958 30.0756 8.85864 31.1993 8.8605C31.2011 9.98419 31.6304 11.1073 32.4876 11.9645C34.206 13.6828 36.9918 13.6828 38.7103 11.9645C39.7497 10.9251 40.1559 9.49556 39.9379 8.14769C39.7954 9.02808 39.3893 9.87432 38.7103 10.5532Z" fill="black"/>
</svg>
