<svg width="56" height="45" viewBox="0 0 56 45" fill="none" xmlns="http://www.w3.org/2000/svg">
<path fill-rule="evenodd" clip-rule="evenodd" d="M28.0641 21.7327H26.5781V6.91101H28.0641V21.7327Z" fill="#0CB04A"/>
<path fill-rule="evenodd" clip-rule="evenodd" d="M16.9472 21.7328H15.4609V6.91113H16.9472V21.7328Z" fill="#0CB04A"/>
<path fill-rule="evenodd" clip-rule="evenodd" d="M39.1813 21.7327H37.6953V6.91101H39.1813V21.7327Z" fill="#0CB04A"/>
<path fill-rule="evenodd" clip-rule="evenodd" d="M19.1113 5.76787C19.1113 7.37425 17.8089 8.67691 16.2023 8.67691C14.5954 8.67691 13.293 7.37425 13.293 5.76787C13.293 4.16098 16.2023 0.328735 16.2023 0.328735C16.2023 0.328735 19.1113 4.16098 19.1113 5.76787Z" fill="#FBB713"/>
<path fill-rule="evenodd" clip-rule="evenodd" d="M41.3457 5.76812C41.3457 7.37449 40.0433 8.67715 38.4364 8.67715C36.8297 8.67715 35.5273 7.37449 35.5273 5.76812C35.5273 4.16123 38.4364 0.328979 38.4364 0.328979C38.4364 0.328979 41.3457 4.16123 41.3457 5.76812Z" fill="#FBB713"/>
<path fill-rule="evenodd" clip-rule="evenodd" d="M30.2285 5.76787C30.2285 7.37425 28.9261 8.67691 27.3194 8.67691C25.7128 8.67691 24.4102 7.37425 24.4102 5.76787C24.4102 4.16098 27.3194 0.328735 27.3194 0.328735C27.3194 0.328735 30.2285 4.16098 30.2285 5.76787Z" fill="#FBB713"/>
<path fill-rule="evenodd" clip-rule="evenodd" d="M50.7828 42.978V31.69C50.7828 25.0997 46.6905 19.7576 41.6424 19.7576H14.4686C9.42044 19.7576 5.32812 25.0997 5.32812 31.69V42.978H50.7828Z" fill="#FF3A2F"/>
<path fill-rule="evenodd" clip-rule="evenodd" d="M8.38312 32.5301C7.87402 32.5301 7.46094 32.1172 7.46094 31.6079C7.46094 26.179 10.9409 21.7625 15.2186 21.7625C15.728 21.7625 16.1411 22.1755 16.1411 22.6846C16.1411 23.1937 15.728 23.6068 15.2186 23.6068C11.9584 23.6068 9.30556 27.1962 9.30556 31.6079C9.30556 32.1172 8.89248 32.5301 8.38312 32.5301Z" fill="#EDEDED"/>
<path opacity="0.35" fill-rule="evenodd" clip-rule="evenodd" d="M41.6427 19.7576H37.1961C42.2439 19.7576 46.3362 25.0997 46.3362 31.69V36.7597L5.32812 39.5193L50.7828 42.978V31.69C50.7828 25.0997 46.6905 19.7576 41.6427 19.7576Z" fill="black"/>
<path fill-rule="evenodd" clip-rule="evenodd" d="M55.7226 44.9533H0.386719V39.5183H55.7226V44.9533Z" fill="#142A3B"/>
<path opacity="0.35" fill-rule="evenodd" clip-rule="evenodd" d="M51.2773 39.5183V44.9533H55.7239V39.5183H51.2773Z" fill="black"/>
</svg>
