<svg width="40" height="40" viewBox="0 0 40 40" fill="none" xmlns="http://www.w3.org/2000/svg">
<g id="&#240;&#159;&#166;&#134; illustration &#34;clock time&#34;">
<path id="Vector" d="M19.9999 39.6972C30.8773 39.6972 39.6951 30.8793 39.6951 20.002C39.6951 9.12461 30.8773 0.306763 19.9999 0.306763C9.12253 0.306763 0.304688 9.12461 0.304688 20.002C0.304688 30.8793 9.12253 39.6972 19.9999 39.6972Z" fill="#6AB6FF"/>
<path id="Vector_2" d="M2.25524 20.002C2.25527 14.9477 4.19839 10.0869 7.68251 6.42541C11.1666 2.76391 15.9251 0.581996 20.9731 0.331185C20.6507 0.31493 20.3256 0.306802 19.9978 0.306802C17.3947 0.280361 14.8122 0.770239 12.3996 1.74811C9.98695 2.72598 7.79214 4.17243 5.94204 6.00383C4.09194 7.83523 2.62327 10.0152 1.62095 12.4178C0.618622 14.8203 0.102539 17.3978 0.102539 20.001C0.102539 22.6042 0.618622 25.1817 1.62095 27.5842C2.62327 29.9868 4.09194 32.1668 5.94204 33.9982C7.79214 35.8296 9.98695 37.276 12.3996 38.2539C14.8122 39.2318 17.3947 39.7216 19.9978 39.6952C20.3243 39.6952 20.6494 39.6871 20.9731 39.6708C15.9254 39.42 11.1673 37.2384 7.68321 33.5773C4.19915 29.9162 2.25579 25.0559 2.25524 20.002Z" fill="#92CEFF"/>
<path id="Vector_3" d="M20 40C16.0444 40 12.1776 38.827 8.8886 36.6294C5.59962 34.4318 3.03617 31.3082 1.52242 27.6537C0.00866571 23.9991 -0.387401 19.9778 0.384303 16.0982C1.15601 12.2186 3.06082 8.65492 5.85787 5.85787C8.65492 3.06082 12.2186 1.15601 16.0982 0.384303C19.9778 -0.387401 23.9992 0.00866571 27.6537 1.52242C31.3082 3.03617 34.4318 5.59962 36.6294 8.8886C38.827 12.1776 40 16.0444 40 20C39.9941 25.3025 37.8851 30.3862 34.1356 34.1356C30.3862 37.885 25.3025 39.9941 20 40ZM20 0.611611C16.1649 0.611611 12.416 1.74884 9.22726 3.87949C6.03852 6.01013 3.5532 9.0385 2.08559 12.5816C0.617972 16.1248 0.233977 20.0235 0.982161 23.7849C1.73034 27.5463 3.5771 31.0013 6.2889 33.7131C9.0007 36.4249 12.4557 38.2717 16.2171 39.0199C19.9785 39.7681 23.8773 39.3841 27.4204 37.9165C30.9635 36.4488 33.9919 33.9635 36.1226 30.7748C38.2532 27.586 39.3904 23.8371 39.3904 20.002C39.3851 14.861 37.3404 9.93212 33.7052 6.29688C30.0699 2.66163 25.141 0.61699 20 0.611611Z" fill="#3D3634"/>
<path id="Vector_4" d="M20.0002 36.1861C29.0102 36.1861 36.3143 28.882 36.3143 19.872C36.3143 10.8619 29.0102 3.55786 20.0002 3.55786C10.9901 3.55786 3.68604 10.8619 3.68604 19.872C3.68604 28.882 10.9901 36.1861 20.0002 36.1861Z" fill="#E8E8E8"/>
<path id="Vector_5" d="M4.9844 21.9466C4.98568 18.5091 6.07271 15.1599 8.09036 12.3769C10.108 9.59389 12.9532 7.5193 16.2198 6.4492C19.4864 5.37909 23.0076 5.36816 26.2808 6.41795C29.5541 7.46774 32.4121 9.52462 34.447 12.295C33.4066 10.3019 31.9656 8.54534 30.2143 7.13548C28.463 5.72561 26.4392 4.6929 24.2699 4.10214C22.1006 3.51138 19.8327 3.37532 17.6083 3.7025C15.3839 4.02967 13.2512 4.81302 11.3439 6.0034C9.43661 7.19378 7.79591 8.76549 6.52474 10.6199C5.25358 12.4744 4.37938 14.5715 3.95701 16.7798C3.53464 18.988 3.57321 21.2597 4.07029 23.4524C4.56737 25.645 5.51224 27.7113 6.84562 29.5215C5.61907 27.1852 4.98024 24.5853 4.9844 21.9466Z" fill="#DADADA"/>
<g id="Group">
<path id="Vector_6" d="M19.561 8.56453C20.2153 8.56453 20.2153 7.54858 19.561 7.54858C18.9067 7.54858 18.9067 8.56453 19.561 8.56453Z" fill="#3D3634"/>
<path id="Vector_7" d="M20.5361 34.6928C21.1904 34.6928 21.1904 33.6769 20.5361 33.6769C19.8818 33.6769 19.8818 34.6928 20.5361 34.6928Z" fill="#3D3634"/>
<path id="Vector_8" d="M33.4043 21.2396C34.0586 21.2396 34.0586 20.2236 33.4043 20.2236C32.75 20.2236 32.75 21.2396 33.4043 21.2396Z" fill="#3D3634"/>
<path id="Vector_9" d="M6.50193 21.0445C7.15621 21.0445 7.15621 20.0286 6.50193 20.0286C5.84766 20.0286 5.84766 21.0445 6.50193 21.0445Z" fill="#3D3634"/>
</g>
<path id="Vector_10" d="M20.9386 14.5992C20.9386 14.0729 20.512 13.6462 19.9857 13.6462C19.4594 13.6462 19.0327 14.0729 19.0327 14.5992V19.7033C19.0327 20.2296 19.4594 20.6563 19.9857 20.6563C20.512 20.6563 20.9386 20.2296 20.9386 19.7033V14.5992Z" fill="#E8E8E8"/>
<path id="Vector_11" d="M20.9386 14.5992C20.9386 14.0729 20.512 13.6462 19.9857 13.6462C19.4594 13.6462 19.0327 14.0729 19.0327 14.5992V19.7033C19.0327 20.2296 19.4594 20.6563 19.9857 20.6563C20.512 20.6563 20.9386 20.2296 20.9386 19.7033V14.5992Z" fill="#3D3634"/>
<path id="Vector_12" d="M19.9676 22.4871C20.8833 22.4871 21.6256 21.7448 21.6256 20.8291C21.6256 19.9133 20.8833 19.171 19.9676 19.171C19.0519 19.171 18.3096 19.9133 18.3096 20.8291C18.3096 21.7448 19.0519 22.4871 19.9676 22.4871Z" fill="#E8E8E8"/>
<path id="Vector_13" d="M19.9676 22.357C20.8833 22.357 21.6256 21.6146 21.6256 20.6989C21.6256 19.7832 20.8833 19.0409 19.9676 19.0409C19.0519 19.0409 18.3096 19.7832 18.3096 20.6989C18.3096 21.6146 19.0519 22.357 19.9676 22.357Z" fill="#3D3634"/>
<path id="Vector_14" d="M12.7298 26.0469L26.7845 16.7002L28.7778 15.3754C29.3203 15.0158 28.8123 14.1339 28.2658 14.4976L14.2111 23.8444L12.2178 25.1692C11.6753 25.5288 12.1833 26.4107 12.7298 26.0469Z" fill="#3D3634"/>
<g id="Group_2" opacity="0.4">
<path id="Vector_15" opacity="0.1" d="M19.9836 35.7615C28.9936 35.7615 36.2977 28.5811 36.2977 19.7237C36.2977 10.8663 28.9936 3.68591 19.9836 3.68591C10.9735 3.68591 3.66943 10.8663 3.66943 19.7237C3.66943 28.5811 10.9735 35.7615 19.9836 35.7615Z" fill="#55E0FF"/>
<g id="Group_3">
<path id="Vector_16" d="M23.1637 3.89517L6.65451 29.0298C5.75606 27.5024 5.10395 25.843 4.72217 24.1126L18.0027 3.89924C19.713 3.61953 21.4574 3.61953 23.1678 3.89924L23.1637 3.89517Z" fill="white"/>
<path id="Vector_17" d="M27.76 5.6771L9.69237 32.0044C9.14543 31.5184 8.6322 30.9956 8.15625 30.4399L25.7098 4.8623C26.411 5.08688 27.096 5.35911 27.76 5.6771Z" fill="white"/>
<path id="Vector_18" d="M35.9075 15.987L22.4259 35.6335C20.9599 35.8441 19.4724 35.8591 18.0024 35.6782L34.2922 11.9415C35.0152 13.2088 35.5589 14.5703 35.9075 15.987Z" fill="white"/>
</g>
</g>
<path id="Vector_19" d="M20.0003 36.751C16.7134 36.751 13.5003 35.7763 10.7673 33.9502C8.03433 32.1241 5.90424 29.5286 4.64639 26.4919C3.38855 23.4552 3.05944 20.1137 3.70068 16.8899C4.34193 13.6662 5.92473 10.705 8.24892 8.38076C10.5731 6.05656 13.5343 4.47376 16.7581 3.83252C19.9818 3.19127 23.3233 3.52038 26.36 4.77823C29.3968 6.03608 31.9923 8.16616 33.8184 10.8991C35.6445 13.6321 36.6192 16.8452 36.6192 20.1321C36.6143 24.5382 34.8619 28.7625 31.7463 31.8781C28.6307 34.9937 24.4064 36.7462 20.0003 36.751ZM20.0003 4.12276C16.8339 4.12276 13.7387 5.06169 11.106 6.82082C8.47323 8.57995 6.42127 11.0803 5.20956 14.0056C3.99785 16.9309 3.68082 20.1499 4.29854 23.2554C4.91626 26.3609 6.44101 29.2135 8.67995 31.4524C10.9189 33.6914 13.7715 35.2161 16.877 35.8338C19.9825 36.4516 23.2015 36.1345 26.1268 34.9228C29.0521 33.7111 31.5524 31.6591 33.3115 29.0264C35.0707 26.3937 36.0096 23.2985 36.0096 20.1321C36.0053 15.8873 34.3173 11.8175 31.316 8.81582C28.3146 5.8141 24.2451 4.12557 20.0003 4.12073V4.12276Z" fill="#3D3634"/>
</g>
</svg>
