<svg width="28" height="40" viewBox="0 0 28 40" fill="none" xmlns="http://www.w3.org/2000/svg">
<g id="&#240;&#159;&#166;&#134; illustration &#34;avatar doctor health hospital man medical 2&#34;">
<path id="Vector" d="M8.27237 6.7583V10.1819H7.63601C7.29877 10.1829 6.97563 10.3174 6.73717 10.5558C6.4987 10.7943 6.36429 11.1174 6.36328 11.4547V8.27285C6.82639 7.5815 7.49381 7.05201 8.27237 6.7583Z" fill="#40240F"/>
<path id="Vector_2" d="M21.6361 8.27285V11.4547C21.6351 11.1174 21.5007 10.7943 21.2623 10.5558C21.0238 10.3174 20.7007 10.1829 20.3634 10.1819H19.7271V6.7583C20.5056 7.05201 21.173 7.5815 21.6361 8.27285Z" fill="#40240F"/>
<path id="Vector_3" d="M27.4848 32.4226L28.0002 34.3635H26.0911H22.2729V32.4544H27.3639L27.4848 32.4226Z" fill="#13969D"/>
<path id="Vector_4" d="M26.0911 34.3635V39.4544H22.2729V36.2726V34.3635H26.0911Z" fill="#F2C4B2"/>
<path id="Vector_5" d="M25.4543 24.8184L19.0015 22.9729L13.9997 26.7274L8.99789 22.9729L2.54516 24.8184L0.508789 32.4547H5.72698V39.4547H22.2725V32.4547H27.3634L27.4843 32.4229L25.4543 24.8184ZM19.0906 37.5456H17.1815C16.8443 37.5446 16.5212 37.4102 16.2827 37.1717C16.0442 36.9333 15.9098 36.6101 15.9088 36.2729V32.4547H20.3634V36.2729C20.3624 36.6101 20.2279 36.9333 19.9895 37.1717C19.751 37.4102 19.4279 37.5446 19.0906 37.5456Z" fill="#34C1AD"/>
<path id="Vector_6" d="M21.636 11.4545V12.339C21.6365 12.654 21.5589 12.9643 21.4101 13.2419C21.2613 13.5195 21.0459 13.7559 20.7833 13.9299L19.7269 14.6363C17.9275 13.8174 15.9766 13.3839 13.9997 13.3636C12.0227 13.3839 10.0719 13.8174 8.27238 14.6363L7.21601 13.9299C6.9534 13.7559 6.73804 13.5195 6.58922 13.2419C6.4404 12.9643 6.36277 12.654 6.36328 12.339V11.4545C6.36429 11.1172 6.4987 10.7941 6.73717 10.5556C6.97563 10.3172 7.29877 10.1828 7.63601 10.1817H8.27238V6.75811C10.0824 5.99727 12.038 5.64526 13.9997 5.7272C15.9613 5.64526 17.9169 5.99727 19.7269 6.75811V10.1817H20.3633C20.7005 10.1828 21.0237 10.3172 21.2621 10.5556C21.5006 10.7941 21.635 11.1172 21.636 11.4545Z" fill="#F2C4B2"/>
<path id="Vector_7" d="M19.7269 6.75818C17.9169 5.99734 15.9613 5.64533 13.9997 5.72727C12.038 5.64533 10.0824 5.99734 8.27237 6.75818C7.49381 7.05189 6.82639 7.58138 6.36328 8.27272V5.09091C6.36328 3.74071 6.89964 2.44582 7.85438 1.49109C8.80911 0.536362 10.104 0 11.4542 0H16.5451C17.8953 0 19.1902 0.536362 20.1449 1.49109C21.0997 2.44582 21.636 3.74071 21.636 5.09091V8.27272C21.1729 7.58138 20.5055 7.05189 19.7269 6.75818Z" fill="#34C1AD"/>
<path id="Vector_8" d="M8.27237 8.03103V6.7583C7.49381 7.05201 6.82639 7.5815 6.36328 8.27285V9.54557C6.82639 8.85423 7.49381 8.32474 8.27237 8.03103Z" fill="#241408"/>
<path id="Vector_9" d="M19.7271 6.7583V8.03103C20.5056 8.32474 21.173 8.85423 21.6361 9.54557V8.27285C21.173 7.5815 20.5056 7.05201 19.7271 6.7583Z" fill="#241408"/>
<path id="Vector_10" d="M14.0002 7.00017C15.9619 6.91823 17.9175 7.27024 19.7275 8.03108V6.75835C17.9175 5.99751 15.9619 5.64551 14.0002 5.72745C12.0385 5.64551 10.0829 5.99751 8.27295 6.75835V8.03108C10.0829 7.27024 12.0385 6.91823 14.0002 7.00017Z" fill="#F2A283"/>
<path id="Vector_11" d="M20.3637 32.4546V36.2728C20.3627 36.61 20.2283 36.9331 19.9898 37.1716C19.7514 37.4101 19.4282 37.5445 19.091 37.5455H17.1819C16.8447 37.5445 16.5215 37.4101 16.2831 37.1716C16.0446 36.9331 15.9102 36.61 15.9092 36.2728V32.4546H20.3637Z" fill="#13969D"/>
<path id="Vector_12" d="M19.0017 22.9727L13.9999 26.7272L8.99805 22.9727L11.4544 22.2727L13.9999 24.1818L16.5453 22.2727L19.0017 22.9727Z" fill="#13969D"/>
<path id="Vector_13" d="M16.5457 18.5053C15.7524 18.8906 14.8821 19.0908 14.0002 19.0908C13.1184 19.0908 12.248 18.8906 11.4548 18.5053C10.6671 18.1419 9.97186 17.6051 9.42088 16.9351C8.8699 16.2651 8.47748 15.4792 8.27295 14.6363C10.0724 13.8174 12.0233 13.3839 14.0002 13.3635C15.9772 13.3839 17.928 13.8174 19.7275 14.6363C19.523 15.4792 19.1306 16.2651 18.5796 16.9351C18.0286 17.6051 17.3333 18.1419 16.5457 18.5053Z" fill="#13969D"/>
<path id="Vector_14" d="M16.5455 18.5056V22.2729L14 24.182L11.4546 22.2729V18.5056C12.2478 18.8909 13.1182 19.091 14 19.091C14.8819 19.091 15.7523 18.8909 16.5455 18.5056Z" fill="#F2B59D"/>
<path id="Vector_15" d="M1.90918 34.3635H5.72737V39.4544H1.90918V34.3635Z" fill="#F2C4B2"/>
<path id="Vector_16" d="M5.72728 32.4546V34.3637H1.90909H0L0.509092 32.4546H5.72728Z" fill="#13969D"/>
<path id="Vector_17" d="M26.0911 34.3635H22.2729V39.4544H24.182V36.909C24.182 36.5714 24.3161 36.2477 24.5548 36.009C24.7935 35.7703 25.1172 35.6363 25.4548 35.6363H26.0911V34.3635Z" fill="#F2A283"/>
<path id="Vector_18" d="M1.90918 34.3635H5.72737V39.4544H3.81827V36.909C3.81827 36.5714 3.68418 36.2477 3.4455 36.009C3.20682 35.7703 2.88309 35.6363 2.54554 35.6363H1.90918V34.3635Z" fill="#F2A283"/>
<path id="Vector_19" d="M16.5455 18.5056C15.7523 18.8909 14.8819 19.091 14 19.091C13.1182 19.091 12.2478 18.8909 11.4546 18.5056V22.2729L11.9039 22.6095L16.5455 19.5155V18.5056Z" fill="#F2A283"/>
<path id="Vector_20" d="M19.7271 10.8184V13.3638L20.296 13.0794C20.5074 12.9737 20.6853 12.8112 20.8096 12.6101C20.9339 12.409 20.9998 12.1773 20.9998 11.9409V11.4547C20.9998 11.2859 20.9327 11.1241 20.8134 11.0047C20.6941 10.8854 20.5322 10.8184 20.3634 10.8184H19.7271Z" fill="#D9896D"/>
<path id="Vector_21" d="M8.27273 10.8184V13.3638L7.70382 13.0794C7.49235 12.9737 7.31449 12.8112 7.19017 12.6101C7.06586 12.409 7.00001 12.1773 7 11.9409V11.4547C7 11.2859 7.06704 11.1241 7.18639 11.0047C7.30573 10.8854 7.46759 10.8184 7.63636 10.8184H8.27273Z" fill="#D9896D"/>
<path id="Vector_22" d="M13.9998 13.3635C14.1756 13.3635 14.318 13.0786 14.318 12.7272C14.318 12.3757 14.1756 12.0908 13.9998 12.0908C13.8241 12.0908 13.6816 12.3757 13.6816 12.7272C13.6816 13.0786 13.8241 13.3635 13.9998 13.3635Z" fill="#D9896D"/>
<g id="Group">
<path id="Vector_23" d="M15.5272 8.26441C15.5185 8.26713 15.5096 8.26926 15.5005 8.27077C15.3732 8.29368 15.2759 8.09132 15.2759 7.95259C15.2759 7.91377 15.2905 6.99805 16.5486 6.99805C17.8067 6.99805 17.8213 7.91377 17.8213 7.95259C17.8232 8.00847 17.811 8.06392 17.786 8.11392C17.761 8.16393 17.724 8.2069 17.6782 8.23896C17.5859 8.29559 17.4955 8.24277 17.4236 8.15623C17.3886 8.11296 17.36 8.0595 17.3237 8.01877C17.2864 7.98197 17.2435 7.95145 17.1964 7.92841C17.0849 7.86317 16.967 7.80965 16.8445 7.76868C16.682 7.72214 16.5105 7.7168 16.3454 7.75313C16.1803 7.78946 16.0268 7.86632 15.8989 7.97677C15.7928 8.09369 15.667 8.19105 15.5272 8.26441Z" fill="#43251A"/>
<path id="Vector_24" d="M12.4759 8.26441C12.4847 8.26713 12.4936 8.26926 12.5026 8.27077C12.6299 8.29368 12.7273 8.09132 12.7273 7.95259C12.7273 7.91377 12.7126 6.99805 11.4546 6.99805C10.1965 6.99805 10.1818 7.91377 10.1818 7.95259C10.18 8.00847 10.1921 8.06392 10.2171 8.11392C10.2421 8.16393 10.2792 8.2069 10.325 8.23896C10.4173 8.29559 10.5076 8.24277 10.5796 8.15623C10.6146 8.11296 10.6432 8.0595 10.6795 8.01877C10.7167 7.98197 10.7597 7.95145 10.8067 7.92841C10.9182 7.86317 11.0361 7.80965 11.1586 7.76868C11.3212 7.72214 11.4927 7.7168 11.6578 7.75313C11.8229 7.78946 11.9763 7.86632 12.1043 7.97677C12.2104 8.09369 12.3361 8.19105 12.4759 8.26441Z" fill="#43251A"/>
<path id="Vector_25" d="M16.8634 12.409C17.2149 12.409 17.4998 11.8392 17.4998 11.1363C17.4998 10.4333 17.2149 9.86353 16.8634 9.86353C16.512 9.86353 16.2271 10.4333 16.2271 11.1363C16.2271 11.8392 16.512 12.409 16.8634 12.409Z" fill="#43251A"/>
<path id="Vector_26" d="M11.1364 12.409C11.4878 12.409 11.7727 11.8392 11.7727 11.1363C11.7727 10.4333 11.4878 9.86353 11.1364 9.86353C10.7849 9.86353 10.5 10.4333 10.5 11.1363C10.5 11.8392 10.7849 12.409 11.1364 12.409Z" fill="#43251A"/>
</g>
<path id="Vector_27" d="M18.4542 3.81818H11.4542C10.9479 3.81818 10.4623 3.61704 10.1043 3.25902C9.74624 2.901 9.5451 2.41541 9.5451 1.90909C9.5451 1.40277 9.74624 0.917183 10.1043 0.559159C10.4623 0.201136 10.9479 7.54479e-09 11.4542 0C10.104 0 8.80911 0.536362 7.85438 1.49109C6.89964 2.44582 6.36328 3.74071 6.36328 5.09091V8.27272C6.82639 7.58138 7.49381 7.05189 8.27237 6.75818C10.0824 5.99734 12.038 5.64533 13.9997 5.72727C15.9613 5.64533 17.9169 5.99734 19.7269 6.75818C20.5055 7.05189 21.1729 7.58138 21.636 8.27272V7C21.636 6.15613 21.3008 5.34682 20.7041 4.75011C20.1074 4.15341 19.2981 3.81818 18.4542 3.81818Z" fill="#21ABAB"/>
<path id="Vector_28" d="M19.7269 5.4854C17.9169 4.72456 15.9613 4.37256 13.9997 4.4545C12.038 4.37256 10.0824 4.72456 8.27237 5.4854C7.49381 5.77911 6.82639 6.3086 6.36328 6.99995V8.27268C6.82639 7.58133 7.49381 7.05184 8.27237 6.75813C10.0824 5.99729 12.038 5.64528 13.9997 5.72722C15.9613 5.64528 17.9169 5.99729 19.7269 6.75813C20.5055 7.05184 21.1729 7.58133 21.636 8.27268V6.99995C21.1729 6.3086 20.5055 5.77911 19.7269 5.4854Z" fill="#13969D"/>
<path id="Vector_29" d="M23.5457 33.7273V32.4546H22.2729V34.3637H26.0911H28.0002L27.831 33.7273H23.5457Z" fill="#107C82"/>
<path id="Vector_30" d="M4.45455 33.7273H0.169909L0 34.3637H1.90909H5.72728V32.4546H4.45455V33.7273Z" fill="#107C82"/>
<path id="Vector_31" d="M22.2729 32.4545V28C22.6105 28 22.9342 28.1341 23.1729 28.3728C23.4116 28.6115 23.5457 28.9352 23.5457 29.2727V32.4545H22.2729Z" fill="#21ABAB"/>
<path id="Vector_32" d="M5.72732 32.4545V28C5.38977 28 5.06605 28.1341 4.82736 28.3728C4.58868 28.6115 4.45459 28.9352 4.45459 29.2727V32.4545H5.72732Z" fill="#21ABAB"/>
<path id="Vector_33" d="M12.1633 23.0726L12.3542 22.9453L11.4544 22.2727L8.99805 22.9727L13.9999 26.7272L14.6693 26.2245L12.1092 24.0908C12.0332 24.0274 11.973 23.9472 11.9334 23.8565C11.8938 23.7657 11.8759 23.667 11.8811 23.5682C11.8864 23.4693 11.9146 23.373 11.9636 23.287C12.0126 23.201 12.081 23.1276 12.1633 23.0726Z" fill="#107C82"/>
<path id="Vector_34" d="M19.0912 37.5454H17.1821C16.8543 37.5444 16.5395 37.4169 16.3034 37.1895C16.0672 36.9622 15.9279 36.6524 15.9145 36.3249C9.92754 35.1756 5.72754 32.4545 5.72754 29.2727V39.4545H22.273V36.9091C21.5768 36.9091 20.8927 36.8868 20.2188 36.8486C20.113 37.0571 19.9518 37.2325 19.7529 37.3554C19.554 37.4783 19.325 37.5441 19.0912 37.5454Z" fill="#21ABAB"/>
<path id="Vector_35" d="M15.9092 32.4546H20.3637V33.7273H15.9092V32.4546Z" fill="#107C82"/>
<path id="Vector_36" d="M10.2253 13.918C9.55588 14.1034 8.90288 14.3437 8.27295 14.6364C8.47748 15.4794 8.8699 16.2653 9.42088 16.9353C9.97186 17.6052 10.6671 18.142 11.4548 18.5055C12.248 18.8908 13.1184 19.0909 14.0002 19.0909C14.8821 19.0909 15.7524 18.8908 16.5457 18.5055C16.5896 18.4845 16.631 18.4578 16.673 18.4361C13.2964 18.2599 10.5861 16.3489 10.2253 13.918Z" fill="#107C82"/>
<path id="Vector_37" d="M7.9545 22.9089V35.4065L6.26305 35.9703C6.19961 35.9914 6.14444 36.032 6.10538 36.0862C6.06631 36.1405 6.04533 36.2057 6.04541 36.2725V39.4544H6.68177V36.5016L8.27269 35.9715L9.8636 36.5016V39.4544H10.5V36.2725C10.5 36.2057 10.4791 36.1405 10.44 36.0862C10.4009 36.032 10.3458 35.9914 10.2823 35.9703L8.59087 35.4071V22.9089C8.59087 22.487 8.75848 22.0823 9.05684 21.784C9.35519 21.4856 9.75984 21.318 10.1818 21.318H11.4545V20.6816H10.1818C9.59107 20.6816 9.02455 20.9163 8.60686 21.334C8.18916 21.7517 7.9545 22.3182 7.9545 22.9089Z" fill="#E3E3E3"/>
<path id="Vector_38" d="M17.8181 20.6816H16.5454V21.318H17.8181C18.2401 21.318 18.6447 21.4856 18.9431 21.784C19.2414 22.0823 19.4091 22.487 19.4091 22.9089V32.4544H20.0454V22.9089C20.0454 22.3182 19.8108 21.7517 19.3931 21.334C18.9754 20.9163 18.4088 20.6816 17.8181 20.6816Z" fill="#E3E3E3"/>
</g>
</svg>
