<svg width="41" height="36" viewBox="0 0 41 36" fill="none" xmlns="http://www.w3.org/2000/svg">
<path d="M8.63753 1.18749L7.88659 4.63947L6.30744 5.02782L5.04007 6.40343L1.24385 6.84011L1 7.8757L2.27178 10.0047L7.10989 11.2414L7.76777 18.0728L8.20604 20.7775L11.6172 23.3391L12.9917 27.586L12.4395 32.788L12.9917 35.1751L14.7648 34.3906L16.0724 30.9859L17.5264 24.4884L19.8529 25.0925L25.0656 24.4884L30.6439 22.9781L32.6738 25.6586L34.7 28.417L35.0021 33.6793L35.8219 35.1236L37.9715 34.4865L38.1778 28.096L36.8318 23.8799L37.724 19.2241L37.0733 16.8508L37.7637 16.8077L37.3322 15.3838C37.3322 15.3838 40.979 12.4689 40.9999 8.5661C41.0261 3.66139 35.9657 -0.82619 32.3124 0.8998L33.081 1.73242L35.9946 2.74088L38.036 5.45358L38.2151 9.51539L36.2477 11.5829C36.2477 11.5829 33.888 12.4929 33.7566 12.5049C33.6253 12.5171 31.4388 12.2478 31.1454 12.2032C30.852 12.1587 25.8541 12.0487 25.6815 12.0474C25.5089 12.0462 16.0851 11.9749 16.0851 11.9749L14.8678 8.52074L13.4321 6.57886L11.8222 5.44502L11.0544 3.4116L10.2772 1.87788L8.63753 1.18749Z" fill="#F4AA41"/>
<path d="M27.3359 23.5606L28.1701 26.0417L31.109 28.0766L30.9406 32.4567L31.3632 35.1237L33.5495 35.4771C33.5495 35.4771 35.1029 35.0168 35.4769 33.0032L34.9591 27.5664L32.5427 25.15L30.7879 22.187L27.3359 23.5606Z" fill="#E27022"/>
<path d="M8.26594 19.8622L4.45115 25.159C4.4419 25.1719 4.4363 25.1871 4.43513 25.2029L4.20923 28.1682C4.20771 28.1883 4.21324 28.2083 4.2249 28.2247L6.42693 31.3301C6.44198 31.3513 6.46573 31.3646 6.49162 31.3664L9.21807 31.5492C9.2499 31.5514 9.28035 31.5358 9.29719 31.5087L10.0983 30.2221C10.1021 30.216 10.1035 30.2146 10.1057 30.2079C10.137 30.1116 10.4154 28.3546 9.30451 28.2168C8.00408 28.0556 7.88602 27.3652 8.15817 26.5268C8.15189 26.4942 8.16494 26.4608 8.19166 26.441L12.0108 23.6185C12.0524 23.5878 12.0578 23.5277 12.0225 23.4899L10.0391 21.3756C10.0257 21.3614 10.0102 21.3522 9.99084 21.3497C9.78365 21.3224 8.45194 21.1009 8.42039 19.9077C8.41811 19.8271 8.31303 19.7969 8.26594 19.8622Z" fill="#E27022"/>
<path d="M37.2587 17.1816C37.719 18.3539 37.8459 19.2278 37.6149 20.2892L36.8332 23.8799L38.1792 28.096C38.1792 28.096 38.2625 31.389 38.1802 33.8115C38.1547 34.5619 37.5247 35.1752 36.7738 35.1751H36.53C35.6004 35.1751 35.2005 34.2605 35.2005 33.3309L34.6122 27.5376C34.6122 27.5376 29.4406 23.7634 30.1534 18.1453" stroke="#944A17" stroke-width="1.38079" stroke-miterlimit="10" stroke-linecap="round" stroke-linejoin="round"/>
<path d="M19.8926 24.4885C22.5391 24.3468 27.6489 24.4885 30.2379 22.6331" stroke="#944A17" stroke-width="1.38079" stroke-miterlimit="10" stroke-linecap="round" stroke-linejoin="round"/>
<path d="M32.3962 1.53271C36.3731 2.59993 37.9709 4.49465 38.3677 6.50681C39.0852 10.1445 35.5978 13.2713 31.9995 12.3768C30.2558 11.9434 28.79 12.0711 28.79 12.0711L16.0853 11.975C14.9203 6.36549 11.6341 5.37132 11.6341 5.37132C11.0367 1.53271 8.66352 1.53271 8.66352 1.53271L8.18059 4.87361L7.16957 5.04628C6.62809 5.13872 6.12561 5.38809 5.72449 5.76339L4.79073 6.63702L1.95036 6.94252C1.42476 6.99906 1.10186 7.54579 1.30608 8.03341L1.91404 9.4847C2.11398 9.96197 2.53975 10.3074 3.04802 10.4046L7.5129 10.9106C7.5129 10.9106 6.8225 20.0008 9.39714 21.3816C15.0107 24.3922 12.4398 32.788 12.4398 32.788C11.8725 33.7796 12.3108 35.1752 13.4532 35.1752H13.4543C14.0024 35.1752 14.5061 34.8737 14.7651 34.3906L16.2148 30.6156L17.1657 24.302C17.2403 23.8065 17.1406 23.306 16.9135 22.8593C16.5158 22.0768 16.0479 20.539 16.8189 18.3539" stroke="#944A17" stroke-width="1.38079" stroke-miterlimit="10" stroke-linecap="round" stroke-linejoin="round"/>
<path d="M7.96184 20.2083L4.95757 24.8028C4.73581 25.1271 4.60933 25.5139 4.59911 25.9204C4.56874 27.1322 4.42327 29.7461 6.66969 31.2295C7.25963 31.619 8.3711 31.6706 8.95774 31.3064C9.4531 30.9989 9.85719 30.4151 9.49204 29.3102" stroke="#944A17" stroke-width="1.38079" stroke-miterlimit="10" stroke-linecap="round" stroke-linejoin="round"/>
<path d="M10.9307 23.7542L7.88672 25.8804" stroke="#944A17" stroke-width="1.38079" stroke-miterlimit="10" stroke-linecap="round" stroke-linejoin="round"/>
<path d="M28.8008 25.8804C29.0997 26.9622 30.9253 27.9536 31.735 28.458L30.9964 33.3894C30.9964 33.8397 31.1254 34.2738 31.4041 34.5853C32.1377 35.4051 33.0819 35.0446 33.0819 35.0446" stroke="#944A17" stroke-width="1.38079" stroke-miterlimit="10" stroke-linecap="round" stroke-linejoin="round"/>
</svg>
