<svg width="20" height="24" viewBox="0 0 20 24" fill="none" xmlns="http://www.w3.org/2000/svg">
<path d="M19.6637 21.3296V22.315C19.6631 22.5447 19.5716 22.7649 19.4092 22.9274C19.2468 23.0899 19.0267 23.1815 18.797 23.1822H1.20204C0.972417 23.1813 0.752465 23.0896 0.590199 22.9272C0.427932 22.7647 0.336528 22.5446 0.335938 22.315V21.3296C0.336529 21.0999 0.428028 20.8798 0.590432 20.7174C0.752835 20.555 0.972932 20.4635 1.2026 20.4629H18.7964C19.0262 20.4633 19.2465 20.5548 19.409 20.7172C19.5715 20.8796 19.6631 21.0998 19.6637 21.3296Z" fill="#FFA546"/>
<path opacity="0.4" d="M19.6637 22.7929C19.6637 23.0142 19.2715 23.1957 18.797 23.1957H1.20204C0.728094 23.1934 0.335938 23.0142 0.335938 22.7929V21.3296C0.336529 21.0999 0.428028 20.8798 0.590432 20.7174C0.752835 20.555 0.972932 20.4635 1.2026 20.4629H2.10961L2.30232 21.8786C2.30232 22.1027 2.69448 22.2819 3.16899 22.2819L19.0637 22.9789L19.4771 22.8511L19.6637 22.7929Z" fill="#FF6059"/>
<path d="M13.8899 7.7309H13.0664V2.33594C13.0664 1.80551 12.8557 1.2968 12.4806 0.921724C12.1055 0.546651 11.5968 0.335938 11.0664 0.335938H8.93304C8.40261 0.335938 7.8939 0.546651 7.51883 0.921724C7.14375 1.2968 6.93304 1.80551 6.93304 2.33594V7.7309H6.11007C4.48206 7.7309 3.46469 9.49449 4.2787 10.904L6.2238 14.2726L7.90447 17.1858C8.83444 18.797 11.1605 18.797 12.0905 17.1858L13.7711 14.2726L15.7162 10.904C16.5347 9.49449 15.5185 7.7309 13.8899 7.7309Z" fill="#FFA546"/>
<path opacity="0.4" d="M15.7208 10.5321L13.7752 13.9007L12.0945 16.8138C11.4648 17.904 8.35893 18.6503 9.1522 17.8716C12.5259 14.5595 14.9953 7.6665 14.9953 7.6665C15.4667 7.95468 15.8065 8.41588 15.9421 8.95143C16.0777 9.48697 15.9982 10.0543 15.7208 10.5321Z" fill="#FF6059"/>
<path d="M10.7733 0.335938C10.761 0.348823 10.7498 0.362268 10.7381 0.376274C8.55766 2.89728 9.70948 6.90233 8.33749 9.93986C7.76942 11.1976 6.70276 12.2654 5.41592 12.7119L4.36998 10.904C3.55878 9.49449 4.57559 7.7309 6.20304 7.7309H7.02657V2.33594C7.02657 1.80551 7.23728 1.2968 7.61235 0.921724C7.98743 0.546651 8.49613 0.335938 9.02657 0.335938H10.7733Z" fill="#FFD947"/>
</svg>
