<svg width="16" height="16" viewBox="0 0 16 16" fill="none" xmlns="http://www.w3.org/2000/svg">
<g id="&#240;&#159;&#166;&#134; emoji &#34;globe showing Europe-Africa&#34;">
<path id="Vector" d="M7.9998 15.9999C12.418 15.9999 15.9996 12.4182 15.9996 8.00005C15.9996 3.58188 12.418 0.000244141 7.9998 0.000244141C3.58163 0.000244141 0 3.58188 0 8.00005C0 12.4182 3.58163 15.9999 7.9998 15.9999Z" fill="url(#paint0_radial_275_1378)"/>
<g id="Clip path group">
<mask id="mask0_275_1378" style="mask-type:luminance" maskUnits="userSpaceOnUse" x="0" y="0" width="16" height="16">
<g id="b">
<path id="Vector_2" d="M8.00029 15.9999C12.4185 15.9999 16.0001 12.4182 16.0001 8.00005C16.0001 3.58188 12.4185 0.000244141 8.00029 0.000244141C3.58212 0.000244141 0.000488281 3.58188 0.000488281 8.00005C0.000488281 12.4182 3.58212 15.9999 8.00029 15.9999Z" fill="white"/>
</g>
</mask>
<g mask="url(#mask0_275_1378)">
<g id="Group" opacity="0.2">
<path id="Vector_3" d="M4.65338 2.33358C4.73338 2.33358 4.81338 2.37358 4.86671 2.44025L5.3867 3.13356C5.49336 3.28023 5.52003 3.46689 5.4267 3.64022C5.37337 3.73355 5.29337 3.81355 5.20004 3.86688L4.93338 4.00021C4.90671 4.01354 4.88005 4.01354 4.85338 4.01354C4.76005 4.01354 4.66672 3.93354 4.66672 3.84021C4.66672 3.77355 4.61339 3.73355 4.56005 3.73355C4.52005 3.73355 4.48006 3.76022 4.45339 3.80021C4.44006 3.84021 4.40006 3.86688 4.36006 3.86688C4.33339 3.86688 4.32006 3.86688 4.29339 3.85355L4.24006 3.81355C4.06673 3.70688 4.0134 3.49356 4.10673 3.30689L4.25339 3.0269C4.26673 3.00023 4.26673 2.9869 4.26673 2.96024L4.24006 2.77357C4.22673 2.65358 4.26673 2.54691 4.36006 2.48025L4.49339 2.38692C4.54672 2.36025 4.60005 2.33358 4.65338 2.33358ZM4.65338 1.93359C4.52005 1.93359 4.37339 1.97359 4.26673 2.05359L4.1334 2.14692C3.90674 2.30692 3.80007 2.56025 3.84007 2.82691L3.8534 2.9069L3.74674 3.09357C3.56008 3.45356 3.68007 3.89355 4.0134 4.12021L4.06673 4.16021C4.14673 4.21354 4.24006 4.2402 4.34672 4.2402C4.37339 4.2402 4.41339 4.2402 4.44006 4.22687C4.54672 4.33354 4.69338 4.38687 4.84005 4.38687C4.93338 4.38687 5.01338 4.37353 5.09337 4.33354L5.36003 4.20021C5.53336 4.12021 5.68003 3.97354 5.77336 3.78688C5.92002 3.49356 5.89335 3.13356 5.69336 2.8669L5.20004 2.21359C5.06671 2.04026 4.86671 1.93359 4.65338 1.93359Z" fill="#424242"/>
<path id="Vector_4" d="M10.5602 6.90676L10.9202 6.97343H10.9468C11.0135 6.97343 11.0668 6.92009 11.0668 6.85343C11.0802 6.66677 11.1068 6.36011 11.0802 6.32011C11.0668 6.29344 10.9335 6.13345 10.8402 6.02678C10.7868 5.96012 10.8135 5.86679 10.8802 5.84012L10.9868 5.78679C11.0402 5.76012 11.0668 5.69346 11.0535 5.64013L11.0402 5.57346C11.0402 5.5068 10.9868 5.4668 10.9335 5.4668C10.9068 5.4668 10.8935 5.4668 10.8668 5.48013L10.3602 5.77346C10.3068 5.80012 10.2802 5.88012 10.3068 5.94678L10.5335 6.38677C10.5468 6.41344 10.5468 6.45344 10.5468 6.48011L10.4668 6.74677C10.4402 6.81343 10.4935 6.89343 10.5602 6.90676Z" fill="#424242"/>
<path id="Vector_5" d="M16.5334 11.8799C16.5201 11.8666 16.5201 11.8666 16.5067 11.8533L15.5468 10.76C15.5201 10.7333 15.5201 10.68 15.5468 10.64L15.5601 10.6266C15.5734 10.6133 15.6001 10.6 15.6134 10.6C15.6268 10.6 15.6401 10.6 15.6534 10.6133L16.0134 10.8266C16.0268 10.84 16.0401 10.84 16.0534 10.84C16.1068 10.84 16.1601 10.7733 16.1334 10.72L15.9334 10.3333L15.9201 10.3067L15.8401 9.66667C15.8268 9.58667 15.7601 9.54667 15.6934 9.54667C15.6801 9.54667 15.6668 9.54667 15.6401 9.56C15.6134 9.57334 15.6001 9.57334 15.5868 9.57334C15.5334 9.57334 15.4668 9.54667 15.4401 9.48001L15.1468 8.81336C15.1201 8.76002 15.0801 8.73336 15.0268 8.73336C15.0001 8.73336 14.9735 8.74669 14.9468 8.76003L14.4135 9.14668C14.2001 9.30668 14.0535 9.54667 14.0268 9.81333L14.0135 9.93333C14.0001 9.99999 13.9735 10.0533 13.9335 10.0933L13.8135 10.2C13.7735 10.24 13.7068 10.2533 13.6535 10.2533C13.5468 10.2533 13.4535 10.1867 13.4135 10.08L13.1868 9.37334C13.1335 9.21335 13.0535 9.06668 12.9468 8.94669L12.5868 8.53336C12.5068 8.44003 12.4002 8.3867 12.2935 8.36003L11.6135 8.25337C11.3335 8.21337 11.0802 8.05338 10.8669 7.86671C10.8269 7.84005 10.7869 7.81338 10.7336 7.81338C10.6802 7.81338 10.6269 7.84005 10.5869 7.88005C10.5336 7.93338 10.5202 8.02671 10.5602 8.10671L10.7336 8.5067C10.7602 8.5467 10.8002 8.5867 10.8536 8.5867C10.8802 8.5867 10.9069 8.57336 10.9202 8.56003L11.0269 8.48003H11.0402C11.1602 8.48003 11.5202 9.01335 11.2935 9.14668L10.5069 9.6C10.4269 9.65334 10.3336 9.66667 10.2402 9.66667C10.0536 9.66667 9.86691 9.56001 9.77358 9.38668L9.20026 8.20004C9.17359 8.16004 9.13359 8.13337 9.09359 8.13337C9.00026 8.13337 8.9336 8.22671 8.9736 8.3067L9.62691 9.76C9.72025 9.97333 9.92024 10.08 10.1336 10.08C10.2269 10.08 10.3069 10.0667 10.4002 10.0267C10.4269 10.0133 10.4536 10.0133 10.4802 10.0133C10.6002 10.0133 10.7069 10.1333 10.6802 10.2667L10.6402 10.48C10.6002 10.7066 10.4802 10.9066 10.3202 11.0533L9.92024 11.4266C9.74691 11.5866 9.65358 11.8266 9.68025 12.0666L9.65358 12.7599C9.65358 12.9066 9.58692 13.0399 9.48025 13.1466C9.30692 13.3066 9.18693 13.4799 9.06693 13.6799L8.56027 14.5732C8.40028 14.8665 8.12029 15.0799 7.80029 15.1599L7.6403 15.1999C7.6003 15.2132 7.57363 15.2132 7.53363 15.2132C7.3603 15.2132 7.20031 15.1065 7.13364 14.9332L6.66699 13.7066C6.56032 13.4132 6.52032 13.1066 6.57366 12.7999L6.58699 12.7066C6.62699 12.4799 6.61366 12.2399 6.54699 12.0133L6.32033 11.2133C6.25366 10.9733 6.027 10.8 5.78701 10.8H5.76034L4.8537 10.84H4.8137C4.58704 10.84 4.37371 10.76 4.21371 10.6L3.80039 10.2133C3.57373 9.99999 3.46707 9.70667 3.49373 9.40001L3.5204 9.05335C3.5604 8.60003 3.74706 8.17337 4.04039 7.82672L4.18705 7.66672C4.44038 7.37339 4.78703 7.1734 5.16036 7.10673L6.13367 6.92007H6.187C6.32033 6.92007 6.45366 7.02673 6.45366 7.1734C6.45366 7.26673 6.49366 7.37339 6.57366 7.42672L7.14698 7.86671C7.17364 7.88005 7.20031 7.89338 7.22697 7.89338C7.26697 7.89338 7.29364 7.88005 7.32031 7.85338L7.5603 7.56005C7.58697 7.53339 7.62696 7.52006 7.65363 7.52006H7.69363L8.74694 7.82672H8.78694C8.84027 7.82672 8.8936 7.80005 8.90693 7.74672L9.0536 7.34673C9.08026 7.26673 9.02693 7.18673 8.94693 7.1734L8.44028 7.1334C8.40028 7.1334 8.36028 7.10673 8.34695 7.06673L8.32028 7.02673C8.29361 6.98674 8.29361 6.92007 8.32028 6.86674C8.38695 6.76007 8.46694 6.65341 8.54694 6.54675C8.57361 6.50675 8.62694 6.49341 8.66694 6.49341H8.68027C9.0136 6.52008 9.57358 6.57341 9.68025 6.57341H9.69358C9.69358 6.56008 9.89358 6.16009 9.86691 6.14676C9.84024 6.13342 9.02693 5.7201 8.74694 5.58677C8.7336 5.57344 8.70694 5.57344 8.6936 5.57344C8.65361 5.57344 8.61361 5.58677 8.58694 5.62677L8.24028 6.10676C8.21362 6.16009 8.21362 6.21342 8.25362 6.26675L8.29361 6.32009C8.32028 6.34675 8.32028 6.38675 8.30695 6.41342C8.26695 6.49341 8.22695 6.57341 8.17362 6.65341C8.16028 6.68008 8.12028 6.69341 8.09362 6.69341C8.08029 6.69341 8.06695 6.69341 8.06695 6.69341C8.01362 6.66674 7.97362 6.66674 7.94696 6.66674C7.90696 6.66674 7.88029 6.68008 7.86696 6.70674L7.82696 6.85341C7.81363 6.90674 7.76029 6.94674 7.70696 6.94674C7.6803 6.94674 7.6403 6.9334 7.61363 6.90674L7.38697 6.66674C7.3603 6.64008 7.34697 6.60008 7.3603 6.56008C7.4003 6.38675 7.34697 6.21342 7.21364 6.09342L6.94698 5.8801C6.92031 5.85343 6.88032 5.8401 6.84032 5.8401C6.81365 5.8401 6.77365 5.85343 6.74699 5.86676C6.66699 5.93343 6.66699 6.02676 6.73365 6.08009L7.09364 6.36008C7.20031 6.44008 7.17364 6.64008 6.97365 6.66674H6.93365C6.84032 6.66674 6.74699 6.61341 6.69365 6.53341L6.42699 6.17342C6.347 6.06676 6.21367 6.00009 6.08034 6.00009C6.027 6.00009 5.97367 6.01343 5.92034 6.02676L5.84034 6.05343C5.68035 6.12009 5.54702 6.22675 5.46702 6.36008L5.26702 6.66674C5.16036 6.82674 5.00036 6.90674 4.8137 6.90674H4.7337L4.44038 6.86674C4.28038 6.84007 4.17372 6.70674 4.18705 6.53341V6.45342C4.20038 6.18676 4.41371 5.98676 4.66704 5.98676H4.72037H4.74703C4.9337 5.98676 5.05369 5.78677 4.9737 5.62677L4.86703 5.42677C4.78703 5.26678 4.86703 5.09345 5.01369 5.02678L5.40035 4.86679C5.53368 4.81346 5.64035 4.69346 5.66701 4.5468C5.68035 4.45346 5.76034 4.3868 5.85367 4.3868H5.90701C6.04034 4.3868 6.12033 4.2668 6.08034 4.14681C6.05367 4.08014 6.08034 4.01348 6.147 3.97348C6.17367 3.96014 6.20033 3.94681 6.227 3.94681C6.29366 3.94681 6.347 3.98681 6.37366 4.05347L6.42699 4.17347C6.45366 4.2268 6.49366 4.25347 6.54699 4.2668L7.24031 4.3468H7.25364C7.30697 4.3468 7.34697 4.32013 7.37364 4.2668L7.5603 3.81348C7.58697 3.76015 7.62696 3.73348 7.6803 3.73348C7.70696 3.73348 7.7203 3.73348 7.73363 3.74681L7.85363 3.81348C7.86696 3.82681 7.88029 3.82681 7.89362 3.82681C7.92029 3.82681 7.94696 3.81348 7.96029 3.78681C7.97362 3.76015 7.97362 3.70682 7.94696 3.68015L7.86696 3.60015C7.82696 3.56015 7.81363 3.50682 7.84029 3.46682L7.86696 3.33349C7.88029 3.29349 7.92029 3.26683 7.96029 3.25349L8.14695 3.22683C8.25362 3.21349 8.29361 3.0535 8.20028 3.00017L8.17362 2.98683C8.14695 2.9735 8.13362 2.9735 8.10695 2.9735H8.09362C8.08029 2.9735 8.06695 2.9735 8.06695 2.9735C7.85363 2.9735 7.65363 2.8535 7.5603 2.65351L7.5203 2.56018C7.49363 2.49351 7.5203 2.41351 7.58697 2.38685H7.6003C7.6403 2.37352 7.66696 2.34685 7.6803 2.30685L7.84029 1.88019C7.85363 1.8402 7.84029 1.8002 7.80029 1.77353L7.74696 1.74686C7.73363 1.74686 7.7203 1.74686 7.7203 1.74686C7.69363 1.74686 7.66696 1.7602 7.65363 1.78686L7.21364 2.60018C7.18697 2.66684 7.20031 2.73351 7.25364 2.78684C7.38697 2.8935 7.41364 3.0935 7.3603 3.25349L7.17364 3.76015C7.16031 3.78681 7.14698 3.81348 7.12031 3.82681C7.06698 3.85348 7.01365 3.86681 6.96031 3.86681C6.81365 3.86681 6.66699 3.77348 6.61366 3.61348L6.53366 3.40016C6.52032 3.34682 6.46699 3.32016 6.41366 3.32016C6.38699 3.32016 6.347 3.33349 6.32033 3.36016L6.16033 3.48015C6.12033 3.50682 6.067 3.53349 6.027 3.53349C6.00034 3.53349 5.987 3.53349 5.96034 3.52015C5.88034 3.49349 5.82701 3.41349 5.81368 3.33349L5.80034 2.94683C5.80034 2.78684 5.86701 2.62684 5.987 2.52018C6.147 2.38685 6.267 2.22685 6.32033 2.02686L6.42699 1.6802C6.48033 1.50687 6.60032 1.37354 6.76032 1.29354L7.28031 1.04021C7.37364 0.986883 7.4803 0.97355 7.58697 0.97355C7.62696 0.97355 7.6803 0.97355 7.7203 0.986883L9.33359 1.29354C9.42692 1.30687 9.52025 1.32021 9.61358 1.32021C9.65358 1.32021 9.70691 1.32021 9.74691 1.30687L12.9202 1.37354H13.0002C13.3202 1.37354 13.6402 1.33354 13.9468 1.26688L16.5334 0.653557V0.240234C16.5201 0.240234 16.5201 0.240234 16.5067 0.253567L13.8668 0.880219C13.5868 0.946884 13.2935 0.986883 13.0135 0.986883H12.9468L9.77358 0.920218H9.61358C9.54692 0.920218 9.46692 0.906885 9.40025 0.906885L7.74696 0.57356C7.6803 0.560227 7.61363 0.560226 7.53363 0.560226C7.3603 0.560226 7.20031 0.600226 7.04031 0.680224L6.52032 0.933551C6.267 1.05355 6.067 1.29354 5.987 1.57353L5.88034 1.92019C5.85367 2.02686 5.77368 2.12019 5.66701 2.21352C5.45368 2.38685 5.33369 2.66684 5.33369 2.96017L5.34702 3.34682C5.36035 3.58682 5.49368 3.78681 5.70701 3.88014C5.69368 3.92014 5.68035 3.97348 5.66701 4.01348C5.46702 4.08014 5.29369 4.25347 5.25369 4.4668C5.25369 4.48013 5.24036 4.49346 5.22702 4.49346L4.84037 4.65346C4.66704 4.72012 4.52037 4.86679 4.45371 5.05345C4.38704 5.24011 4.40038 5.42677 4.48037 5.6001C4.08038 5.66677 3.78706 6.01343 3.76039 6.44008V6.52008C3.74706 6.80007 3.88039 7.04007 4.09372 7.1734C4.01372 7.24006 3.93372 7.32006 3.86706 7.40006L3.72039 7.56005C3.3604 7.97338 3.14707 8.48003 3.09374 9.01335L3.06708 9.36001C3.02708 9.78667 3.18707 10.2133 3.50706 10.5066L3.92039 10.8933C4.16038 11.12 4.46704 11.24 4.78703 11.24H4.84037L5.74701 11.2C5.81368 11.2 5.88034 11.24 5.89367 11.32L6.12033 12.1199C6.17367 12.2933 6.17367 12.4666 6.147 12.6399L6.13367 12.7333C6.067 13.1066 6.107 13.4932 6.25366 13.8399L6.72032 15.0665C6.84032 15.3865 7.14698 15.5999 7.49363 15.5999C7.5603 15.5999 7.6403 15.5865 7.70696 15.5732L7.86696 15.5332C8.29361 15.4265 8.66694 15.1332 8.88027 14.7599L9.38692 13.8666C9.50692 13.6666 9.60025 13.5332 9.72025 13.4266C9.90691 13.2532 10.0269 13.0133 10.0269 12.7599L10.0536 12.0799V12.0266C10.0402 11.9066 10.0802 11.8 10.1736 11.72L10.5736 11.3466C10.8002 11.1333 10.9602 10.8666 11.0135 10.56L11.0535 10.3467C11.0935 10.16 11.0402 9.97333 10.9335 9.84L10.9202 9.82667L11.5069 9.48001C11.6802 9.37334 11.8535 9.13335 11.7469 8.78669C11.7335 8.76003 11.7202 8.72003 11.7069 8.68003L12.2269 8.76003C12.2535 8.76003 12.2669 8.77336 12.2802 8.78669L12.6668 9.20001C12.7468 9.29335 12.8002 9.38668 12.8268 9.49334L13.0535 10.2C13.1335 10.4666 13.3868 10.6533 13.6668 10.6533C13.8135 10.6533 13.9601 10.6 14.0801 10.4933L14.2001 10.3867C14.3201 10.28 14.4135 10.1333 14.4268 9.96L14.4401 9.84C14.4535 9.68 14.5335 9.54667 14.6668 9.45334L14.9201 9.26668L15.0801 9.61334C15.1468 9.77333 15.3068 9.89333 15.4668 9.93333L15.4934 10.2133C15.4001 10.24 15.3201 10.28 15.2534 10.3467L15.2401 10.36C15.0668 10.5333 15.0534 10.8266 15.2134 11.0266L16.1734 12.1199C16.2801 12.2399 16.4001 12.3199 16.5334 12.3866V11.8799ZM8.7736 6.04009C8.8136 6.06676 8.8536 6.08009 8.8936 6.10676C8.84027 6.09342 8.78694 6.09342 8.7336 6.09342L8.7736 6.04009ZM6.93365 7.0534H7.02698C7.08031 7.0534 7.12031 7.04007 7.16031 7.0134L7.30697 7.1734L7.33364 7.20006C7.29364 7.22673 7.26697 7.2534 7.24031 7.29339L7.17364 7.38673L6.85365 7.14673C6.85365 7.12007 6.85365 7.0934 6.84032 7.06673C6.86698 7.0534 6.90698 7.0534 6.93365 7.0534ZM5.987 6.42675L6.067 6.40008H6.08034C6.08034 6.40008 6.107 6.40008 6.107 6.41342L6.17367 6.50675C6.13367 6.50675 6.107 6.50675 6.067 6.52008L5.81368 6.56008C5.85367 6.49341 5.92034 6.45342 5.987 6.42675Z" fill="#424242"/>
<path id="Vector_6" d="M10.5202 12.7066C10.5735 12.7066 10.6402 12.7466 10.6668 12.8L10.7735 13.1066C10.8002 13.1733 10.8002 13.2533 10.7735 13.3199L10.5202 13.9599C10.4802 14.0533 10.4002 14.1066 10.2935 14.1066C10.2802 14.1066 10.2802 14.1066 10.2668 14.1066C10.0402 14.0799 9.88018 13.8666 9.90685 13.6533L9.94685 13.3599C9.97351 13.2 10.0535 13.0666 10.1602 12.96L10.4002 12.7466C10.4535 12.72 10.4935 12.7066 10.5202 12.7066ZM10.5202 12.3066C10.3868 12.3066 10.2535 12.36 10.1602 12.44L9.92018 12.6533C9.73352 12.8133 9.61352 13.04 9.57352 13.2933L9.53352 13.5866C9.50686 13.7999 9.56019 14.0266 9.69352 14.1999C9.82685 14.3733 10.0268 14.4799 10.2402 14.5066H10.3068C10.5735 14.5066 10.8135 14.3466 10.9068 14.0933L11.1601 13.4533C11.2268 13.2933 11.2268 13.12 11.1601 12.96L11.0402 12.6666C10.9602 12.4533 10.7602 12.3066 10.5202 12.3066Z" fill="#424242"/>
</g>
</g>
</g>
<g id="Clip path group_2">
<mask id="mask1_275_1378" style="mask-type:luminance" maskUnits="userSpaceOnUse" x="0" y="0" width="16" height="16">
<g id="c">
<path id="Vector_7" d="M8.00029 15.9999C12.4185 15.9999 16.0001 12.4182 16.0001 8.00005C16.0001 3.58188 12.4185 0.000244141 8.00029 0.000244141C3.58212 0.000244141 0.000488281 3.58188 0.000488281 8.00005C0.000488281 12.4182 3.58212 15.9999 8.00029 15.9999Z" fill="white"/>
</g>
</mask>
<g mask="url(#mask1_275_1378)">
<g id="Group_2">
<path id="Vector_8" d="M4.46681 3.8C4.52014 3.69333 4.68014 3.72 4.68014 3.84C4.68014 3.97333 4.8268 4.05332 4.9468 3.99999L5.21346 3.86666C5.30679 3.82666 5.38679 3.74666 5.44012 3.64C5.52012 3.48 5.50678 3.28001 5.40012 3.13335L4.88013 2.44003C4.7868 2.32003 4.6268 2.29337 4.50681 2.37336L4.37348 2.4667C4.28015 2.53336 4.22681 2.65336 4.25348 2.76002L4.28015 2.94668C4.28015 2.97335 4.28015 3.00002 4.26681 3.01335L4.12015 3.29334C4.02682 3.46667 4.08015 3.69333 4.25348 3.8L4.30681 3.84C4.36014 3.87999 4.44014 3.85333 4.46681 3.8Z" fill="url(#paint1_radial_275_1378)"/>
<path id="Vector_9" d="M16.5332 10.72C16.3733 10.5467 16.1066 10.2267 16.1199 10.2133C16.1199 10.2 16.1333 10.1333 16.1333 10.0533C16.1333 9.93334 16.2799 9.89334 16.3599 9.97334L16.5332 10.16V0.653564L13.96 1.26688C13.6267 1.34688 13.28 1.38688 12.9333 1.37355L9.76008 1.30688C9.61342 1.33355 9.46676 1.32021 9.33343 1.29355L7.6668 0.973557C7.52014 0.946891 7.36014 0.960224 7.22681 1.02689L6.70682 1.28022C6.54683 1.36021 6.42683 1.49354 6.3735 1.66687L6.26684 2.02686C6.2135 2.22686 6.08017 2.38686 5.93351 2.52019C5.80018 2.62685 5.73351 2.78685 5.74685 2.94684L5.76018 3.3335C5.76018 3.4135 5.81351 3.4935 5.90684 3.52016C5.97351 3.54683 6.04017 3.52016 6.10684 3.48016L6.26684 3.36017C6.34683 3.2935 6.4535 3.32017 6.48016 3.40016L6.56016 3.61349C6.64016 3.82682 6.88015 3.92015 7.08015 3.82682C7.10681 3.81349 7.12015 3.78682 7.13348 3.76016L7.32014 3.2535C7.38681 3.0935 7.36014 2.89351 7.21348 2.78685C7.16015 2.74685 7.14681 2.66685 7.17348 2.60018L7.61347 1.78687C7.64013 1.74687 7.68013 1.73354 7.72013 1.74687L7.77346 1.77354C7.81346 1.78687 7.84013 1.8402 7.81346 1.8802L7.65347 2.30686C7.64013 2.34686 7.61347 2.37352 7.57347 2.38686H7.56014C7.49347 2.41352 7.45347 2.49352 7.49347 2.56018L7.53347 2.65352C7.6268 2.85351 7.84013 2.98684 8.06679 2.97351C8.09346 2.97351 8.12012 2.97351 8.14679 2.98684L8.17346 3.00017C8.26679 3.06684 8.24012 3.2135 8.12012 3.22684L7.94679 3.2535C7.90679 3.26683 7.8668 3.2935 7.85346 3.3335L7.81346 3.44016C7.80013 3.4935 7.81346 3.54683 7.84013 3.57349L7.92013 3.65349C7.94679 3.68016 7.96013 3.72016 7.93346 3.76016C7.9068 3.80015 7.8668 3.81349 7.8268 3.78682L7.72013 3.73349C7.65347 3.69349 7.57347 3.73349 7.5468 3.80015L7.36014 4.25348C7.33348 4.30681 7.28014 4.33347 7.22681 4.33347L6.5335 4.25348C6.48016 4.25348 6.42683 4.21348 6.4135 4.16015L6.36017 4.04015C6.32017 3.94682 6.2135 3.90682 6.13351 3.96015C6.08017 4.00015 6.05351 4.06681 6.06684 4.13348C6.10684 4.25348 6.01351 4.37347 5.89351 4.37347H5.84018C5.74685 4.37347 5.66685 4.44014 5.65352 4.53347C5.62685 4.68013 5.52019 4.80013 5.38686 4.85346L5.0002 5.01346C4.8402 5.08012 4.77354 5.26678 4.85354 5.41345L4.9602 5.61344C5.05353 5.78677 4.90687 5.98677 4.70687 5.97343C4.42688 5.94677 4.18689 6.1601 4.17355 6.44009V6.52009C4.16022 6.69342 4.28022 6.82675 4.42688 6.85341L4.72021 6.89341C4.93353 6.92008 5.14686 6.82675 5.25353 6.65342L5.45352 6.34676C5.54685 6.21343 5.68018 6.09343 5.82685 6.0401L5.90684 6.01343C6.09351 5.94677 6.2935 6.0001 6.4135 6.1601L6.68016 6.52009C6.74682 6.61342 6.85349 6.66675 6.96015 6.65342C7.16015 6.62675 7.18681 6.42676 7.08015 6.34676L6.72016 6.06677C6.65349 6.01343 6.65349 5.9201 6.73349 5.85344C6.80016 5.81344 6.88015 5.81344 6.93349 5.86677L7.20015 6.0801C7.33348 6.18676 7.38681 6.37342 7.34681 6.54675C7.33348 6.58675 7.34681 6.62675 7.37347 6.65342L7.60014 6.89341C7.6668 6.96008 7.7868 6.93341 7.81346 6.84008L7.85346 6.69342C7.88013 6.62675 7.96013 6.64008 8.02679 6.66675C8.06679 6.68008 8.12012 6.66675 8.14679 6.62675C8.20012 6.54675 8.24012 6.46676 8.28012 6.38676C8.29345 6.36009 8.29345 6.32009 8.26679 6.29343L8.22679 6.24009C8.18679 6.2001 8.18679 6.13343 8.21345 6.0801L8.56011 5.60011C8.60011 5.54678 8.66678 5.53345 8.72011 5.56011C9.0001 5.70677 9.82675 6.1201 9.84008 6.1201C9.86675 6.13343 9.66675 6.52009 9.66675 6.54675C9.66675 6.56009 9.01343 6.50675 8.65344 6.46676C8.60011 6.46676 8.54678 6.48009 8.52011 6.52009C8.44012 6.62675 8.36012 6.72008 8.29345 6.84008C8.26679 6.88008 8.26679 6.94674 8.29345 7.00008L8.32012 7.04008C8.34678 7.08007 8.37345 7.09341 8.41345 7.10674L8.9201 7.14674C9.0001 7.14674 9.05343 7.24007 9.02677 7.32007L8.8801 7.72006C8.85344 7.78672 8.78677 7.81339 8.72011 7.80006L7.6668 7.4934C7.61347 7.48006 7.56014 7.4934 7.53347 7.5334L7.29348 7.82672C7.25348 7.88006 7.17348 7.89339 7.12015 7.85339L6.54683 7.4134C6.46683 7.34673 6.44016 7.2534 6.42683 7.16007C6.42683 7.00008 6.28017 6.88008 6.12017 6.90675L5.14686 7.09341C4.77354 7.16007 4.42688 7.36007 4.17355 7.65339L4.02689 7.81339C3.73356 8.16005 3.5469 8.5867 3.49357 9.04003L3.4669 9.38668C3.44024 9.69334 3.5469 9.98667 3.77356 10.2L4.18689 10.5867C4.36022 10.7467 4.58688 10.8266 4.82687 10.8266L5.73351 10.7867C5.98684 10.7733 6.22684 10.9466 6.2935 11.2L6.52016 12C6.58683 12.2266 6.60016 12.4666 6.56016 12.6933L6.54683 12.7866C6.4935 13.0933 6.5335 13.3999 6.64016 13.6932L7.10681 14.9199C7.18681 15.1199 7.40014 15.2399 7.61347 15.1865L7.77346 15.1465C8.09346 15.0665 8.37345 14.8532 8.53345 14.5599L9.0401 13.6666C9.1601 13.4666 9.2801 13.2799 9.45342 13.1333C9.56009 13.0399 9.62675 12.8933 9.62675 12.7466L9.65342 12.0533C9.62675 11.8133 9.72008 11.5733 9.89341 11.4133L10.2934 11.04C10.4534 10.8933 10.5734 10.6933 10.6134 10.4667L10.6534 10.2533C10.6801 10.0933 10.5201 9.94667 10.3734 10.0133C10.0667 10.1467 9.73342 10.04 9.60009 9.74668L8.94677 8.29338C8.93344 8.22671 9.0001 8.13338 9.09343 8.13338C9.13343 8.13338 9.18676 8.16005 9.2001 8.20005L9.81341 9.37335C9.94674 9.64001 10.2801 9.73334 10.5467 9.58668L11.3334 9.13336C11.5734 8.98669 11.16 8.40004 11.0667 8.46671L10.9601 8.5467C10.8934 8.5867 10.8001 8.56004 10.7734 8.49337L10.6001 8.09338C10.5601 8.01338 10.5734 7.93339 10.6267 7.86672C10.7067 7.78672 10.8134 7.78672 10.8934 7.85339C11.1067 8.04005 11.36 8.20005 11.64 8.24005L12.32 8.34671C12.44 8.36004 12.5467 8.42671 12.6133 8.52004L12.9733 8.94669C13.08 9.06669 13.16 9.22669 13.2133 9.37335L13.44 10.08C13.4933 10.24 13.6933 10.3067 13.8266 10.1867L13.9466 10.08C14 10.04 14.0266 9.98667 14.0266 9.92L14.04 9.80001C14.0666 9.53335 14.2133 9.29335 14.4266 9.13336L14.96 8.7467C15.0266 8.7067 15.12 8.72003 15.1466 8.80003L15.4399 9.46668C15.4799 9.54668 15.5599 9.57335 15.6399 9.54668C15.7199 9.52001 15.8266 9.57335 15.8266 9.66668L15.9066 10.3067L15.9199 10.3333L16.1199 10.72C16.1599 10.8 16.0799 10.8666 15.9999 10.8266L15.6399 10.6133C15.6133 10.5867 15.5599 10.6 15.5333 10.6267L15.5199 10.64C15.4933 10.6667 15.4933 10.72 15.5199 10.76L16.4799 11.8533C16.4933 11.8666 16.5199 11.8933 16.5332 11.9066V10.72ZM11.0801 6.85341C11.0667 6.92008 11.0001 6.97341 10.9334 6.96008L10.5734 6.89341C10.4934 6.88008 10.4534 6.80008 10.4801 6.73342L10.5601 6.46676C10.5734 6.44009 10.5734 6.40009 10.5467 6.37342L10.3201 5.93344C10.2934 5.86677 10.3067 5.80011 10.3734 5.76011L10.8801 5.46678C10.9467 5.42678 11.0401 5.46678 11.0667 5.54678L11.0801 5.61344C11.0934 5.66677 11.0667 5.73344 11.0134 5.76011L10.9067 5.81344C10.8401 5.85344 10.8134 5.94677 10.8667 6.0001C10.9601 6.10676 11.0801 6.26676 11.1067 6.29343C11.1067 6.36009 11.0934 6.66675 11.0801 6.85341Z" fill="url(#paint2_radial_275_1378)"/>
<path id="Vector_10" d="M9.97337 13.3598L9.93337 13.6532C9.89337 13.8798 10.0534 14.0798 10.2934 14.1065C10.4 14.1198 10.5067 14.0531 10.5467 13.9598L10.8 13.3198C10.8267 13.2532 10.8267 13.1732 10.8 13.1065L10.6934 12.7998C10.6534 12.7065 10.5334 12.6665 10.4534 12.7465L10.2134 12.9598C10.08 13.0665 10 13.1998 9.97337 13.3598Z" fill="url(#paint3_radial_275_1378)"/>
</g>
</g>
</g>
<path id="Vector_11" opacity="0.2" d="M7.9998 0.400234C12.1864 0.400234 15.5996 3.81348 15.5996 8.00005C15.5996 12.1866 12.1864 15.5999 7.9998 15.5999C3.81324 15.5999 0.39999 12.1866 0.39999 8.00005C0.39999 3.81348 3.81324 0.400234 7.9998 0.400234ZM7.9998 0.000244141C3.58658 0.000244141 0 3.58682 0 8.00005C0 12.4133 3.58658 15.9999 7.9998 15.9999C12.413 15.9999 15.9996 12.4133 15.9996 8.00005C15.9996 3.58682 12.413 0.000244141 7.9998 0.000244141Z" fill="#424242"/>
</g>
<defs>
<radialGradient id="paint0_radial_275_1378" cx="0" cy="0" r="1" gradientUnits="userSpaceOnUse" gradientTransform="translate(7.9998 0.000244141) scale(15.9996)">
<stop stop-color="#42A5F5"/>
<stop offset="0.3522" stop-color="#42A5F5"/>
<stop offset="0.6798" stop-color="#2B8BE2"/>
<stop offset="1" stop-color="#1976D2"/>
</radialGradient>
<radialGradient id="paint1_radial_275_1378" cx="0" cy="0" r="1" gradientUnits="userSpaceOnUse" gradientTransform="translate(7.689 1.11113) scale(13.8623 13.8623)">
<stop stop-color="#AEEA00"/>
<stop offset="0.2373" stop-color="#ADE903"/>
<stop offset="0.3915" stop-color="#A9E40B"/>
<stop offset="0.522" stop-color="#A2DC1A"/>
<stop offset="0.6386" stop-color="#98D12F"/>
<stop offset="0.7459" stop-color="#8BC34A"/>
<stop offset="1" stop-color="#8BC34A"/>
</radialGradient>
<radialGradient id="paint2_radial_275_1378" cx="0" cy="0" r="1" gradientUnits="userSpaceOnUse" gradientTransform="translate(7.68907 1.11129) scale(13.8623 13.8623)">
<stop stop-color="#AEEA00"/>
<stop offset="0.2373" stop-color="#ADE903"/>
<stop offset="0.3915" stop-color="#A9E40B"/>
<stop offset="0.522" stop-color="#A2DC1A"/>
<stop offset="0.6386" stop-color="#98D12F"/>
<stop offset="0.7459" stop-color="#8BC34A"/>
<stop offset="1" stop-color="#8BC34A"/>
</radialGradient>
<radialGradient id="paint3_radial_275_1378" cx="0" cy="0" r="1" gradientUnits="userSpaceOnUse" gradientTransform="translate(7.68903 1.11119) scale(13.8623 13.8623)">
<stop stop-color="#AEEA00"/>
<stop offset="0.2373" stop-color="#ADE903"/>
<stop offset="0.3915" stop-color="#A9E40B"/>
<stop offset="0.522" stop-color="#A2DC1A"/>
<stop offset="0.6386" stop-color="#98D12F"/>
<stop offset="0.7459" stop-color="#8BC34A"/>
<stop offset="1" stop-color="#8BC34A"/>
</radialGradient>
</defs>
</svg>
