<svg width="40" height="36" viewBox="0 0 40 36" fill="none" xmlns="http://www.w3.org/2000/svg">
<g id="&#240;&#159;&#166;&#134; icon &#34;book back&#34;">
<g id="Group">
<path id="Vector" fill-rule="evenodd" clip-rule="evenodd" d="M6.6665 0.45459L19.9998 10.4546V34.4546L6.6665 26.4546V0.45459Z" fill="#D8D8D8"/>
<path id="Vector_2" fill-rule="evenodd" clip-rule="evenodd" d="M20 10.4546L33.3333 0.45459V26.4546L20 34.4546V10.4546Z" fill="#D8D8D8"/>
<path id="Vector_3" fill-rule="evenodd" clip-rule="evenodd" d="M4 3.12122L20 10.4546V34.4546L4 29.1212V3.12122Z" fill="#B1B1B1"/>
<path id="Vector_4" fill-rule="evenodd" clip-rule="evenodd" d="M20 10.4546L36 3.12122V29.1212L20 34.4546V10.4546Z" fill="#B1B1B1"/>
<path id="Vector_5" fill-rule="evenodd" clip-rule="evenodd" d="M1.3335 4.45459L20.0002 10.4546V34.4546L1.3335 30.4546V4.45459Z" fill="#D8D8D8"/>
<path id="Vector_6" fill-rule="evenodd" clip-rule="evenodd" d="M20 10.4546L38.6667 4.45459V30.4546L20 34.4546V10.4546Z" fill="#D8D8D8"/>
<path id="Vector_7" fill-rule="evenodd" clip-rule="evenodd" d="M0 6.45459L20 10.4546V35.1213L0 31.1213V6.45459Z" fill="#507BCE"/>
<path id="Vector_8" fill-rule="evenodd" clip-rule="evenodd" d="M20 10.4546L40 6.45459V31.1213L20 35.1213V10.4546Z" fill="#325AA6"/>
<path id="Vector_9" fill-rule="evenodd" clip-rule="evenodd" d="M25.3335 21.788L35.3335 19.788V26.4546L25.3335 28.4546V21.788Z" fill="#DFCC00"/>
</g>
</g>
</svg>
