<svg width="40" height="38" viewBox="0 0 40 38" fill="none" xmlns="http://www.w3.org/2000/svg">
<path fill-rule="evenodd" clip-rule="evenodd" d="M19.9999 14.657C11.4429 14.657 5.04688 23.4801 5.04688 31.3684C5.04688 33.8852 5.68602 35.615 6.99492 36.6596C8.37972 37.7659 10.3159 37.9066 11.8464 37.9066C12.9495 37.9066 14.1502 37.8225 15.4233 37.7332C18.3575 37.5287 21.6456 37.5287 24.5781 37.7332C25.851 37.8225 27.0536 37.9066 28.1532 37.9066C31.5168 37.9066 34.9527 37.1301 34.9527 31.3684C34.9527 23.4801 28.5585 14.657 19.9999 14.657Z" fill="#FBB713"/>
<path opacity="0.35" fill-rule="evenodd" clip-rule="evenodd" d="M26.3947 16.4106C29.4527 19.6785 31.3161 24.2036 31.3161 28.4593C31.3161 34.221 27.8803 34.9977 24.5166 34.9977C23.4173 34.9977 22.2147 34.9136 20.9416 34.8244C18.0093 34.6198 14.7211 34.6198 11.7867 34.8244C10.5138 34.9136 9.31312 34.9977 8.21003 34.9977C7.40999 34.9977 6.50008 34.9552 5.61523 34.7607C5.93703 35.5435 6.39152 36.178 6.99503 36.6597C8.37965 37.766 10.3156 37.9067 11.8465 37.9067C12.9494 37.9067 14.1501 37.8226 15.4232 37.7333C18.3574 37.5288 21.6455 37.5288 24.5781 37.7333C25.851 37.8226 27.0535 37.9067 28.1531 37.9067C31.5168 37.9067 34.9526 37.1302 34.9526 31.3685C34.9526 25.6179 31.5524 19.3747 26.3947 16.4106Z" fill="#060606"/>
<path fill-rule="evenodd" clip-rule="evenodd" d="M7.7523 19.5394C8.76761 19.1235 9.5426 18.2989 9.9325 17.2203C10.4477 15.796 10.2656 14.0764 9.43255 12.5029C7.98427 9.76816 4.79247 8.24269 2.46974 9.19768C1.45276 9.61357 0.679626 10.4398 0.287865 11.5202C-0.227308 12.9425 -0.0452528 14.6623 0.78782 16.2375C1.93026 18.3951 4.09673 19.8452 6.17709 19.8452C6.73012 19.8452 7.26088 19.742 7.7523 19.5394Z" fill="#FBB713"/>
<path fill-rule="evenodd" clip-rule="evenodd" d="M15.9934 14.377C16.2165 14.377 16.4399 14.3547 16.6632 14.3102C19.283 13.774 20.8618 10.2626 20.2605 6.31662C19.661 2.37767 17.0429 -0.376167 14.4162 0.159976C11.7946 0.694078 10.2178 4.20397 10.819 8.15146C11.3687 11.7592 13.5436 14.377 15.9934 14.377Z" fill="#FBB713"/>
<path fill-rule="evenodd" clip-rule="evenodd" d="M39.7117 11.5201C39.3218 10.4415 38.5454 9.61347 37.5299 9.19758C35.2021 8.23906 32.0155 9.76806 30.5672 12.5028C29.734 14.078 29.5519 15.7978 30.0673 17.2202C30.4572 18.2988 31.2322 19.1217 32.2473 19.5393C32.7387 19.7403 33.2697 19.8432 33.8244 19.8432H33.8262C35.9047 19.8432 38.0677 18.3933 39.2101 16.2374C40.0432 14.6641 40.2269 12.9443 39.7117 11.5201Z" fill="#FBB713"/>
<path fill-rule="evenodd" clip-rule="evenodd" d="M25.099 14.3102C25.3225 14.3547 25.5457 14.377 25.7673 14.377H25.7692C28.2153 14.377 30.392 11.7592 30.9435 8.15146C31.5448 4.20397 29.9642 0.694078 27.3462 0.159976C24.7162 -0.376167 22.0997 2.37767 21.5017 6.31662C20.8971 10.2626 22.4775 13.774 25.099 14.3102Z" fill="#FBB713"/>
<path opacity="0.35" fill-rule="evenodd" clip-rule="evenodd" d="M9.43326 12.5029C8.37638 10.5068 6.39122 9.16063 4.49254 8.94702C5.6051 9.57261 6.60334 10.5516 7.25139 11.7755C8.08464 13.3492 8.2667 15.0686 7.75134 16.4929C7.36144 17.5717 6.58645 18.3962 5.57132 18.8119C5.0799 19.0146 4.54896 19.1178 3.99593 19.1178C3.83874 19.1178 3.681 19.0937 3.52344 19.0775C4.36597 19.5606 5.27755 19.8451 6.1778 19.8451C6.73083 19.8451 7.26178 19.7419 7.75301 19.5392C8.76832 19.1235 9.54331 18.2988 9.93321 17.2202C10.4484 15.7961 10.2663 14.0763 9.43326 12.5029Z" fill="#060606"/>
<path opacity="0.35" fill-rule="evenodd" clip-rule="evenodd" d="M20.2608 6.31671C19.7859 3.19654 18.0429 0.826856 16.0338 0.240234C17.0326 1.35242 17.7907 2.96735 18.0791 4.86231C18.6804 8.80813 17.1016 12.3195 14.4816 12.8557C14.2585 12.9004 14.0351 12.9226 13.8118 12.9226C13.4822 12.9226 13.1582 12.8716 12.8418 12.7809C13.7357 13.7837 14.8325 14.377 15.9937 14.377C16.2168 14.377 16.4402 14.355 16.6635 14.3102C19.2833 13.7741 20.862 10.2627 20.2608 6.31671Z" fill="#060606"/>
<path opacity="0.35" fill-rule="evenodd" clip-rule="evenodd" d="M39.7119 11.5199C39.3796 10.6005 38.7545 9.88101 37.9519 9.42578C38.0669 9.62918 38.1753 9.83851 38.2574 10.0655C38.7725 11.4898 38.5888 13.2094 37.7557 14.7829C36.6135 16.9388 34.4503 18.3888 32.3718 18.3888H32.3702C31.8153 18.3888 31.2843 18.2858 30.7929 18.0846C30.6432 18.023 30.5103 17.935 30.3711 17.8562C30.802 18.6187 31.445 19.2092 32.2475 19.5392C32.7389 19.7402 33.2699 19.8432 33.8246 19.8432H33.8264C35.9049 19.8432 38.0679 18.3932 39.2103 16.2375C40.0434 14.664 40.2271 12.9444 39.7119 11.5199Z" fill="#060606"/>
<path opacity="0.35" fill-rule="evenodd" clip-rule="evenodd" d="M29.0278 1.02393C29.5716 2.41189 29.7655 4.14187 29.4872 5.96984C28.9356 9.57735 26.7591 12.1953 24.3128 12.1953H24.3109C24.0895 12.1953 23.8661 12.1731 23.6427 12.1283C23.0152 11.9999 22.4496 11.6972 21.957 11.263C22.5874 12.8725 23.69 14.0224 25.0972 14.3102C25.3207 14.3549 25.5439 14.377 25.7655 14.377H25.7674C28.2135 14.377 30.3902 11.7592 30.9417 8.15172C31.3992 5.14846 30.5917 2.40298 29.0278 1.02393Z" fill="#060606"/>
</svg>
