<svg width="40" height="40" viewBox="0 0 40 40" fill="none" xmlns="http://www.w3.org/2000/svg">
<path d="M20 40C31.0457 40 40 31.0457 40 20C40 8.9543 31.0457 0 20 0C8.9543 0 0 8.9543 0 20C0 31.0457 8.9543 40 20 40Z" fill="#FFC73C"/>
<path d="M11.6838 26.2457C11.7338 26.4446 12.9816 31.1112 20.0005 31.1112C27.0205 31.1112 28.2672 26.4446 28.3172 26.2457C28.3783 26.0046 28.2694 25.7546 28.0538 25.6301C27.8372 25.5068 27.5661 25.5434 27.3872 25.7157C27.3661 25.7368 25.2161 27.7779 20.0005 27.7779C14.785 27.7779 12.6338 25.7368 12.6138 25.7168C12.5072 25.6112 12.365 25.5557 12.2227 25.5557C12.1294 25.5557 12.035 25.579 11.9494 25.6268C11.7316 25.7512 11.6227 26.0034 11.6838 26.2457Z" fill="#664500"/>
<path d="M13.3334 18.8891C14.8676 18.8891 16.1112 17.148 16.1112 15.0002C16.1112 12.8524 14.8676 11.1113 13.3334 11.1113C11.7993 11.1113 10.5557 12.8524 10.5557 15.0002C10.5557 17.148 11.7993 18.8891 13.3334 18.8891Z" fill="#664500"/>
<path d="M26.6664 18.8891C28.2006 18.8891 29.4442 17.148 29.4442 15.0002C29.4442 12.8524 28.2006 11.1113 26.6664 11.1113C25.1323 11.1113 23.8887 12.8524 23.8887 15.0002C23.8887 17.148 25.1323 18.8891 26.6664 18.8891Z" fill="#664500"/>
</svg>
