<svg width="33" height="35" viewBox="0 0 33 35" fill="none" xmlns="http://www.w3.org/2000/svg">
<g id="7da752378a3b1b8bbcd94a4d4f10561e.svg" clip-path="url(#clip0_511_2824)">
<g id="Group">
<g id="Group_2">
<path id="Vector" d="M16.7716 6.93241C19.1444 6.93241 21.2708 7.75161 22.9476 9.35161L27.5764 4.71321C24.778 2.09881 21.1284 0.495605 16.7716 0.495605C10.4628 0.495605 5.00037 4.12601 2.34277 9.41241L7.72997 13.6028C9.00357 9.77401 12.5684 6.93241 16.7716 6.93241Z" fill="#EB4335"/>
<path id="Vector_2" d="M32.2777 17.0483C32.2777 15.8899 32.1689 14.7811 31.9817 13.7139H16.7705V19.9123H25.4745C25.3036 20.9184 24.9285 21.879 24.3724 22.7347C23.8163 23.5905 23.0909 24.3234 22.2409 24.8883L27.4729 28.9587C30.5225 26.1411 32.2777 21.9747 32.2777 17.0483Z" fill="#4285F4"/>
<path id="Vector_3" d="M16.7716 32.8639C21.13 32.8639 24.8004 31.4303 27.4756 28.9583L22.242 24.8879C20.7988 25.8607 18.9428 26.4271 16.7716 26.4271C12.5684 26.4271 9.00357 23.5871 7.73157 19.7583L2.34277 23.9471C4.99877 29.2351 10.4612 32.8655 16.7716 32.8655" fill="#34A853"/>
<path id="Vector_4" d="M2.34208 23.9475L7.72928 19.7587C7.39811 18.7661 7.22901 17.7267 7.22848 16.6803C7.22848 15.6115 7.40608 14.5763 7.72928 13.6035L2.34208 9.41309C1.20853 11.6677 0.61943 14.1567 0.622079 16.6803V16.6819C0.622079 19.2963 1.24448 21.7635 2.34208 23.9475Z" fill="#FBBC05"/>
</g>
</g>
</g>
<defs>
<clipPath id="clip0_511_2824">
<rect width="32" height="33.6" fill="white" transform="translate(0.576172 0.495117)"/>
</clipPath>
</defs>
</svg>
