<svg width="40" height="40" viewBox="0 0 40 40" fill="none" xmlns="http://www.w3.org/2000/svg">
<path d="M19.9347 40C10.3454 40 0 33.7388 0 20C0 6.26118 10.3454 0 19.9347 0C25.2621 0 30.177 1.82469 33.8202 5.15206C37.7728 8.80143 39.8694 13.9535 39.8694 20C39.8694 26.0465 37.7728 31.1628 33.8202 34.8122C30.1701 38.1395 25.2277 40 19.9347 40Z" fill="url(#paint0_radial_1308_1209)"/>
<path d="M13.3287 12.1431C11.8886 12.1431 10.5791 13.4096 10.5791 15.5134C10.5791 17.6171 11.8886 18.8801 13.3287 18.8801C14.7723 18.8801 16.0783 17.6135 16.0783 15.5134C16.0783 13.4132 14.786 12.1431 13.3287 12.1431Z" fill="#422B0D"/>
<path d="M13.2085 13.549C12.7205 13.3057 12.1327 13.5204 11.8956 14.0284C11.7134 14.4256 11.7959 14.9014 12.1018 15.2091C12.5899 15.4524 13.1776 15.2377 13.4148 14.7297C13.5969 14.3325 13.5144 13.8567 13.2085 13.549Z" fill="#896024"/>
<path d="M26.527 12.1431C25.0868 12.1431 23.7773 13.4096 23.7773 15.5134C23.7773 17.6171 25.0868 18.8801 26.527 18.8801C27.9671 18.8801 29.2766 17.6135 29.2766 15.5134C29.2766 13.4132 27.9671 12.1431 26.527 12.1431Z" fill="#422B0D"/>
<path d="M26.3892 13.549C25.9011 13.3057 25.3134 13.5204 25.0763 14.0284C24.8941 14.4256 24.9766 14.9014 25.2825 15.2091C25.7705 15.4524 26.3583 15.2377 26.5954 14.7297C26.7776 14.3325 26.6951 13.8567 26.3892 13.549Z" fill="#896024"/>
<path d="M36.5252 8.11084C38.3571 11.1878 39.3126 14.8514 39.3126 18.9266C39.3126 24.9731 37.216 30.0894 33.2635 33.7387C29.6202 37.0661 24.6709 38.9266 19.3779 38.9266C13.1707 38.9266 6.66094 36.2969 2.81836 30.7191C6.51659 37.0375 13.4731 39.9999 20.0653 39.9999C25.3583 39.9999 30.3076 38.1395 33.9509 34.8121C37.9034 31.1627 40 26.0464 40 19.9999C40 15.4418 38.8074 11.3917 36.5252 8.11084Z" fill="#EB8F00"/>
<path d="M33.2874 23.1197C32.8062 22.2145 31.7613 21.8173 30.8333 22.1823C27.307 23.252 23.65 23.7851 19.9758 23.7672C16.3016 23.7851 12.6446 23.252 9.11826 22.1823C8.19371 21.8173 7.14885 22.2109 6.66767 23.1125C6.20024 24.0105 6.53706 25.0517 6.93232 25.9497C9.13889 30.9944 14.0023 34.0141 19.9483 34.032H20.0033C25.9493 34.032 30.8127 30.9944 33.0227 25.9497C33.4145 25.0445 33.7548 24.0177 33.2874 23.1197Z" fill="#422B0D"/>
<path d="M25.479 32.6085C25.3518 32.4868 25.2212 32.3759 25.0906 32.2507C23.6883 30.9662 21.8735 30.2757 20.0038 30.3151C18.0791 30.2829 16.2059 30.9483 14.7039 32.2006C14.5733 32.3115 14.4358 32.4188 14.3087 32.5584C14.1815 32.6979 14.1128 32.7981 14.0303 32.9161C15.9206 33.6854 17.9347 34.0789 19.966 34.0682H20.021C21.9663 34.0682 23.8945 33.7068 25.7161 32.9949C25.6474 32.8589 25.5683 32.7301 25.479 32.6085Z" fill="#ED7770"/>
<path d="M30.8335 22.1823C27.3072 23.2521 23.6502 23.7852 19.976 23.7673C16.3018 23.7852 12.6448 23.2521 9.11846 22.1823C8.1939 21.8174 7.14905 22.2109 6.66787 23.1126C6.59913 23.2485 6.54414 23.3916 6.50977 23.5383C6.62319 23.5991 6.75379 23.66 6.90846 23.7244C11.0466 25.8818 15.6213 26.9766 20.2475 26.9194C24.6847 26.973 29.0703 25.9677 33.0779 23.9855C33.2394 23.914 33.3735 23.846 33.4938 23.7816C33.4663 23.549 33.3941 23.3201 33.2876 23.1126C32.8064 22.2109 31.7615 21.8138 30.8335 22.1823Z" fill="white"/>
<path d="M33.3011 23.1232C32.8131 22.2181 31.7648 21.8173 30.8299 22.1823C27.3035 23.252 23.6465 23.7851 19.9758 23.7672C16.3016 23.7851 12.6446 23.252 9.11826 22.1823C8.19371 21.8173 7.14885 22.2109 6.66767 23.1125C6.20024 24.0105 6.53706 25.0517 6.93232 25.9497C7.10761 26.354 7.30352 26.7511 7.52005 27.134C7.52005 27.134 6.79828 24.3504 7.42381 23.5418C7.63691 23.1984 7.99436 22.9837 8.38618 22.9622C8.54772 22.9622 8.70582 22.9909 8.86049 23.041C12.4487 24.1393 16.171 24.6939 19.9139 24.6867H20.0342C23.7771 24.6939 27.4994 24.1393 31.0877 23.041C31.2423 22.9909 31.4004 22.9622 31.562 22.9622C31.9538 22.9837 32.3147 23.1984 32.5278 23.5418C33.1636 24.3504 32.4315 27.1447 32.4315 27.1447C32.6446 26.7619 32.8577 26.3683 33.0365 25.9604C33.4283 25.0624 33.7685 24.0248 33.3011 23.1232Z" fill="#EB8F00"/>
<defs>
<radialGradient id="paint0_radial_1308_1209" cx="0" cy="0" r="1" gradientUnits="userSpaceOnUse" gradientTransform="translate(19.9347 20) scale(19.5771 20.3791)">
<stop offset="0.5" stop-color="#FDE030"/>
<stop offset="0.92" stop-color="#F7C02B"/>
<stop offset="1" stop-color="#F4A223"/>
</radialGradient>
</defs>
</svg>
