<svg width="40" height="40" viewBox="0 0 40 40" fill="none" xmlns="http://www.w3.org/2000/svg">
<g id="&#240;&#159;&#166;&#134; emoji &#34;hospital&#34;">
<path id="Vector" d="M38.1545 15.9214H11.1431C10.5 15.9214 9.97872 16.4427 9.97872 17.0857V23.5663H1.84551C1.20245 23.5663 0.681152 24.0876 0.681152 24.7307V38.1177C0.681152 38.7608 1.20245 39.2821 1.84551 39.2821H11.1432H28.8569H38.1546C38.7976 39.2821 39.3189 38.7608 39.3189 38.1177V17.0857C39.3189 16.4427 38.7975 15.9214 38.1545 15.9214Z" fill="#AFC1C9"/>
<path id="Vector_2" d="M39.418 14.3774H16.4513C16.1298 14.3774 15.8691 14.6381 15.8691 14.9596V16.3334C15.8691 16.7132 16.177 17.0211 16.5568 17.0211H39.3125C39.6923 17.0211 40.0002 16.7132 40.0002 16.3334V14.9596C40.0001 14.6381 39.7395 14.3774 39.418 14.3774Z" fill="#95AAAD"/>
<path id="Vector_3" d="M0.582179 21.7305H23.5489C23.8704 21.7305 24.1311 21.9912 24.1311 22.3126V23.6864C24.1311 24.0662 23.8232 24.3741 23.4434 24.3741H0.687699C0.307908 24.3741 0 24.0662 0 23.6864V22.3126C0 21.9911 0.260687 21.7305 0.582179 21.7305Z" fill="#95AAAD"/>
<path id="Vector_4" d="M24.6753 1.52148H3.83689C3.50035 1.52148 3.22754 1.84443 3.22754 2.24274V38.5608C3.22754 38.9591 3.50035 39.2821 3.83689 39.2821H24.6753C25.0118 39.2821 25.2846 38.9591 25.2846 38.5608V2.24274C25.2846 1.84443 25.0118 1.52148 24.6753 1.52148Z" fill="#CFDBE2"/>
<path id="Vector_5" d="M18.0853 8.27623H15.4057V5.59658C15.4057 5.27509 15.145 5.0144 14.8235 5.0144H13.6882C13.3667 5.0144 13.1061 5.27509 13.1061 5.59658V8.27623H10.4264C10.1049 8.27623 9.84424 8.53692 9.84424 8.85841V9.99366C9.84424 10.3152 10.1049 10.5758 10.4264 10.5758H13.1061V13.2555C13.1061 13.5771 13.3667 13.8377 13.6882 13.8377H14.8235C15.145 13.8377 15.4057 13.577 15.4057 13.2555V10.5758H18.0853C18.4068 10.5758 18.6675 10.3152 18.6675 9.99366V8.85841C18.6675 8.53684 18.4069 8.27623 18.0853 8.27623Z" fill="#FF473E"/>
<path id="Vector_6" d="M36.6006 28.881H28.0476C27.7261 28.881 27.4654 28.6203 27.4654 28.2988V24.8681C27.4654 24.5466 27.7261 24.2859 28.0476 24.2859H36.6007C36.9222 24.2859 37.1829 24.5466 37.1829 24.8681V28.2988C37.1828 28.6203 36.9222 28.881 36.6006 28.881ZM37.283 35.5088V32.0781C37.283 31.7566 37.0223 31.4959 36.7008 31.4959H27.9474C27.6259 31.4959 27.3652 31.7566 27.3652 32.0781V35.5088C27.3652 35.8303 27.6259 36.091 27.9474 36.091H36.7008C37.0224 36.0909 37.283 35.8303 37.283 35.5088ZM37.283 20.8597V19.7265C37.283 19.405 37.0223 19.1443 36.7008 19.1443H27.9474C27.6259 19.1443 27.3652 19.405 27.3652 19.7265V20.8597C27.3652 21.1812 27.6259 21.4419 27.9474 21.4419H36.7008C37.0224 21.4419 37.283 21.1812 37.283 20.8597Z" fill="#0096D1"/>
<path id="Vector_7" d="M7.24512 33.1455H21.2681V39.2822H7.24512V33.1455Z" fill="#2B3B47"/>
<path id="Vector_8" d="M15.7182 28.8812H12.8307C12.5092 28.8812 12.2485 28.6205 12.2485 28.299V24.6715C12.2485 24.35 12.5092 24.0893 12.8307 24.0893H15.7182C16.0397 24.0893 16.3003 24.35 16.3003 24.6715V28.299C16.3003 28.6205 16.0397 28.8812 15.7182 28.8812ZM22.6041 28.299V24.6715C22.6041 24.35 22.3434 24.0893 22.0219 24.0893H19.1345C18.813 24.0893 18.5523 24.35 18.5523 24.6715V28.299C18.5523 28.6205 18.813 28.8812 19.1345 28.8812H22.0219C22.3434 28.8812 22.6041 28.6205 22.6041 28.299ZM9.99663 28.299V24.6715C9.99663 24.35 9.73594 24.0893 9.41445 24.0893H6.527C6.20551 24.0893 5.94482 24.35 5.94482 24.6715V28.299C5.94482 28.6205 6.20551 28.8812 6.527 28.8812H9.41445C9.73602 28.8812 9.99663 28.6205 9.99663 28.299ZM8.39774 20.8599V17.2323C8.39774 16.9108 8.13705 16.6501 7.81556 16.6501H6.527C6.20551 16.6501 5.94482 16.9108 5.94482 17.2323V20.8599C5.94482 21.1814 6.20551 21.4421 6.527 21.4421H7.81556C8.13713 21.4421 8.39774 21.1814 8.39774 20.8599ZM13.1332 20.8599V17.2323C13.1332 16.9108 12.8725 16.6501 12.551 16.6501H11.2625C10.941 16.6501 10.6803 16.9108 10.6803 17.2323V20.8599C10.6803 21.1814 10.941 21.4421 11.2625 21.4421H12.551C12.8726 21.4421 13.1332 21.1814 13.1332 20.8599ZM17.8687 20.8599V17.2323C17.8687 16.9108 17.608 16.6501 17.2865 16.6501H15.9979C15.6764 16.6501 15.4157 16.9108 15.4157 17.2323V20.8599C15.4157 21.1814 15.6764 21.4421 15.9979 21.4421H17.2865C17.608 21.4421 17.8687 21.1814 17.8687 20.8599ZM22.6041 20.8599V17.2323C22.6041 16.9108 22.3434 16.6501 22.0219 16.6501H20.7334C20.4119 16.6501 20.1512 16.9108 20.1512 17.2323V20.8599C20.1512 21.1814 20.4119 21.4421 20.7334 21.4421H22.0219C22.3434 21.4421 22.6041 21.1814 22.6041 20.8599Z" fill="#00B1FF"/>
<path id="Vector_9" d="M21.2681 33.7935H7.24512V33.1288C7.24512 32.6888 7.60186 32.332 8.04189 32.332H20.4713C20.9113 32.332 21.268 32.6888 21.268 33.1288L21.2681 33.7935Z" fill="#67747C"/>
<path id="Vector_10" d="M25.7579 0.717773H2.79116C2.46967 0.717773 2.20898 0.978461 2.20898 1.29995V2.67374C2.20898 3.05353 2.51689 3.36144 2.89668 3.36144H25.6524C26.0322 3.36144 26.3401 3.05353 26.3401 2.67374V1.29995C26.3401 0.97838 26.0794 0.717773 25.7579 0.717773Z" fill="#95AAAD"/>
</g>
</svg>
