<svg width="24" height="24" viewBox="0 0 24 24" fill="none" xmlns="http://www.w3.org/2000/svg">
<path d="M15.4854 6.84066H15.497H15.4854ZM1.48535 4.50732C1.48535 3.57907 1.8541 2.68883 2.51048 2.03245C3.16686 1.37607 4.05709 1.00732 4.98535 1.00732H18.9854C19.9136 1.00732 20.8038 1.37607 21.4602 2.03245C22.1166 2.68883 22.4854 3.57907 22.4854 4.50732V18.5073C22.4854 19.4356 22.1166 20.3258 21.4602 20.9822C20.8038 21.6386 19.9136 22.0073 18.9854 22.0073H4.98535C4.05709 22.0073 3.16686 21.6386 2.51048 20.9822C1.8541 20.3258 1.48535 19.4356 1.48535 18.5073V4.50732Z" fill="black" fill-opacity="0.1"/>
<path d="M15.4854 6.84066H15.497M1.48535 4.50732C1.48535 3.57907 1.8541 2.68883 2.51048 2.03245C3.16686 1.37607 4.05709 1.00732 4.98535 1.00732H18.9854C19.9136 1.00732 20.8038 1.37607 21.4602 2.03245C22.1166 2.68883 22.4854 3.57907 22.4854 4.50732V18.5073C22.4854 19.4356 22.1166 20.3258 21.4602 20.9822C20.8038 21.6386 19.9136 22.0073 18.9854 22.0073H4.98535C4.05709 22.0073 3.16686 21.6386 2.51048 20.9822C1.8541 20.3258 1.48535 19.4356 1.48535 18.5073V4.50732Z" stroke="#101010" stroke-width="2" stroke-linecap="round" stroke-linejoin="round"/>
<path d="M1.48535 16.1738L7.31868 10.3405C8.40135 9.29862 9.73602 9.29862 10.8187 10.3405L16.652 16.1738" fill="black" fill-opacity="0.1"/>
<path d="M1.48535 16.1738L7.31868 10.3405C8.40135 9.29862 9.73602 9.29862 10.8187 10.3405L16.652 16.1738" stroke="#101010" stroke-width="2" stroke-linecap="round" stroke-linejoin="round"/>
<path d="M14.3184 13.8406L15.485 12.674C16.5677 11.6321 17.9024 11.6321 18.985 12.674L22.485 16.174" fill="black" fill-opacity="0.1"/>
<path d="M14.3184 13.8406L15.485 12.674C16.5677 11.6321 17.9024 11.6321 18.985 12.674L22.485 16.174" stroke="#101010" stroke-width="2" stroke-linecap="round" stroke-linejoin="round"/>
</svg>
