<svg width="24" height="24" viewBox="0 0 24 24" fill="none" xmlns="http://www.w3.org/2000/svg">
<path d="M14.2828 3.50106L6.5098 11.4751C6.37328 11.6151 6.29688 11.803 6.29688 11.9986C6.29688 12.1942 6.37328 12.382 6.5098 12.5221L14.2828 20.4991C14.3464 20.5644 14.4224 20.6163 14.5064 20.6517C14.5904 20.6872 14.6806 20.7055 14.7718 20.7055C14.863 20.7055 14.9532 20.6872 15.0372 20.6517C15.1212 20.6163 15.1972 20.5644 15.2608 20.4991C15.3916 20.3651 15.4649 20.1853 15.4649 19.9981C15.4649 19.8108 15.3916 19.631 15.2608 19.4971L7.9513 11.9986L15.2608 4.50156C15.3912 4.36768 15.4641 4.18819 15.4641 4.00131C15.4641 3.81443 15.3912 3.63494 15.2608 3.50106C15.1972 3.43575 15.1212 3.38383 15.0372 3.34839C14.9532 3.31294 14.863 3.29468 14.7718 3.29468C14.6806 3.29468 14.5904 3.31294 14.5064 3.34839C14.4224 3.38383 14.3464 3.43575 14.2828 3.50106Z" fill="#101010"/>
</svg>
