<svg width="42" height="43" viewBox="0 0 42 43" fill="none" xmlns="http://www.w3.org/2000/svg">
<path d="M31 1.39575L21 2.00286L11 2.60997C5.48 2.60997 1 7.0722 1 12.575V23.3267V25.3277C1 30.8305 5.48 35.2927 11 35.2927H14C14.54 35.2927 15.26 35.6529 15.6 36.0931L18.6 40.0751C19.92 41.836 22.08 41.836 23.4 40.0751L26.4 36.0931C26.78 35.5928 27.38 35.2927 28 35.2927L32.875 36.0931C35.5603 36.0931 36.4537 35.0493 37.875 33.2C39.3753 31.2477 41.321 28.4075 41 25.3277V12.575C41 7.0722 36.52 1.39575 31 1.39575ZM13 21.4058C11.88 21.4058 11 20.5053 11 19.4048C11 18.3042 11.9 17.4038 13 17.4038C14.1 17.4038 15 18.3042 15 19.4048C15 20.5053 14.12 21.4058 13 21.4058ZM21 21.4058C19.88 21.4058 19 20.5053 19 19.4048C19 18.3042 19.9 17.4038 21 17.4038C22.1 17.4038 23 18.3042 23 19.4048C23 20.5053 22.12 21.4058 21 21.4058ZM29 21.4058C27.88 21.4058 27 20.5053 27 19.4048C27 18.3042 27.9 17.4038 29 17.4038C30.1 17.4038 31 18.3042 31 19.4048C31 20.5053 30.12 21.4058 29 21.4058Z" fill="url(#paint0_radial_1255_774)" stroke="#1054AA" stroke-width="1.28626"/>
<defs>
<radialGradient id="paint0_radial_1255_774" cx="0" cy="0" r="1" gradientUnits="userSpaceOnUse" gradientTransform="translate(21.0384 21.3958) rotate(90) scale(20 20.0384)">
<stop stop-color="#2FBAF5"/>
<stop offset="1" stop-color="#2F80E6"/>
<stop offset="1" stop-color="#2F80E6" stop-opacity="0"/>
</radialGradient>
</defs>
</svg>
