<svg width="44" height="39" viewBox="0 0 44 39" fill="none" xmlns="http://www.w3.org/2000/svg">
<path d="M13.0484 3.5682L9.72163 4.86193L4.36189 11.1458L1.03516 19.0929L2.5137 22.9741C3.44179 25.7768 5.11824 28.2845 7.87344 30.3669L9.72163 27.9027C9.72163 27.9027 12.547 33.6023 17.6602 34.5264C17.6602 34.5264 25.2464 35.9576 29.1891 33.8784C31.7177 32.545 32.4543 30.6133 32.4543 30.6133L34.9802 28.0874L36.1507 29.8123L37.6908 29.7508L41.6952 24.391L42.989 20.3867L42.8657 17.0599L41.1408 12.9939L37.5676 7.51097C37.5676 7.51097 35.5962 3.87618 31.5302 4.61545C31.5302 4.61545 26.7249 1.04232 22.7822 1.59677C18.8394 2.15123 19.3938 0.672682 13.0484 3.5682Z" fill="#F4AA41"/>
<path d="M22.2898 27.7183L20.0104 29.5049H18.1622L18.1006 32.3387L18.655 34.9262L19.456 36.3431L21.5506 37.4521L24.9389 37.0208L26.1094 35.7271L26.8487 32.5852L26.6639 29.6281L25.1853 29.8129L22.2898 27.7183Z" fill="#EA5A47"/>
<path d="M19.7017 20.0786L18.5312 22.8509L20.133 23.775L21.0571 24.1446L24.2606 24.2679L26.4168 22.6045L25.1231 20.2018L19.7017 20.0786Z" fill="#3F3F3F"/>
<path d="M17.4876 15.0449C17.4876 15.0449 16.1532 15.9633 15.4558 15.5386C14.7584 15.1139 14.5373 14.2042 14.962 13.5068C15.3868 12.8095 16.2964 12.5883 16.9939 13.0131C17.6913 13.4378 17.4876 15.0449 17.4876 15.0449Z" fill="#4F3208"/>
<path d="M20.1523 20.1433H24.6957C24.9922 20.1433 25.2601 20.3205 25.3761 20.5935L26.2321 22.6076L24.621 23.4545C24.1659 23.6937 23.6116 23.4068 23.5441 22.8971" stroke="#4F3208" stroke-width="1.47855" stroke-miterlimit="10" stroke-linecap="round" stroke-linejoin="round"/>
<path d="M21.3733 22.9208C21.2896 23.3841 20.7998 23.6523 20.3644 23.4731L18.6543 22.7693L19.46 20.6228C19.5683 20.3344 19.8441 20.1433 20.1521 20.1433" stroke="#4F3208" stroke-width="1.47855" stroke-miterlimit="10" stroke-linecap="round" stroke-linejoin="round"/>
<path d="M18.1769 29.7698C18.1769 29.7698 17.6456 36.2705 20.4001 37.1163C22.3561 37.717 24.2071 37.5099 24.8819 36.9315C25.5288 36.377 26.8279 33.6239 26.2323 29.7698" stroke="#4F3208" stroke-width="1.47855" stroke-miterlimit="10" stroke-linecap="round" stroke-linejoin="round"/>
<path d="M28.3988 15.0442C28.3988 15.0442 29.7332 15.9626 30.4306 15.5379C31.128 15.1132 31.3491 14.2035 30.9244 13.5061C30.4997 12.8087 29.59 12.5876 28.8925 13.0123C28.1951 13.437 28.3988 15.0442 28.3988 15.0442Z" fill="#4F3208"/>
<path d="M14.6187 24.4558C14.2675 27.119 16.2704 28.707 17.7862 29.5135C18.671 29.9842 19.7459 29.8966 20.5346 29.2783L22.4426 27.7825L24.3507 29.2783C25.1394 29.8966 26.2143 29.9842 27.099 29.5135C28.6148 28.707 30.6177 27.119 30.2666 24.4558" stroke="#4F3208" stroke-width="1.47855" stroke-miterlimit="10" stroke-linecap="round" stroke-linejoin="round"/>
<path d="M10.4246 13.7496C8.71201 17.564 10.0488 23.3785 10.5126 25.1166C10.6028 25.4545 10.5684 25.8082 10.4186 26.1243L8.94939 29.2246C8.48883 30.1964 7.18002 30.3729 6.48687 29.5505C4.12704 26.7508 0.15987 21.1303 1.64566 17.215C6.86679 3.45681 13.3762 3.80242 13.3762 3.80242C15.4797 2.37296 23.0638 -1.3263 31.7195 4.44928C31.7195 4.44928 38.1011 3.17958 42.7624 16.9707C44.0957 20.9156 40.2269 26.4828 37.9197 29.2754C37.2313 30.1085 35.9117 29.9362 35.4488 28.9595L33.9894 25.88C33.8396 25.564 33.8053 25.2102 33.8955 24.8723C34.3593 23.1344 35.696 17.3198 33.9834 13.5053" stroke="#4F3208" stroke-width="1.47855" stroke-miterlimit="10" stroke-linecap="round" stroke-linejoin="round"/>
<path d="M34.5834 27.1345C34.5834 27.1345 32.3079 32.1036 28.8135 33.2492" stroke="#4F3208" stroke-width="1.47855" stroke-miterlimit="10" stroke-linecap="round" stroke-linejoin="round"/>
<path d="M10.0449 27.5088C10.0449 27.5088 12.3205 32.0053 15.8149 33.1509" stroke="#4F3208" stroke-width="1.47855" stroke-miterlimit="10" stroke-linecap="round" stroke-linejoin="round"/>
<path d="M22.4434 27.7827V25.5427" stroke="#4F3208" stroke-width="1.47855" stroke-miterlimit="10" stroke-linecap="round" stroke-linejoin="round"/>
</svg>
