<svg width="40" height="38" viewBox="0 0 40 38" fill="none" xmlns="http://www.w3.org/2000/svg">
<path d="M20.8785 36.9559C24.6353 36.8826 27.5046 36.8649 31.2614 36.7917C32.1418 36.7739 34.4261 36.9004 34.9898 36.2185C35.134 36.0436 35.2014 35.8096 35.2368 35.5874C36.4635 28.0325 35.0985 23.9011 35.3042 17.5267C36.9031 17.5173 39.4108 17.3081 39.4108 16.8153C39.276 15.0131 36.6608 14.2982 35.3904 13.0136C34.3753 11.9867 35.1694 8.66239 34.6471 4.08074C34.5419 3.15779 30.1966 3.6364 30.1966 4.7047C30.1966 5.83564 29.8232 7.97934 30.0501 9.09846C27.2872 6.92403 24.5254 4.74961 21.7625 2.57518C21.2744 2.19111 20.771 1.79877 20.1765 1.61678C18.2077 1.01527 18.0069 1.84131 14.991 4.31591C10.0749 8.35159 5.65044 11.0992 0.817076 16.8212C0.67763 16.9867 0.567726 17.2017 0.598452 17.4168C0.64454 17.7418 0.996702 17.9817 1.32523 17.9947C2.62161 18.0479 2.7587 17.9013 4.15789 17.99C4.41788 18.0065 5.03357 17.9758 5.23447 18.1436C5.42355 18.302 5.44718 18.5785 5.45545 18.8243C5.65399 24.5782 5.28056 33.335 5.48854 36.0294C5.52872 36.5518 5.91398 36.9713 6.42922 37.0623C8.89554 37.4995 16.129 37.4487 20.8785 36.9559Z" fill="#F26322"/>
<path d="M20.4068 33.6012C23.7961 33.5481 26.2967 33.3023 29.6871 33.2491C30.629 33.2349 31.7847 33.0801 32.1251 32.2009C32.2338 31.9208 32.2326 31.6112 32.2302 31.311C32.222 30.3668 32.0612 28.8175 32.053 27.8733C32.0152 23.4961 32.3992 20.1635 32.3614 15.7863C32.3579 15.4389 32.3531 15.0796 32.2113 14.7617C31.9431 14.1602 31.2766 13.8683 30.6869 13.5776C26.9785 11.7577 24.3846 8.18529 20.7389 6.24367C20.551 6.14322 20.3501 6.04632 20.1374 6.05695C19.9176 6.06759 19.7214 6.19404 19.5382 6.31576C16.9005 8.07421 15.2768 9.8492 12.7963 11.8239C11.507 12.8497 9.95183 14.1721 9.14588 15.8147C8.90717 16.3004 8.99107 18.4134 8.86699 21.3524C8.70981 25.0832 8.82917 28.502 8.9438 32.2351C8.95207 32.5105 8.97098 32.8 9.12461 33.0293C9.39996 33.4405 9.97665 33.4878 10.4718 33.4925C13.7831 33.5292 17.0943 33.5658 20.4068 33.6012Z" fill="#F58420"/>
<path d="M12.1413 37.9524C9.66673 37.9524 7.49467 37.8508 6.32237 37.6416C5.54478 37.5045 4.95745 36.8593 4.89718 36.0722C4.79319 34.7392 4.82864 32.0105 4.87118 28.8529C4.91372 25.5428 4.96336 21.7919 4.86055 18.8435C4.85464 18.6579 4.83927 18.5906 4.82746 18.5669C4.81209 18.5941 4.48357 18.5882 4.34294 18.5858L4.11959 18.5787C3.3999 18.5326 3.03356 18.5539 2.65067 18.5716C2.2926 18.5906 1.92744 18.6071 1.29874 18.5846C0.738592 18.5622 0.102809 18.1509 0.0106324 17.4986C-0.0390012 17.1441 0.0862644 16.7695 0.362795 16.4398C4.0085 12.1252 7.3824 9.51351 10.956 6.74821C12.1543 5.82054 13.368 4.88104 14.6147 3.85765C15.2647 3.32586 15.7811 2.8697 16.2136 2.48918C17.8256 1.07107 18.4944 0.484923 20.3486 1.0498C21.0565 1.26606 21.6249 1.71395 22.1271 2.10865L29.3902 7.82715C29.4079 7.28236 29.4599 6.70331 29.5084 6.16088C29.558 5.609 29.6053 5.09494 29.6053 4.70378C29.6053 3.23604 32.5065 3.02924 32.8362 3.01033C34.8203 2.90161 35.1843 3.59175 35.2328 4.01364C35.4585 6.00371 35.4431 7.76452 35.4289 9.17908C35.4136 10.791 35.4006 12.1831 35.8095 12.5979C36.2042 12.9961 36.7643 13.3471 37.3587 13.717C38.5452 14.458 39.8901 15.2982 40 16.7707C40.0011 17.1465 40.0011 18.0127 35.8804 18.1096C35.8426 20.2639 35.9785 22.1984 36.1096 24.0727C36.3472 27.4407 36.5918 30.9221 35.8189 35.6822C35.7575 36.0663 35.6357 36.3653 35.4443 36.5946C34.8369 37.332 33.3361 37.3828 31.7289 37.3816L31.2727 37.3828C29.4185 37.4182 27.7795 37.4407 26.1427 37.4631C24.4729 37.4868 22.8055 37.508 20.9135 37.5447C18.3136 37.8141 15.0224 37.9524 12.1413 37.9524ZM3.32072 17.3686C3.55825 17.3686 3.83833 17.3769 4.19167 17.3982L4.36539 17.4041C4.87236 17.4135 5.31552 17.4419 5.60978 17.6889C6.0163 18.0269 6.03284 18.5504 6.04112 18.8021C6.14393 21.7789 6.09429 25.544 6.05175 28.8683C6.01039 31.9975 5.97494 34.7014 6.0742 35.9812C6.09429 36.2341 6.27747 36.4338 6.52918 36.4787C8.94468 36.9077 16.1546 36.8486 20.8166 36.3677C20.8331 36.3653 20.8497 36.3641 20.8662 36.3641C22.77 36.3275 24.4469 36.3038 26.1262 36.2814C27.7605 36.2589 29.3973 36.2365 31.2491 36.201L31.7312 36.1999C33.4152 36.2093 34.3311 36.0852 34.532 35.8418C34.5674 35.7981 34.6171 35.7035 34.6514 35.4932C35.4029 30.8666 35.1725 27.6061 34.9302 24.1542C34.7837 22.0885 34.6336 19.9508 34.7116 17.5069C34.7223 17.1878 34.9822 16.9373 35.2989 16.9349C36.866 16.9255 38.2569 16.7565 38.7757 16.5851C38.5677 15.8678 37.6719 15.3076 36.7301 14.7191C36.1061 14.328 35.4597 13.9238 34.9681 13.4275C34.2117 12.6641 34.2259 11.2731 34.246 9.16844C34.259 7.8177 34.2744 6.14434 34.0723 4.28308C33.8123 4.18145 33.0536 4.11054 32.0893 4.28662C31.2349 4.44261 30.8296 4.6896 30.7669 4.78414C30.7858 5.12212 30.7374 5.67518 30.6842 6.26606C30.5968 7.241 30.4975 8.34594 30.6263 8.97936C30.6759 9.22162 30.5672 9.46979 30.3569 9.59978C30.1465 9.72859 29.8771 9.71559 29.6809 9.56078L21.3933 3.03633C20.9525 2.69007 20.4963 2.33082 20.0012 2.17956C18.7745 1.80376 18.537 2.01411 16.9924 3.37431C16.5516 3.76311 16.0246 4.22753 15.3628 4.77114C14.1078 5.80163 12.8835 6.74821 11.6769 7.6818C8.15645 10.4081 4.82864 12.982 1.26447 17.2008C1.20066 17.2764 1.18175 17.3332 1.18057 17.3462C1.19238 17.3462 1.27038 17.4005 1.34483 17.4029C1.91916 17.4265 2.25596 17.4088 2.58685 17.3923C2.80902 17.3804 3.03356 17.3686 3.32072 17.3686Z" fill="#972F00"/>
<path d="M20.4053 34.1922C20.403 34.1922 20.4006 34.1922 20.3983 34.1922L20.4053 33.6014L20.2919 34.1911L10.4633 34.0835C10.0248 34.0788 9.10897 34.0705 8.63155 33.3579C8.39283 32.9999 8.36092 32.5992 8.35147 32.253L8.33611 31.759C8.2262 28.2386 8.12339 24.9155 8.27347 21.3277C8.3172 20.2972 8.33611 19.3683 8.35029 18.5766C8.38574 16.7342 8.40819 15.9708 8.61382 15.5536C9.43277 13.8838 10.9301 12.552 12.4262 11.3608C13.3538 10.6222 14.1681 9.90604 14.9551 9.21235C16.2834 8.0436 17.5372 6.93866 19.2094 5.82427C19.4115 5.68955 19.7164 5.48629 20.1052 5.4662C20.4585 5.44965 20.7622 5.58792 21.014 5.72027C22.8374 6.69167 24.4032 8.05542 25.9182 9.37425C27.555 10.7971 29.0983 12.1419 30.9466 13.0471L31.0565 13.1015C31.6615 13.3958 32.412 13.7621 32.7523 14.5196C32.9449 14.9569 32.9497 15.4142 32.9532 15.7805C32.9733 17.9821 32.8835 19.9474 32.7984 21.8488C32.7133 23.7385 32.6259 25.6919 32.6448 27.8675C32.6483 28.3307 32.6908 28.9405 32.731 29.5515C32.7748 30.1873 32.8161 30.8231 32.8208 31.3052C32.8244 31.6231 32.8291 32.0214 32.6778 32.4137C32.1402 33.7999 30.3013 33.8294 29.6975 33.8389C28.0135 33.8649 26.5209 33.9405 25.0792 34.0138C23.6256 34.0871 22.1224 34.1639 20.4172 34.1899C20.4113 34.1922 20.4089 34.1922 20.4053 34.1922ZM20.1678 6.64677C20.1666 6.64677 20.1655 6.64677 20.1643 6.64677C20.1005 6.65031 19.9468 6.75312 19.8641 6.80867C18.2581 7.87933 17.0326 8.95827 15.7362 10.101C14.9386 10.8042 14.1137 11.531 13.1624 12.2885C11.7738 13.3934 10.3912 14.6165 9.67503 16.0772C9.57695 16.3147 9.55449 17.4775 9.53322 18.6014C9.51668 19.4014 9.50013 20.3386 9.45641 21.3809C9.30633 24.9238 9.40914 28.2279 9.51786 31.7247L9.5344 32.2199C9.53795 32.3617 9.54504 32.5981 9.61476 32.7032C9.74476 32.897 10.2765 32.9018 10.4763 32.9041L20.3061 33.0117L20.4053 33.6014L20.3959 33.0105C22.0811 32.9845 23.5724 32.9089 25.0165 32.8356C26.4689 32.7623 27.9721 32.6855 29.6762 32.6595C30.7693 32.6418 31.4075 32.4161 31.5729 31.9895C31.6426 31.8098 31.6391 31.5605 31.6367 31.3194C31.6332 30.855 31.5906 30.2452 31.5505 29.6342C31.5067 28.9984 31.4654 28.3627 31.4606 27.8805C31.4406 25.6742 31.5304 23.7042 31.6155 21.7992C31.6994 19.9131 31.788 17.9644 31.7691 15.7947C31.7667 15.5111 31.7632 15.2157 31.6698 15.0029C31.5067 14.6378 31.0139 14.3991 30.5377 14.1674L30.4242 14.1119C28.4377 13.137 26.762 11.6775 25.1406 10.2677C23.6753 8.99255 22.1603 7.67489 20.4573 6.76731C20.3935 6.73067 20.2352 6.64677 20.1678 6.64677Z" fill="#F28320"/>
<path d="M19.6955 11.6228C17.8543 13.3564 16.064 15.1432 14.2736 16.9288C13.925 17.2763 13.5669 17.6379 13.3838 18.0964C13.2278 18.4876 13.2124 18.9189 13.2006 19.3396C13.1167 22.3732 13.1155 25.4079 13.2006 28.4415C13.2159 28.9804 13.2904 29.6173 13.7655 29.8738C13.9427 29.9695 14.1483 29.9919 14.3492 30.012C18.7572 30.4552 23.2088 30.4623 27.618 30.0309C27.7503 30.0179 27.8898 30.0026 27.9985 29.9246C28.1427 29.8206 28.2207 29.6374 28.2348 29.4601C28.4511 26.7457 28.223 24.869 28.2065 22.4795C28.1947 20.7943 28.6733 19.0146 27.9536 17.4902C27.475 16.4786 26.0616 15.6183 25.1694 14.9423C23.8943 13.9756 22.7361 12.9345 21.448 11.9844C21.0214 11.6712 20.388 10.9704 19.6955 11.6228Z" fill="#F3AD20"/>
<path d="M20.3359 26.6005C21.3262 26.6489 22.9523 26.5249 23.9426 26.5733C24.2096 26.5863 24.5063 26.5887 24.706 26.4114C24.901 26.2389 24.9376 25.9529 24.9612 25.6941C25.0428 24.809 24.5913 23.1486 24.6729 22.2635C24.7568 21.3523 24.4212 20.03 24.2687 19.7451C23.7559 18.7844 23.1827 18.4358 22.4347 17.8343C21.8 17.3237 21.0508 16.4433 20.4044 16.4587C19.9707 16.4693 19.4661 17.098 19.1127 17.3497C18.4829 17.7988 17.7195 18.8588 17.1605 19.3942C17.0151 19.5336 16.8686 19.6813 16.7977 19.8692C16.7209 20.0713 16.7386 20.2947 16.7575 20.5097C16.8296 21.3228 16.689 22.0744 16.7599 22.8874C16.8639 24.0668 16.7114 25.3313 17.1829 26.4173C17.2338 26.5343 17.2976 26.6596 17.4146 26.7128C17.5079 26.7553 17.6166 26.7435 17.7183 26.7305C18.2382 26.6619 19.8159 26.6667 20.3359 26.6005Z" fill="#FEBF10"/>
<path d="M21.0829 30.9383C18.8139 30.9383 16.5438 30.8248 14.2902 30.5979C14.0728 30.5766 13.7738 30.5483 13.4842 30.3923C12.6511 29.9409 12.6216 28.8619 12.6097 28.4554C12.527 25.4183 12.527 22.3445 12.6109 19.3216C12.6227 18.8997 12.6369 18.3727 12.8366 17.874C13.0659 17.2973 13.5043 16.86 13.8565 16.5091C15.609 14.7612 17.423 12.9508 19.2914 11.1912C20.2663 10.2729 21.2259 11.0505 21.6348 11.3802L21.7967 11.5079C22.4998 12.0255 23.1628 12.5691 23.8293 13.1151C24.3859 13.5712 24.9425 14.0286 25.5251 14.4693C25.6882 14.5922 25.869 14.7222 26.0581 14.8581C26.9385 15.4892 28.034 16.2739 28.4878 17.2346C29.0645 18.4578 28.9652 19.7695 28.8683 21.0375C28.8317 21.5185 28.7938 21.9995 28.7962 22.4734C28.8021 23.2486 28.8293 23.9695 28.8565 24.6809C28.9132 26.1368 28.9711 27.6435 28.8222 29.5048C28.7938 29.8759 28.6189 30.2044 28.3436 30.4029C28.1061 30.5731 27.8496 30.5991 27.6795 30.6168C25.4897 30.8307 23.2869 30.9383 21.0829 30.9383ZM20.2935 11.9451C20.2167 11.9451 20.1671 11.9912 20.1021 12.0515C20.1021 12.0527 20.1021 12.0527 20.1021 12.0527C18.2467 13.8005 16.4386 15.6038 14.692 17.3469C14.3883 17.6483 14.0751 17.9614 13.9345 18.3124C13.8116 18.6161 13.8021 18.9907 13.7927 19.3535C13.71 22.3564 13.7088 25.4077 13.7915 28.4235C13.8069 28.9553 13.8919 29.2684 14.0468 29.3523C14.1248 29.3949 14.2807 29.4102 14.4072 29.4221C18.7726 29.8605 23.1994 29.8688 27.5613 29.4422C27.5991 29.4386 27.6688 29.4315 27.6901 29.4232C27.7882 27.6199 27.7338 26.2148 27.6759 24.7281C27.6487 24.0037 27.6204 23.271 27.6145 22.4828C27.6109 21.977 27.6487 21.463 27.6889 20.9489C27.7775 19.7837 27.8614 18.6811 27.4183 17.7416C27.0957 17.0586 26.1384 16.372 25.3703 15.8201C25.1718 15.6783 24.9827 15.5424 24.8113 15.4124C24.2169 14.9621 23.6485 14.4953 23.0789 14.0297C22.4301 13.4968 21.7813 12.965 21.0947 12.4592L20.8915 12.2996C20.5629 12.0338 20.401 11.9451 20.2935 11.9451Z" fill="#EAA61E"/>
<path d="M17.5685 27.3332C17.4492 27.3332 17.3109 27.3143 17.1679 27.2505C16.8323 27.0933 16.6976 26.7825 16.6409 26.6501C16.2603 25.7756 16.2379 24.8432 16.2166 23.9416C16.2083 23.6048 16.2001 23.268 16.1717 22.9371C16.1315 22.4915 16.1492 22.0744 16.1682 21.669C16.1847 21.3039 16.2012 20.9399 16.1682 20.5606C16.1469 20.3171 16.1185 19.9874 16.245 19.6565C16.3584 19.3611 16.557 19.1531 16.7508 18.9676C16.9564 18.7702 17.1892 18.4996 17.4326 18.216C17.8711 17.7078 18.3249 17.1831 18.7692 16.8664C18.8602 16.8014 18.9606 16.7069 19.0694 16.6076C19.4428 16.2661 19.867 15.8785 20.3906 15.8655C21.0961 15.8418 21.7378 16.4161 22.3416 16.9657C22.5 17.1098 22.656 17.2516 22.8049 17.3722L23.1239 17.6239C23.7266 18.0931 24.2951 18.5374 24.7902 19.4663C25.01 19.8775 25.3527 21.3299 25.2606 22.3166C25.2263 22.6889 25.3149 23.3022 25.4012 23.8943C25.5005 24.5832 25.595 25.2356 25.5489 25.7473C25.5229 26.0344 25.4768 26.5154 25.0975 26.8534C24.7063 27.202 24.1887 27.1796 23.9134 27.163C23.4265 27.1417 22.786 27.1595 22.1478 27.1784C21.5026 27.1973 20.8585 27.2162 20.3551 27.1937C20.0715 27.2233 19.5621 27.241 19.0516 27.2564C18.5482 27.2717 18.0424 27.2835 17.7931 27.3166C17.734 27.3225 17.656 27.3332 17.5685 27.3332ZM20.4225 17.0484C20.4201 17.0484 20.4177 17.0484 20.4177 17.0484C20.3114 17.0732 20.0218 17.3379 19.8659 17.4797C19.7181 17.6156 19.5775 17.7421 19.4522 17.8295C19.1249 18.0635 18.7006 18.5551 18.326 18.9888C18.0554 19.302 17.7954 19.6022 17.5673 19.8196C17.4917 19.8929 17.3759 20.0028 17.3475 20.0784C17.318 20.1552 17.331 20.323 17.3428 20.4566C17.3818 20.8997 17.3641 21.3169 17.3464 21.7187C17.3286 22.1016 17.3133 22.4632 17.3464 22.8307C17.3771 23.1864 17.3865 23.5468 17.3948 23.9096C17.4149 24.7262 17.4338 25.5003 17.7151 26.1609C17.9869 26.103 18.5021 26.0864 19.0162 26.0711C19.5149 26.0557 20.0124 26.0439 20.2594 26.012C20.2925 26.0061 20.3267 26.0049 20.361 26.0084C20.8443 26.0297 21.4778 26.012 22.1112 25.9931C22.7848 25.973 23.4596 25.9541 23.9677 25.9801C24.1568 25.9883 24.2773 25.9836 24.3175 25.9612C24.3423 25.9186 24.3636 25.7047 24.3695 25.635C24.4038 25.2639 24.3152 24.6518 24.2289 24.0609C24.1296 23.3708 24.0351 22.7184 24.0812 22.2067C24.1556 21.402 23.8389 20.206 23.7444 20.0181C23.3686 19.3126 22.9597 18.9936 22.3936 18.5528L22.0616 18.2904C21.8949 18.1569 21.7224 17.9997 21.5439 17.8378C21.2201 17.5447 20.6742 17.0484 20.4225 17.0484Z" fill="#EEB413"/>
</svg>
