<svg width="41" height="41" viewBox="0 0 41 41" fill="none" xmlns="http://www.w3.org/2000/svg">
<path d="M34.22 22.4012L34.137 22.9823L34.604 23.3381L38.7026 26.4609L38.7026 26.4609L38.7087 26.4655C38.711 26.4672 38.7184 26.4737 38.7263 26.4857C38.7342 26.4976 38.7389 26.5093 38.7411 26.5179C38.7413 26.519 38.7416 26.5199 38.7417 26.5208L38.7368 26.5293L34.5591 33.7188C34.5522 33.7197 34.5448 33.7202 34.5372 33.72C34.5287 33.7198 34.5219 33.7188 34.5167 33.7176L29.6751 31.4905L29.1075 31.2294L28.6239 31.625C27.6496 32.4222 26.4735 33.0617 25.1549 33.6268L24.6069 33.8616L24.5529 34.4554L24.0678 39.7915H15.7289C15.7255 39.7869 15.7216 39.7811 15.7176 39.7739C15.7133 39.7659 15.7092 39.7571 15.7057 39.7474L15.2246 34.4554L15.1706 33.8616L14.6226 33.6267C13.3313 33.0733 12.2292 32.4306 11.1204 31.599L10.6437 31.2415L10.1025 31.4905L5.22686 33.7333L1.04074 26.5293L1.04083 26.5292L1.03581 26.5208C1.03598 26.52 1.0362 26.519 1.03647 26.5179C1.03863 26.5093 1.04334 26.4976 1.05122 26.4857C1.0557 26.4789 1.05999 26.4739 1.0633 26.4705L5.61828 23.3693L6.1336 23.0184L6.04543 22.4012C5.94709 21.7128 5.86031 21.0959 5.86031 20.3957C5.86031 19.6956 5.94709 19.0786 6.04543 18.3902L6.13161 17.787L5.63501 17.4339L1.26116 14.3236C1.2577 14.3204 1.25221 14.3146 1.24639 14.3058C1.23852 14.2939 1.2338 14.2822 1.23165 14.2736C1.23138 14.2725 1.23117 14.2715 1.231 14.2707L1.23592 14.2622L5.41361 7.07271C5.42056 7.07176 5.42797 7.07129 5.43547 7.07147C5.44401 7.07167 5.45084 7.07267 5.45598 7.07383L10.2977 9.301L10.8652 9.56209L11.3488 9.16646C12.3232 8.36925 13.4993 7.72982 14.8178 7.16473L15.3658 6.92988L15.4198 6.33612L15.9049 1H24.2438C24.2472 1.00455 24.2511 1.01038 24.2551 1.01761C24.2595 1.02554 24.2635 1.0344 24.267 1.04406L24.7481 6.33612L24.8021 6.92987L25.3501 7.16473C26.6414 7.71816 27.7435 8.36088 28.8523 9.19251L29.329 9.54998L29.8702 9.301L34.746 7.05815L39.0345 14.2706C39.0343 14.2715 39.0341 14.2725 39.0338 14.2736C39.0317 14.2822 39.027 14.2939 39.0191 14.3058C39.0133 14.3146 39.0078 14.3204 39.0043 14.3236L34.6305 17.4339L34.1339 17.787L34.22 18.3902C34.3184 19.0786 34.4052 19.6956 34.4052 20.3957C34.4052 21.0959 34.3184 21.7128 34.22 22.4012ZM5.28379 33.8082C5.28378 33.8082 5.28331 33.8079 5.28241 33.8072L5.28379 33.8082ZM34.6889 6.98328C34.6889 6.98325 34.6894 6.98357 34.6903 6.9843C34.6894 6.98367 34.6889 6.9833 34.6889 6.98328ZM9.22762 20.3957C9.22762 26.3153 14.0668 31.1545 19.9864 31.1545C25.906 31.1545 30.7451 26.3153 30.7451 20.3957C30.7451 14.4762 25.906 9.63701 19.9864 9.63701C14.0668 9.63701 9.22762 14.4762 9.22762 20.3957Z" fill="#999791" stroke="#6C6C6A" stroke-width="2"/>
<path d="M19.9869 8.6853C13.5461 8.6853 8.27637 13.955 8.27637 20.3958C8.27637 26.8365 13.5461 32.1062 19.9869 32.1062C26.4276 32.1062 31.6973 26.8365 31.6973 20.3958C31.6973 13.955 26.4276 8.6853 19.9869 8.6853ZM19.9869 25.2751C17.2544 25.2751 15.1075 23.1282 15.1075 20.3958C15.1075 17.6633 17.2544 15.5164 19.9869 15.5164C22.7193 15.5164 24.8662 17.6633 24.8662 20.3958C24.8662 23.1282 22.7193 25.2751 19.9869 25.2751Z" fill="#C9C3B6" stroke="#8F8F8F" stroke-width="2"/>
</svg>
