<svg width="41" height="41" viewBox="0 0 41 41" fill="none" xmlns="http://www.w3.org/2000/svg">
<path d="M25.4942 0.395752H14.5742V9.11574H25.4942V0.395752Z" fill="#FFCB07"/>
<path d="M15.6853 8.00463V1.50686H24.383V8.00463H15.6853Z" stroke="black" stroke-opacity="0.2" stroke-width="2.22222"/>
<path d="M28.4961 0.395752V9.11574H39.7761C38.7561 3.61575 34.6961 0.415752 28.4961 0.395752Z" fill="#FF4B4B"/>
<path d="M38.3627 8.00463H29.6072V1.54858C31.999 1.72365 33.9346 2.44191 35.3968 3.57812C36.7676 4.64329 37.783 6.12242 38.3627 8.00463Z" stroke="black" stroke-opacity="0.2" stroke-width="2.22222"/>
<path d="M25.4704 29.7182L25.4705 29.7183L25.4813 29.7118C27.1874 28.7016 28.4063 27.2173 28.4063 25.3357C28.4063 23.4779 27.2353 21.9224 25.4687 20.9121C25.4679 20.9117 25.4672 20.9113 25.4664 20.9109L21.3158 18.5162C21.3149 18.5157 21.314 18.5152 21.3132 18.5147C19.5588 17.4902 17.6364 17.229 16.0194 18.1733C14.4012 19.0977 13.664 20.912 13.664 22.9156V27.7157C13.664 29.722 14.4031 31.5384 16.0257 32.4616L16.0257 32.4616L16.0323 32.4653C16.7032 32.841 17.4309 33.027 18.2152 33.027C19.2552 33.027 20.3036 32.6904 21.3041 32.1219L21.3041 32.1219L21.3104 32.1183L25.4704 29.7182ZM1.14627 28.7758V13.2263H38.924V28.7758C38.924 32.1949 37.9092 34.7906 36.1695 36.5304C34.4297 38.2701 31.8342 39.285 28.4152 39.285H11.6552C8.23613 39.285 5.64057 38.2701 3.90084 36.5304C2.16111 34.7906 1.14627 32.1949 1.14627 28.7758Z" fill="#A5ED6E" stroke="#79AD52" stroke-width="2.22222"/>
<path d="M11.573 0.395752C5.37297 0.415752 1.31297 3.61575 0.292969 9.11574H11.573V0.395752Z" fill="#0859BF"/>
<path d="M10.4619 8.00463H1.70635C2.28604 6.12242 3.30144 4.64329 4.67223 3.57812C6.13443 2.44191 8.07008 1.72365 10.4619 1.54858V8.00463Z" stroke="black" stroke-opacity="0.2" stroke-width="2.22222"/>
</svg>
