<svg width="40" height="40" viewBox="0 0 40 40" fill="none" xmlns="http://www.w3.org/2000/svg">
<path d="M20 40C31.0457 40 40 31.0457 40 20C40 8.9543 31.0457 0 20 0C8.9543 0 0 8.9543 0 20C0 31.0457 8.9543 40 20 40Z" fill="#FFDD67"/>
<path d="M12.3333 20.4001C14.1743 20.4001 15.6667 18.9077 15.6667 17.0667C15.6667 15.2258 14.1743 13.7334 12.3333 13.7334C10.4924 13.7334 9 15.2258 9 17.0667C9 18.9077 10.4924 20.4001 12.3333 20.4001Z" fill="#664E27"/>
<path d="M27.6663 20.4001C29.5073 20.4001 30.9997 18.9077 30.9997 17.0667C30.9997 15.2258 29.5073 13.7334 27.6663 13.7334C25.8254 13.7334 24.333 15.2258 24.333 17.0667C24.333 18.9077 25.8254 20.4001 27.6663 20.4001Z" fill="#664E27"/>
<path d="M24.5994 30.6667H15.3994C14.3994 30.6667 14.3994 28 15.3994 28H24.5327C25.5994 28 25.5994 30.6667 24.5994 30.6667Z" fill="#664E27"/>
</svg>
