<svg width="72" height="36" viewBox="0 0 72 36" fill="none" xmlns="http://www.w3.org/2000/svg">
<path fill-rule="evenodd" clip-rule="evenodd" d="M70.7399 7.54392H67.5822C67.4162 7.54295 67.2574 7.47588 67.1406 7.35745C67.0238 7.23902 66.9586 7.0789 66.9593 6.91227L66.9602 3.68126C66.9602 3.33321 67.24 3.05145 67.5841 3.05145L70.7409 3.05237C71.0849 3.05237 71.3647 3.33505 71.3647 3.6831L71.3629 6.91503C71.3631 7.08142 71.2976 7.2411 71.1806 7.35902C71.0636 7.47693 70.9048 7.54343 70.739 7.54392H70.7399ZM66.5327 3.05145H64.3888C64.3329 3.05121 64.2776 3.03992 64.2261 3.01821C64.1746 2.9965 64.1279 2.96482 64.0886 2.92496C64.0493 2.8851 64.0183 2.83786 63.9972 2.78594C63.9761 2.73402 63.9655 2.67843 63.9658 2.62237V0.428161C63.9658 0.191521 64.1557 0 64.3897 0L66.5336 0.000920776C66.7676 0.000920776 66.9575 0.192442 66.9575 0.429082L66.9566 2.62421C66.9567 2.6802 66.9458 2.73566 66.9246 2.78743C66.9034 2.8392 66.8722 2.88626 66.8328 2.92594C66.7935 2.96561 66.7467 2.99711 66.6952 3.01865C66.6437 3.04018 66.5885 3.05133 66.5327 3.05145Z" fill="#0E342C"/>
<mask id="mask0_7245_8689" style="mask-type:alpha" maskUnits="userSpaceOnUse" x="0" y="8" width="64" height="29">
<path d="M0 8.98364H63.9559V36.0001H0V8.98364Z" fill="#EFF2F8"/>
</mask>
<g mask="url(#mask0_7245_8689)">
<path opacity="0.963" fill-rule="evenodd" clip-rule="evenodd" d="M42.9804 15.2897L39.4117 29.7211C38.3658 33.9511 36.5787 35.7669 33.243 35.9879C33.1622 35.995 33.0811 35.9987 32.9999 35.9989C32.2807 35.9989 32.0541 35.5975 31.9201 34.9511L31.8587 34.6712C31.7981 34.3765 31.7596 34.045 31.9293 33.8148C32.0944 33.592 32.388 33.5266 32.8421 33.488C35.076 33.2559 35.8329 32.2118 36.5778 29.8444C36.2255 29.9641 35.8017 30.0286 35.343 30.0286C32.888 30.0286 32.2311 28.2994 31.6779 26.2111L28.7312 15.2989C28.6331 14.9279 28.5679 14.5513 28.7588 14.299C28.9514 14.0467 29.323 14.0117 29.6973 14.0117H29.945C30.8715 14.0117 31.2293 14.2879 31.4697 15.194L34.3861 26.0131C34.7623 27.3639 35.1411 27.5922 36.0879 27.5922C36.8604 27.5922 37.3117 27.3491 37.6328 26.0186L40.208 15.1995C40.4125 14.3008 40.7768 14.0117 41.7024 14.0117H41.9813C42.3538 14.0117 42.7244 14.0458 42.9207 14.2953C43.1161 14.5439 43.0648 14.9205 42.9804 15.2897ZM24.9717 22.6071H21.5388C18.7792 22.6071 17.7041 23.3161 17.7041 25.1356C17.7041 26.7958 18.7756 27.6024 20.981 27.6024C24.3185 27.6024 24.9717 26.5711 24.9717 24.7912V22.6071ZM20.981 13.5513C25.4974 13.5513 27.6927 15.2271 27.6927 18.6754V24.8851C27.6927 28.4504 25.6323 30.0397 21.0122 30.0397C17.1243 30.0397 14.983 28.2985 14.983 25.1356C14.983 21.876 17.0564 20.3568 21.5085 20.3568H24.9717V18.6754C24.9717 16.7897 23.8516 16.0208 21.1049 16.0208C19.5756 16.0208 18.1784 16.2492 17.7407 16.3597C17.5858 16.4023 17.4262 16.4258 17.2655 16.4297C16.9903 16.4297 16.7885 16.3302 16.6619 16.1341C16.5527 15.9656 16.5023 15.7271 16.5023 15.3818V15.1332C16.5023 14.252 16.8233 14.0402 17.5885 13.8717C18.0215 13.7843 19.1609 13.5532 20.981 13.5532V13.5513ZM12.2538 15.6433C12.2538 18.2399 11.5978 19.6459 8.1392 19.6459H2.81459V12.9464C2.81459 12.0173 3.15587 11.672 4.07511 11.672H8.1392C10.7446 11.672 12.2538 12.3212 12.2538 15.6433ZM8.1392 8.98242H3.5476C1.09446 8.98334 0 10.0901 0 12.5707V28.5029C0 29.4605 0.304578 29.7689 1.25226 29.7689H1.56234C2.51002 29.7689 2.81459 29.4614 2.81459 28.5029V22.3042H8.1392C12.8657 22.3042 15.0674 20.1883 15.0674 15.6442C15.0674 11.1002 12.8657 8.98242 8.1392 8.98242Z" fill="#0E342C"/>
</g>
<path opacity="0.921" fill-rule="evenodd" clip-rule="evenodd" d="M63.4218 13.5881L66.1148 13.5893V13.5884C66.579 13.5893 66.9551 13.209 66.9551 12.7413L66.956 8.39059C66.957 7.92192 66.5808 7.54164 66.1175 7.54164L61.8672 7.53979C61.4039 7.53979 61.0278 7.91915 61.0278 8.38875L61.0275 8.99045C60.9501 8.98921 60.8706 8.98863 60.7889 8.98863H60.1843C58.2651 8.98863 57.5513 9.30814 57.5513 11.076V15.2122L57.5495 15.2379V16.1449L57.5477 16.2379V22.0167C57.5477 22.7229 57.4128 23.2846 57.1348 23.722C56.6119 24.5359 55.5762 24.907 53.9184 24.9098C52.2616 24.907 51.2249 24.5369 50.702 23.722C50.424 23.2855 50.2892 22.7229 50.2892 22.0167V16.237L50.2873 16.1449V15.2379L50.2855 15.2122V11.076C50.2855 9.30814 49.5718 8.98863 47.6526 8.98863H47.048C45.1288 8.98863 44.415 9.30814 44.415 11.076V22.0167C44.415 23.7763 44.8077 25.267 45.5664 26.4677C47.0315 28.7954 49.869 30.0357 53.9037 30.0357H53.9331C57.9678 30.0357 60.8054 28.7954 62.2705 26.4677C63.0292 25.267 63.4218 23.7763 63.4218 22.0167V13.5881ZM63.4218 13.5881V11.076C63.4218 9.38342 62.7676 9.01846 61.0275 8.99045L61.0259 12.7385C61.0255 12.8495 61.0468 12.9595 61.0886 13.0623C61.1305 13.165 61.1921 13.2584 61.27 13.3373C61.3479 13.4161 61.4404 13.4788 61.5424 13.5217C61.6444 13.5646 61.7538 13.587 61.8644 13.5875L63.4218 13.5881Z" fill="#0E342C"/>
</svg>
