<svg width="20" height="21" viewBox="0 0 20 21" fill="none" xmlns="http://www.w3.org/2000/svg">
<path d="M2.479 12.854L12.4461 2.8894L17.108 7.55261L7.14065 17.5172L2.479 12.854Z" fill="#FFCE31"/>
<path d="M19.1561 1.43753L18.5624 0.843765C17.4373 -0.281255 15.6248 -0.281255 14.4685 0.843765L12.4373 2.87505L17.1248 7.56264L19.1561 5.53135C20.2812 4.40633 20.2812 2.56255 19.1561 1.43753Z" fill="#ED4C5C"/>
<path d="M11.1816 4.15946L12.4629 2.87756L17.1255 7.54015L15.8442 8.82173L11.1816 4.15946Z" fill="#93A2AA"/>
<path d="M11.668 4.64536L12.9492 3.36377L16.6177 7.03196L15.3358 8.31323L11.668 4.64536Z" fill="#C7D3D8"/>
<path d="M2.4683 12.844L0.437012 18.1566L1.84329 19.5629L7.15589 17.5316L2.4683 12.844Z" fill="#FED0AC"/>
<path d="M0.0933812 19.094C-0.187874 19.8441 0.187133 20.1878 0.937147 19.9066L3.49969 18.9378L1.0934 16.5315L0.0933812 19.094Z" fill="#333333"/>
<path d="M2.46533 12.8674L11.1717 4.16101L12.7186 5.70791L4.01224 14.4143L2.46533 12.8674Z" fill="#FFDF85"/>
<path d="M5.59473 15.9822L14.3011 7.27576L15.848 8.82266L7.14163 17.5291L5.59473 15.9822Z" fill="#FF8736"/>
</svg>
