<svg width="41" height="41" viewBox="0 0 41 41" fill="none" xmlns="http://www.w3.org/2000/svg">
<g id="&#240;&#159;&#166;&#134; emoji &#34;pill&#34;">
<path id="Vector" d="M23.8538 37.1565C27.6474 40.9501 33.858 40.9501 37.6549 37.1565C41.4486 33.3628 41.4486 27.1523 37.6549 23.3553L27.4008 13.1011L13.5996 26.9023L23.8538 37.1565Z" fill="url(#paint0_radial_296_1514)"/>
<path id="Vector_2" d="M27.4006 13.1011L17.1464 2.84689C13.3527 -0.946766 7.14222 -0.946766 3.34524 2.84689C-0.448412 6.64055 -0.448412 12.8511 3.34524 16.6481L13.5994 26.9023L27.4006 13.1011Z" fill="url(#paint1_radial_296_1514)"/>
<g id="Group">
<path id="Vector_3" opacity="0.2" d="M10.2458 1.00009C12.5927 1.00009 14.7929 1.90683 16.4397 3.55364L36.948 24.0621C38.5948 25.7089 39.5016 27.9091 39.5016 30.2559C39.5016 32.6028 38.5948 34.803 36.948 36.4498C35.3012 38.0966 33.1011 39.0033 30.7542 39.0033C28.4073 39.0033 26.2071 38.0966 24.5603 36.4498L4.05196 15.9414C2.40516 14.2946 1.49842 12.0944 1.49842 9.7475C1.49842 7.40063 2.40516 5.20044 4.05196 3.55364C5.69877 1.90683 7.89895 1.00009 10.2458 1.00009ZM10.2458 0C7.7456 0 5.24206 0.950081 3.34524 2.84691C-0.448412 6.64057 -0.448412 12.8511 3.34524 16.6481L23.8536 37.1565C25.7504 39.0533 28.254 40.0034 30.7542 40.0034C33.2544 40.0034 35.7579 39.0533 37.6548 37.1565C41.4484 33.3628 41.4484 27.1523 37.6548 23.3553L17.1464 2.84691C15.2496 0.950081 12.746 0 10.2458 0Z" fill="#424242"/>
<path id="Vector_4" opacity="0.2" d="M28.1074 13.8094L14.306 27.6109L13.5989 26.9037L27.4003 13.1023L28.1074 13.8094Z" fill="#424242"/>
</g>
</g>
<defs>
<radialGradient id="paint0_radial_296_1514" cx="0" cy="0" r="1" gradientUnits="userSpaceOnUse" gradientTransform="translate(21.8334 20.224) rotate(49.3391) scale(22.8526 15.113)">
<stop stop-color="#EF5350"/>
<stop offset="0.6263" stop-color="#D83534"/>
<stop offset="0.7356" stop-color="#D32F2F"/>
<stop offset="1" stop-color="#D32F2F"/>
</radialGradient>
<radialGradient id="paint1_radial_296_1514" cx="0" cy="0" r="1" gradientUnits="userSpaceOnUse" gradientTransform="translate(4.72054 3.88952) rotate(45.0001) scale(22.317 17.5639)">
<stop stop-color="#FFEB3B"/>
<stop offset="0.349" stop-color="#FEE439"/>
<stop offset="0.6698" stop-color="#FDD835"/>
<stop offset="0.9954" stop-color="#FBC02D"/>
</radialGradient>
</defs>
</svg>
