<svg width="40" height="42" viewBox="0 0 40 42" fill="none" xmlns="http://www.w3.org/2000/svg">
<path d="M23.3538 38.1548C27.1474 41.9484 33.358 41.9484 37.1549 38.1548C40.9486 34.3611 40.9486 28.1506 37.1549 24.3536L26.9008 14.0994L13.0996 27.9005L23.3538 38.1548Z" fill="url(#paint0_radial_365_2870)"/>
<path d="M26.9006 14.0997L16.6464 3.84549C12.8527 0.0518298 6.64222 0.0518298 2.84524 3.84549C-0.948412 7.63914 -0.948412 13.8497 2.84524 17.6467L13.0994 27.9009L26.9006 14.0997Z" fill="url(#paint1_radial_365_2870)"/>
<path opacity="0.2" d="M9.74581 1.99838C12.0927 1.99838 14.2929 2.90512 15.9397 4.55193L36.448 25.0603C38.0948 26.7072 39.0016 28.9073 39.0016 31.2542C39.0016 33.6011 38.0948 35.8013 36.448 37.4481C34.8012 39.0949 32.6011 40.0016 30.2542 40.0016C27.9073 40.0016 25.7071 39.0949 24.0603 37.4481L3.55196 16.9397C1.90516 15.2928 0.998417 13.0927 0.998417 10.7458C0.998417 8.39892 1.90516 6.19874 3.55196 4.55193C5.19877 2.90512 7.39895 1.99838 9.74581 1.99838ZM9.74581 0.998291C7.2456 0.998291 4.74206 1.94837 2.84524 3.8452C-0.948412 7.63886 -0.948412 13.8494 2.84524 17.6464L23.3536 38.1548C25.2504 40.0516 27.754 41.0017 30.2542 41.0017C32.7544 41.0017 35.2579 40.0516 37.1548 38.1548C40.9484 34.3611 40.9484 28.1506 37.1548 24.3536L16.6464 3.8452C14.7496 1.94837 12.246 0.998291 9.74581 0.998291Z" fill="#424242"/>
<path opacity="0.2" d="M27.6074 14.8079L13.806 28.6093L13.0989 27.9021L26.9003 14.1007L27.6074 14.8079Z" fill="#424242"/>
<defs>
<radialGradient id="paint0_radial_365_2870" cx="0" cy="0" r="1" gradientUnits="userSpaceOnUse" gradientTransform="translate(21.3334 21.2222) rotate(49.3391) scale(22.8526 15.113)">
<stop stop-color="#EF5350"/>
<stop offset="0.6263" stop-color="#D83534"/>
<stop offset="0.7356" stop-color="#D32F2F"/>
<stop offset="1" stop-color="#D32F2F"/>
</radialGradient>
<radialGradient id="paint1_radial_365_2870" cx="0" cy="0" r="1" gradientUnits="userSpaceOnUse" gradientTransform="translate(4.22054 4.88812) rotate(45.0001) scale(22.317 17.5639)">
<stop stop-color="#FFEB3B"/>
<stop offset="0.349" stop-color="#FEE439"/>
<stop offset="0.6698" stop-color="#FDD835"/>
<stop offset="0.9954" stop-color="#FBC02D"/>
</radialGradient>
</defs>
</svg>
