<svg width="42" height="50" viewBox="0 0 42 50" fill="none" xmlns="http://www.w3.org/2000/svg">
<path d="M41.25 25C41.2515 25.6366 41.0883 26.2628 40.7762 26.8176C40.4641 27.3725 40.0136 27.8371 39.4688 28.1664L5.7 48.8242C5.13067 49.1728 4.4786 49.3631 3.81112 49.3755C3.14365 49.3878 2.48497 49.2218 1.90313 48.8945C1.32682 48.5723 0.846741 48.1023 0.512259 47.5331C0.177777 46.9638 0.000962948 46.3157 0 45.6554V4.34448C0.000962948 3.68421 0.177777 3.03611 0.512259 2.46683C0.846741 1.89756 1.32682 1.42764 1.90313 1.10542C2.48497 0.77811 3.14365 0.612062 3.81112 0.624422C4.4786 0.636783 5.13067 0.827104 5.7 1.17573L39.4688 21.8335C40.0136 22.1628 40.4641 22.6274 40.7762 23.1823C41.0883 23.7371 41.2515 24.3633 41.25 25Z" fill="white"/>
</svg>
