<svg width="25" height="24" viewBox="0 0 25 24" fill="none" xmlns="http://www.w3.org/2000/svg">
<path d="M7.42554 15.6493L2.14884 10.6137C0.63857 9.17268 1.29523 6.63223 3.31558 6.10486L20.3643 1.64729C22.5407 1.07774 24.4005 3.29416 23.4617 5.3386L16.1113 21.3543C15.2403 23.2513 12.6253 23.4579 11.4684 21.7203L7.42554 15.6493ZM7.42554 15.6493L14.5753 9.65L7.42554 15.6493Z" fill="#9747FF"/>
<path d="M7.42554 15.6493L2.14884 10.6137C0.63857 9.17268 1.29523 6.63223 3.31558 6.10486L20.3643 1.64729C22.5407 1.07774 24.4005 3.29416 23.4617 5.3386L16.1113 21.3543C15.2403 23.2513 12.6253 23.4579 11.4684 21.7203L7.42554 15.6493ZM7.42554 15.6493L14.5753 9.65" stroke="#101010" stroke-width="2" stroke-linecap="round" stroke-linejoin="round"/>
</svg>
