<svg width="40" height="40" viewBox="0 0 40 40" fill="none" xmlns="http://www.w3.org/2000/svg">
<g id="&#240;&#159;&#166;&#134; emoji &#34;white medium star&#34;">
<path id="Vector" d="M21.3506 1.74045L25.8375 11.9743C26.1809 12.7577 26.9242 13.2944 27.7776 13.371L38.7082 14.3511C39.9449 14.5311 40.4383 16.0479 39.5416 16.9212L31.3078 23.8383C30.6411 24.3983 30.3377 25.2783 30.5211 26.1284L32.9145 37.3323C33.1246 38.5624 31.8345 39.5024 30.7278 38.919L21.1873 33.3321C20.4539 32.9021 19.5472 32.9021 18.8138 33.3321L9.27329 38.9157C8.1699 39.4957 6.87649 38.559 7.08651 37.329L9.47997 26.125C9.65998 25.275 9.35996 24.395 8.69326 23.8349L0.456152 16.9246C-0.437229 16.0545 0.0561311 14.5344 1.28953 14.3544L12.2201 13.3744C13.0735 13.2977 13.8169 12.761 14.1602 11.9776L18.6471 1.74378C19.2038 0.623723 20.7972 0.623723 21.3506 1.74045Z" fill="#FDD835"/>
<path id="Vector_2" d="M21.0238 12.5877L20.2638 5.04729C20.2338 4.62726 20.1471 3.90723 20.8205 3.90723C21.3538 3.90723 21.6439 5.01728 21.6439 5.01728L23.924 11.0709C24.784 13.3744 24.4307 14.1644 23.6006 14.6311C22.6473 15.1645 21.2405 14.7478 21.0238 12.5877Z" fill="#FFFF8D"/>
<path id="Vector_3" d="M30.4276 23.1681L36.9679 18.0645C37.2913 17.7945 37.8746 17.3645 37.4079 16.8745C37.0379 16.4878 36.0379 17.0445 36.0379 17.0445L30.3142 19.2813C28.6075 19.8713 27.4741 20.7447 27.3741 21.8447C27.2441 23.3115 28.5608 24.4415 30.4276 23.1681Z" fill="#F4B400"/>
</g>
</svg>
