<svg width="40" height="40" viewBox="0 0 40 40" fill="none" xmlns="http://www.w3.org/2000/svg">
<path d="M20 40C31.0457 40 40 31.0457 40 20C40 8.9543 31.0457 0 20 0C8.9543 0 0 8.9543 0 20C0 31.0457 8.9543 40 20 40Z" fill="#EF5350"/>
<path d="M15.6667 17.6002C16.6 19.5335 15.4 22.0002 13.0667 23.1335C10.7334 24.2002 8.06669 23.5335 7.13336 21.6002C6.60002 20.3335 15.1334 16.3335 15.6667 17.6002ZM24.3334 17.6002C23.4 19.5335 24.6 22.0002 26.9334 23.1335C29.2667 24.2002 31.9334 23.5335 32.8667 21.6002C33.4 20.3335 24.8667 16.3335 24.3334 17.6002Z" fill="#302424"/>
<path d="M13.8001 11.8666C12.0001 14.0666 7.66676 16.0666 4.80009 16.0666C4.40009 16.0666 4.33342 17.5333 4.80009 17.5333C8.06676 17.5333 12.8001 15.3333 14.9334 12.7999C15.2668 12.4666 14.0668 11.5999 13.8001 11.8666ZM26.2001 11.8666C28.0001 14.0666 32.3334 16.0666 35.2001 16.0666C35.6001 16.0666 35.6668 17.5333 35.2001 17.5333C31.9334 17.5333 27.2001 15.3333 25.0668 12.7999C24.7334 12.4666 25.9334 11.5999 26.2001 11.8666Z" fill="#302424"/>
<path d="M25.7332 29.6001C22.1332 27.9334 17.8665 27.9334 14.2665 29.6001C13.3999 30.0001 14.4665 32.4001 15.3999 31.9334C17.7999 30.8001 21.3332 30.4001 24.6665 31.9334C25.5332 32.3334 26.6665 30.0668 25.7332 29.6001Z" fill="#302424"/>
</svg>
