<svg width="34" height="35" viewBox="0 0 34 35" fill="none" xmlns="http://www.w3.org/2000/svg">
<g id="&#240;&#159;&#166;&#134; icon &#34;video play&#34;">
<g id="Group">
<path id="Vector" d="M21.3673 2H12.6313V8.97599H21.3673V2Z" fill="#FFCB07" stroke="black" stroke-opacity="0.2" stroke-width="2"/>
<path id="Vector_2" d="M23.7686 2V8.97599H32.7926C31.9766 4.576 28.7286 2.016 23.7686 2Z" fill="#FF4B4B" stroke="black" stroke-opacity="0.2" stroke-width="2"/>
<path id="Vector_3" d="M1 11.3755V24.7039C1 30.5281 4.472 34.0002 10.296 34.0002H23.704C29.528 34.0002 33 30.5281 33 24.7039V11.3755H1ZM20.904 24.6879L17.576 26.608C16.872 27.008 16.184 27.216 15.544 27.216C15.064 27.216 14.632 27.104 14.232 26.88C13.304 26.352 12.792 25.2639 12.792 23.8559V20.0158C12.792 18.6077 13.304 17.5197 14.232 16.9917C15.16 16.4477 16.344 16.5437 17.576 17.2637L20.904 19.1838C22.136 19.8878 22.808 20.8798 22.808 21.9518C22.808 23.0239 22.12 23.9679 20.904 24.6879Z" fill="#A5ED6E" stroke="black" stroke-opacity="0.2" stroke-width="2"/>
<path id="Vector_4" d="M10.2301 2C5.27005 2.016 2.02205 4.576 1.20605 8.97599H10.2301V2Z" fill="#0859BF" stroke="black" stroke-opacity="0.2" stroke-width="2"/>
</g>
</g>
</svg>
