<svg width="40" height="34" viewBox="0 0 40 34" fill="none" xmlns="http://www.w3.org/2000/svg">
<path fill-rule="evenodd" clip-rule="evenodd" d="M20.0058 16.3434H18.9316V5.62939H20.0058V16.3434Z" fill="#0CB04A"/>
<path fill-rule="evenodd" clip-rule="evenodd" d="M11.9708 16.3434H10.8965V5.62939H11.9708V16.3434Z" fill="#0CB04A"/>
<path fill-rule="evenodd" clip-rule="evenodd" d="M28.0429 16.3434H26.9688V5.62939H28.0429V16.3434Z" fill="#0CB04A"/>
<path fill-rule="evenodd" clip-rule="evenodd" d="M13.5379 4.80282C13.5379 5.96401 12.5964 6.90565 11.435 6.90565C10.2735 6.90565 9.33203 5.96401 9.33203 4.80282C9.33203 3.64127 11.435 0.871094 11.435 0.871094C11.435 0.871094 13.5379 3.64127 13.5379 4.80282Z" fill="#FBB713"/>
<path fill-rule="evenodd" clip-rule="evenodd" d="M29.6082 4.80282C29.6082 5.96401 28.6667 6.90565 27.5052 6.90565C26.3438 6.90565 25.4023 5.96401 25.4023 4.80282C25.4023 3.64127 27.5052 0.871094 27.5052 0.871094C27.5052 0.871094 29.6082 3.64127 29.6082 4.80282Z" fill="#FBB713"/>
<path fill-rule="evenodd" clip-rule="evenodd" d="M21.573 4.80282C21.573 5.96401 20.6316 6.90565 19.4702 6.90565C18.3088 6.90565 17.3672 5.96401 17.3672 4.80282C17.3672 3.64127 19.4702 0.871094 19.4702 0.871094C19.4702 0.871094 21.573 3.64127 21.573 4.80282Z" fill="#FBB713"/>
<path fill-rule="evenodd" clip-rule="evenodd" d="M36.4296 31.7001V23.5405C36.4296 18.7766 33.4714 14.915 29.8224 14.915H10.1795C6.53043 14.915 3.57227 18.7766 3.57227 23.5405V31.7001H36.4296Z" fill="#FF3A2F"/>
<path fill-rule="evenodd" clip-rule="evenodd" d="M5.77989 24.1482C5.41188 24.1482 5.11328 23.8498 5.11328 23.4816C5.11328 19.5573 7.62883 16.3647 10.721 16.3647C11.0892 16.3647 11.3878 16.6633 11.3878 17.0314C11.3878 17.3994 11.0892 17.698 10.721 17.698C8.36429 17.698 6.44668 20.2926 6.44668 23.4816C6.44668 23.8498 6.14808 24.1482 5.77989 24.1482Z" fill="#EDEDED"/>
<path opacity="0.35" fill-rule="evenodd" clip-rule="evenodd" d="M29.8225 14.915H26.6083C30.2572 14.915 33.2153 18.7766 33.2153 23.5405V27.2052L3.57227 29.2L36.4296 31.7001V23.5405C36.4296 18.7766 33.4714 14.915 29.8225 14.915Z" fill="black"/>
<path fill-rule="evenodd" clip-rule="evenodd" d="M40 33.1287H0V29.2H40V33.1287Z" fill="#142A3B"/>
<path opacity="0.35" fill-rule="evenodd" clip-rule="evenodd" d="M36.7852 29.2V33.1287H39.9994V29.2H36.7852Z" fill="black"/>
</svg>
