<svg xmlns="http://www.w3.org/2000/svg" width="26" height="26" id="calender" fill="#fff"><path d="M13 0C5.826 0 0 5.826 0 13s5.826 13 13 13 13-5.826 13-13S20.174 0 13 0zm0 1c6.633 0 12 5.367 12 12s-5.367 12-12 12S1 19.633 1 13 6.367 1 13 1zM9.834 7a.334.334 0 0 0-.334.334V8H8a.5.5 0 0 0-.502.5v10A.5.5 0 0 0 8 19h10a.5.5 0 0 0 .5-.5v-10A.5.5 0 0 0 18 8h-1.5v-.666A.334.334 0 0 0 16.166 7h-.332a.334.334 0 0 0-.334.334V8h-5v-.666A.334.334 0 0 0 10.166 7h-.332zM8.5 9h9v1h-9V9zm0 2h9v7h-9v-7zm1 1v1h1v-1h-1zm2 0v1h1v-1h-1zm2 0v1h1v-1h-1zm2 0v1h1v-1h-1zm-6 2v1h1v-1h-1zm2 0v1h1v-1h-1zm2 0v1h1v-1h-1zm2 0v1h1v-1h-1zm-6 2v1h1v-1h-1zm2 0v1h1v-1h-1zm2 0v1h1v-1h-1z" color="#000" font-family="sans-serif" font-weight="400" overflow="visible" transform="translate(0 .002)" style="line-height:normal;text-indent:0;text-align:start;text-decoration-line:none;text-decoration-style:solid;text-decoration-color:#000;text-transform:none;block-progression:tb;isolation:auto;mix-blend-mode:normal;marker:none"></path></svg>