<?xml version="1.0" encoding="utf-8"?>
<!-- Uploaded to: SVG Repo, www.svgrepo.com, Generator: SVG Repo Mixer Tools -->
<svg width="800px" height="800px" viewBox="0 0 1024 1024" class="icon"  version="1.1" xmlns="http://www.w3.org/2000/svg"><path d="M512 128.042667c-185.557333 0-340.757333 132.288-376.32 307.498666l102.933333-43.349333c46.272-105.152 151.317333-178.816 273.386667-178.816 164.693333 0 298.666667 133.952 298.666667 298.666667 0 164.672-133.973333 298.666667-298.666667 298.666666-122.069333 0-227.114667-73.706667-273.386667-178.88L135.68 588.501333C171.242667 763.712 326.442667 896.042667 512 896.042667c211.754667 0 384-172.288 384-384 0-211.754667-172.245333-384-384-384z" fill="#64B5F6" /><path d="M512 106.666667v128M512 789.333333v128M789.333333 512h128" fill="none" /><path d="M64 512.042667L469.333333 341.333333l-106.666666 170.666667 106.666666 170.666667z" fill="#FF3D00" /></svg>