
<svg id="SvgjsSvg1001" width="288" height="288" xmlns="http://www.w3.org/2000/svg" version="1.1" xmlns:xlink="http://www.w3.org/1999/xlink" xmlns:svgjs="http://svgjs.com/svgjs"><defs id="SvgjsDefs1002"></defs><g id="SvgjsG1008"><svg xmlns="http://www.w3.org/2000/svg" color="red" viewBox="0 0 24 24" width="288" height="288"><path d="M12,0A12,12,0,1,0,24,12,12.013,12.013,0,0,0,12,0Zm0,22A10,10,0,1,1,22,12,10.011,10.011,0,0,1,12,22Z" fill="#e41212" class="color000 svgShape"></path><path d="M12,5a1,1,0,0,0-1,1v8a1,1,0,0,0,2,0V6A1,1,0,0,0,12,5Z" fill="#e41212" class="color000 svgShape"></path><rect width="2" height="2" x="11" y="17" rx="1" fill="#e41212" class="color000 svgShape"></rect></svg></g></svg>