<svg xmlns="http://www.w3.org/2000/svg" width="100" height="100" id="neon" fill="#fff"><path d="M49.681 95.985c25.352 0 45.977-20.625 45.977-45.978S75.032 4.03 49.681 4.03c-25.353 0-45.979 20.625-45.979 45.978s20.626 45.977 45.979 45.977zm0-89.955c24.249 0 43.977 19.728 43.977 43.978S73.93 93.985 49.681 93.985c-24.25 0-43.979-19.728-43.979-43.978S25.431 6.03 49.681 6.03z"></path><path d="M41.476 45.4h8.029a3.773 3.773 0 0 0 3.775-3.762c0-2.072-1.693-3.758-3.775-3.758h-8.029a3.77 3.77 0 0 0-3.772 3.758 3.77 3.77 0 0 0 3.772 3.762zm0-5.52h8.029c.979 0 1.775.789 1.775 1.758 0 .971-.797 1.762-1.775 1.762h-8.029a1.769 1.769 0 0 1-1.772-1.762 1.766 1.766 0 0 1 1.772-1.758zm0 22.021h16.315c2.074 0 3.762-1.681 3.762-3.746 0-2.066-1.688-3.748-3.762-3.748H41.476c-2.08 0-3.772 1.681-3.772 3.748-.001 2.066 1.692 3.746 3.772 3.746zm0-5.493h16.315c.972 0 1.762.784 1.762 1.748 0 .946-.807 1.746-1.762 1.746H41.476c-.961 0-1.772-.8-1.772-1.746-.001-.964.794-1.748 1.772-1.748z"></path><path d="M41.292 73.783h16.64c8.491 0 15.438-6.913 15.485-15.408l.087-11.667a.982.982 0 0 0-.021-.209l-.131-.635a1.009 1.009 0 0 0-.079-.232l-.385-.798a.978.978 0 0 0-.288-.356l-.642-.497c-.604-.474-1.544-.519-3.153-.557-.936-.022-2.678-.064-3.038-.391-.488-.447-.635-1.542-.821-2.929l-.05-.369c-.397-3.068-.678-3.747-1.18-4.774l-.205-.43c-2.174-4.596-7.908-7.959-11.976-8.439a1.148 1.148 0 0 0-.117-.007H41.292c-8.538 0-15.484 6.926-15.484 15.438v16.844c0 8.5 6.946 15.416 15.484 15.416zm-13.484-32.26c0-7.41 6.049-13.438 13.484-13.438h10.066c3.549.445 8.533 3.47 10.342 7.293.078.169.15.318.22.46.387.791.619 1.269.994 4.16l.051.371c.239 1.789.429 3.201 1.455 4.141.916.831 2.655.872 4.338.912.698.017 1.754.042 1.972.135l.46.356.229.475.084.41-.086 11.563c-.041 7.4-6.091 13.421-13.485 13.421h-16.64c-7.436 0-13.484-6.018-13.484-13.416V41.523z"></path></svg>