<?xml version="1.0" encoding="iso-8859-1"?>
<!-- Uploaded to: SVG Repo, www.svgrepo.com, Generator: SVG Repo Mixer Tools -->
<!DOCTYPE svg PUBLIC "-//W3C//DTD SVG 1.1//EN" "http://www.w3.org/Graphics/SVG/1.1/DTD/svg11.dtd">
<svg fill="#000000" version="1.1" id="Capa_1" xmlns="http://www.w3.org/2000/svg" xmlns:xlink="http://www.w3.org/1999/xlink" 
	 width="800px" height="800px" viewBox="0 0 83.818 83.818"
	 xml:space="preserve">
<g>
	<g>
		<circle cx="18.892" cy="41.305" r="1.9"/>
		<path d="M20.958,53.53h48.227V29.08H20.958l-9.125,12.225L20.958,53.53z M57.999,34.256c4.415,0,6.809,2.934,6.809,6.88
			c0,3.797-2.207,7.217-6.809,7.217c-4.822,0-6.805-3.142-6.805-7.217C51.194,37.19,53.587,34.256,57.999,34.256z M39.063,36.369
			c0-1.365,0.709-1.795,1.793-1.795h7.198c0.898,0,1.555,0.261,1.555,1.234s-0.655,1.233-1.555,1.233h-5.927v2.917h5.198
			c0.804,0,1.441,0.225,1.441,1.178c0,0.954-0.639,1.178-1.441,1.178h-5.198v3.252h6.077c0.896,0,1.553,0.264,1.553,1.234
			c0,0.973-0.656,1.233-1.553,1.233h-7.349c-1.084,0-1.793-0.431-1.793-1.793L39.063,36.369L39.063,36.369z M32.37,42.932
			l-3.459-0.881c-2.787-0.708-3.292-2.243-3.292-3.684c0-2.989,2.767-4.111,5.366-4.111c2.394,0,5.219,1.347,5.219,3.14
			c0,0.768-0.657,1.216-1.403,1.216c-1.422,0-1.159-1.999-4.021-1.999c-1.42,0-2.206,0.652-2.206,1.588
			c0,0.937,1.122,1.234,2.094,1.458l2.563,0.581c2.806,0.634,3.515,2.3,3.515,3.869c0,2.432-1.831,4.244-5.533,4.244
			c-3.891,0-5.629-1.944-5.629-3.401c0-0.749,0.542-1.271,1.29-1.271c1.664,0,1.234,2.431,4.339,2.431
			c1.589,0,2.468-0.88,2.468-1.778C33.679,43.792,33.417,43.191,32.37,42.932z M18.892,38.405c1.6,0,2.9,1.301,2.9,2.9
			s-1.301,2.9-2.9,2.9c-1.599,0-2.9-1.301-2.9-2.9S17.292,38.405,18.892,38.405z"/>
		<path d="M57.999,45.885c2.787,0,3.74-2.168,3.74-4.749c0-2.581-1.234-4.411-3.74-4.411c-2.504,0-3.738,1.83-3.738,4.411
			C54.261,43.717,55.121,45.885,57.999,45.885z"/>
		<path d="M41.909,0C18.764,0,0.001,18.764,0.001,41.91c0,23.145,18.764,41.908,41.908,41.908c23.146,0,41.909-18.764,41.909-41.908
			C83.817,18.764,65.056,0,41.909,0z M70.185,54.53H20.456l-9.871-13.225l9.871-13.225h49.729V54.53z"/>
	</g>
</g>
</svg>