<svg xmlns="http://www.w3.org/2000/svg" xmlns:xlink="http://www.w3.org/1999/xlink" width="1080" zoomAndPan="magnify" viewBox="0 0 810 809.999993" height="1080" preserveAspectRatio="xMidYMid meet" version="1.0"><defs><clipPath id="5849df370b"><path d="M 72.585938 76.792969 L 729 76.792969 L 729 733.207031 L 72.585938 733.207031 Z M 72.585938 76.792969 " clip-rule="nonzero"/></clipPath><clipPath id="bc9c634025"><path d="M 400.792969 76.792969 C 219.527344 76.792969 72.585938 223.734375 72.585938 405 C 72.585938 586.265625 219.527344 733.207031 400.792969 733.207031 C 582.054688 733.207031 729 586.265625 729 405 C 729 223.734375 582.054688 76.792969 400.792969 76.792969 " clip-rule="nonzero"/></clipPath><clipPath id="c1a5b97ae2"><path d="M 367 317 L 664.636719 317 L 664.636719 533 L 367 533 Z M 367 317 " clip-rule="nonzero"/></clipPath><clipPath id="9a27c17d77"><path d="M 145.636719 332 L 371 332 L 371 486 L 145.636719 486 Z M 145.636719 332 " clip-rule="nonzero"/></clipPath><clipPath id="c6c039d884"><path d="M 368 276.613281 L 582 276.613281 L 582 453 L 368 453 Z M 368 276.613281 " clip-rule="nonzero"/></clipPath></defs><g clip-path="url(#5849df370b)"><g clip-path="url(#bc9c634025)"><path fill="#ffc700" d="M 72.585938 76.792969 L 729 76.792969 L 729 733.207031 L 72.585938 733.207031 Z M 72.585938 76.792969 " fill-opacity="1" fill-rule="nonzero"/></g></g><g clip-path="url(#c1a5b97ae2)"><path fill="#000c11" d="M 377.320312 364.867188 C 374.816406 369.660156 372.460938 375.402344 371.039062 380.167969 C 370.429688 382.203125 369.730469 384.828125 369.449219 386.09375 C 367.789062 393.628906 367.152344 399.769531 367.234375 407.335938 C 367.269531 410.191406 367.636719 414.921875 368.066406 418.007812 C 368.882812 423.867188 370.550781 430.609375 372.496094 435.929688 C 375.699219 444.679688 379.960938 452.5 385.40625 459.628906 C 391.546875 467.667969 398.621094 474.230469 407.441406 480.050781 C 409.03125 481.101562 414.300781 484.117188 415.949219 484.929688 C 423.535156 488.640625 430.269531 490.953125 438.046875 492.523438 C 448.21875 494.582031 458.582031 494.824219 468.988281 493.234375 C 475.746094 492.210938 483.183594 490.140625 489.40625 487.558594 C 495.316406 485.109375 500.148438 482.519531 505.371094 479 C 511.0625 475.160156 516.105469 470.839844 520.75 465.8125 C 523.738281 462.582031 526.707031 458.828125 529.058594 455.300781 L 529.476562 454.675781 L 534.902344 457.785156 L 540.335938 460.898438 L 539.386719 462.546875 C 538.664062 463.804688 538.414062 464.300781 538.320312 464.628906 C 537.898438 466.128906 538.285156 467.792969 539.320312 468.957031 C 539.726562 469.417969 539.746094 469.429688 541.800781 470.632812 C 542.9375 471.300781 567.640625 485.503906 596.6875 502.207031 C 642.925781 528.777344 649.574219 532.585938 650.011719 532.726562 C 650.628906 532.929688 651.675781 533.003906 652.289062 532.878906 C 652.875 532.765625 653.554688 532.472656 654.085938 532.097656 C 654.960938 531.488281 654.78125 531.773438 659.828125 522.953125 L 664.425781 514.910156 L 664.507812 514.386719 C 664.625 513.605469 664.585938 512.972656 664.378906 512.257812 C 664.167969 511.542969 663.929688 511.085938 663.445312 510.492188 L 663.113281 510.089844 L 652.839844 504.140625 C 647.179688 500.871094 622.351562 486.597656 597.648438 472.421875 L 552.742188 446.648438 L 552.234375 446.550781 C 550.792969 446.277344 549.382812 446.660156 548.25 447.613281 C 547.820312 447.972656 547.78125 448.023438 546.761719 449.75 L 545.710938 451.519531 L 545.164062 451.144531 C 544.851562 450.941406 542.417969 449.523438 539.757812 447.996094 L 534.921875 445.222656 L 535.496094 444.042969 C 536.167969 442.683594 536.917969 440.980469 537.785156 438.835938 C 538.382812 437.371094 538.539062 436.949219 539.277344 434.851562 C 541.351562 428.964844 542.878906 422.160156 543.589844 415.660156 C 543.765625 414.097656 544.039062 410.132812 544.070312 408.800781 C 544.109375 407.242188 544.109375 406.734375 544.109375 405.765625 C 544.035156 391.6875 540.613281 377.777344 534.171875 365.308594 C 531.632812 360.402344 528.574219 355.644531 525.167969 351.304688 C 519.710938 344.363281 513.160156 338.222656 505.933594 333.253906 C 501.9375 330.515625 497.515625 327.980469 493.199219 325.960938 C 477.386719 318.554688 459.664062 316.023438 442.324219 318.699219 C 431.800781 320.324219 421.613281 323.820312 412.441406 328.941406 C 404.898438 333.152344 398.546875 338 392.308594 344.289062 C 390.929688 345.679688 388.777344 348.089844 387.292969 349.898438 C 386.308594 351.09375 385.855469 351.679688 384.398438 353.589844 C 382.457031 356.140625 379.023438 361.605469 377.320312 364.867188 Z M 401.460938 369.105469 C 405.433594 363.320312 409.820312 358.625 415.226562 354.375 C 421.621094 349.347656 428.839844 345.597656 436.683594 343.21875 C 438.160156 342.777344 438.246094 342.746094 439.890625 342.347656 C 443.867188 341.375 447.285156 340.84375 451.359375 340.570312 C 462.191406 339.859375 472.972656 341.851562 482.960938 346.425781 C 485.777344 347.710938 489.996094 350.070312 492.269531 351.621094 C 498.882812 356.140625 504 361.019531 508.535156 367.128906 C 516.210938 377.472656 520.71875 390.226562 521.253906 403.113281 C 521.726562 414.222656 519.375 425.160156 514.378906 435.148438 C 513.6875 436.527344 511.355469 440.601562 510.601562 441.730469 C 509.402344 443.542969 508.152344 445.296875 507.292969 446.375 C 507.050781 446.679688 506.636719 447.191406 506.386719 447.511719 C 503.082031 451.640625 498.234375 456.167969 493.617188 459.433594 C 490.914062 461.351562 488.378906 462.878906 485.3125 464.433594 C 468.792969 472.847656 449.261719 473.789062 431.914062 467.007812 C 428.554688 465.691406 426.757812 464.816406 423.007812 462.667969 C 419.332031 460.558594 417.925781 459.625 415.0625 457.390625 C 402.03125 447.21875 393.34375 432.394531 390.796875 416 C 389.753906 409.261719 389.777344 402.386719 390.867188 395.609375 C 391.886719 389.28125 393.957031 382.839844 396.769531 377.207031 C 397.117188 376.511719 397.484375 375.789062 397.582031 375.589844 C 398.046875 374.640625 400.699219 370.222656 401.460938 369.105469 Z M 401.460938 369.105469 " fill-opacity="1" fill-rule="nonzero"/></g><g clip-path="url(#9a27c17d77)"><path fill="#000000" d="M 194.746094 332.480469 C 189.769531 332.597656 188.09375 332.742188 187.082031 333.144531 C 186.386719 333.40625 184.882812 333.75 183.753906 333.925781 C 182.65625 334.070312 181.007812 334.414062 180.140625 334.648438 C 176.4375 335.714844 171.867188 337.214844 171.316406 337.535156 C 171 337.738281 169.898438 338.226562 168.886719 338.660156 C 167.875 339.066406 166.71875 339.640625 166.285156 339.929688 C 165.878906 340.21875 164.40625 341.203125 163.046875 342.097656 C 157.144531 345.910156 151.476562 352.78125 149.191406 358.875 C 148.84375 359.828125 148.378906 361.011719 148.148438 361.503906 C 147.945312 362.023438 147.6875 362.917969 147.570312 363.523438 C 147.484375 364.160156 147.136719 365.546875 146.847656 366.671875 C 146.125 369.503906 145.632812 377.992188 146.007812 381.890625 C 146.5 386.917969 146.820312 389.226562 147.28125 390.382812 C 147.511719 391.015625 148.035156 392.632812 148.4375 393.992188 C 149.539062 397.660156 153.585938 404.070312 156.246094 406.351562 C 156.535156 406.609375 157.519531 407.449219 158.417969 408.199219 C 161.484375 410.855469 167.355469 414.351562 170.882812 415.621094 C 171.925781 415.996094 173.023438 416.457031 173.34375 416.660156 C 173.660156 416.863281 174.441406 417.152344 175.078125 417.324219 C 175.714844 417.46875 177.160156 417.902344 178.257812 418.25 C 182.65625 419.605469 195.46875 422.582031 199.953125 423.300781 C 200.589844 423.390625 201.949219 423.707031 202.988281 423.996094 C 204.03125 424.3125 206.316406 424.804688 208.050781 425.152344 C 209.816406 425.496094 211.753906 426.015625 212.390625 426.304688 C 213.027344 426.625 214.210938 427 214.992188 427.171875 C 216.960938 427.605469 221.386719 429.769531 222.859375 431.042969 C 224.539062 432.515625 225.925781 434.476562 226.878906 436.847656 C 227.632812 438.695312 227.71875 439.1875 227.71875 442.332031 C 227.71875 445.480469 227.632812 445.972656 226.878906 447.878906 C 224.769531 453.105469 220.054688 456.6875 213.113281 458.359375 C 212.5625 458.476562 210.800781 458.824219 209.207031 459.140625 C 204.03125 460.09375 191.015625 459.746094 184.910156 458.503906 C 183.8125 458.304688 182.308594 458.015625 181.585938 457.925781 C 180.863281 457.8125 179.445312 457.496094 178.402344 457.207031 C 177.363281 456.886719 175.367188 456.367188 173.921875 456.019531 C 172.503906 455.675781 170.710938 455.070312 169.957031 454.691406 C 169.207031 454.347656 168.394531 454.027344 168.195312 454.027344 C 167.558594 454.027344 163.363281 452.644531 162.929688 452.296875 C 162.726562 452.152344 161.742188 451.746094 160.730469 451.402344 C 158.820312 450.792969 158.417969 450.621094 152.457031 447.820312 C 150.230469 446.75 148.757812 446.230469 148.4375 446.347656 C 147.976562 446.519531 147.945312 447.011719 148.121094 453.25 C 148.234375 456.945312 148.324219 463.472656 148.324219 467.804688 C 148.324219 476.84375 148.207031 476.46875 151.214844 477.304688 C 152.082031 477.535156 153.269531 477.941406 153.816406 478.140625 C 154.367188 478.371094 155.351562 478.691406 155.988281 478.863281 C 156.625 479.007812 158.128906 479.414062 159.3125 479.757812 C 160.5 480.078125 162.265625 480.539062 163.21875 480.769531 C 164.171875 481 165.792969 481.433594 166.835938 481.753906 C 167.875 482.070312 169.554688 482.472656 170.59375 482.617188 C 171.636719 482.792969 172.996094 483.050781 173.632812 483.195312 C 174.269531 483.339844 175.25 483.484375 175.800781 483.484375 C 176.351562 483.484375 177.738281 483.832031 178.835938 484.207031 C 180.3125 484.726562 181.46875 484.929688 183.089844 484.929688 C 184.304688 484.929688 186.90625 485.128906 188.875 485.390625 C 191.882812 485.792969 194.457031 485.851562 205.304688 485.707031 C 216.785156 485.5625 218.433594 485.476562 220.488281 484.988281 C 221.761719 484.667969 223.582031 484.320312 224.539062 484.234375 C 225.492188 484.121094 226.996094 483.832031 227.863281 483.570312 C 228.730469 483.3125 230.179688 482.9375 231.046875 482.734375 C 235.585938 481.664062 242.238281 478.71875 246.519531 475.832031 C 249.355469 473.953125 253.894531 469.421875 255.863281 466.476562 C 258.496094 462.578125 261.417969 456.023438 261.417969 454 C 261.417969 453.625 261.734375 452.730469 262.082031 452.007812 C 262.457031 451.285156 262.949219 450.101562 263.152344 449.320312 C 263.585938 447.675781 263.933594 447.386719 264.28125 448.339844 C 264.425781 448.746094 264.65625 456.367188 264.773438 465.292969 C 264.945312 478.285156 265.0625 481.578125 265.378906 481.894531 C 265.667969 482.214844 267.492188 482.273438 274.808594 482.15625 C 279.753906 482.097656 293.203125 481.894531 304.65625 481.753906 C 316.113281 481.578125 329.1875 481.40625 333.726562 481.320312 C 338.269531 481.230469 348.160156 481.085938 355.738281 481 C 363.316406 480.886719 369.679688 480.710938 369.882812 480.597656 C 370.171875 480.421875 370.171875 477.621094 369.941406 467.199219 C 369.765625 459.949219 369.535156 453.882812 369.417969 453.710938 C 369.246094 453.421875 362.246094 453.453125 339.945312 453.882812 C 335.984375 453.972656 326.089844 454.117188 317.964844 454.203125 C 303.242188 454.375 303.210938 454.375 302.429688 453.769531 C 301.9375 453.363281 301.621094 452.789062 301.503906 452.066406 C 301.417969 451.488281 301.332031 443.894531 301.273438 435.199219 L 301.1875 419.402344 L 301.851562 418.738281 L 302.519531 418.074219 L 323.257812 417.84375 C 334.652344 417.730469 348.21875 417.527344 353.394531 417.410156 L 362.796875 417.210938 L 362.882812 403.953125 C 362.941406 393.875 362.855469 390.613281 362.59375 390.292969 C 362.304688 389.917969 361.464844 389.890625 357.445312 390.035156 C 354.8125 390.121094 345.007812 390.265625 335.605469 390.351562 C 326.234375 390.4375 315.042969 390.582031 310.730469 390.671875 C 302.632812 390.84375 301.648438 390.757812 301.070312 389.6875 C 300.667969 388.9375 300.492188 384.203125 300.433594 372.332031 L 300.378906 362.398438 L 301.160156 361.707031 C 301.882812 361.097656 302.199219 361.042969 305.46875 361.042969 C 307.40625 361.042969 311.65625 360.953125 314.925781 360.898438 C 318.195312 360.808594 330.863281 360.609375 343.128906 360.464844 C 361.117188 360.234375 365.457031 360.089844 365.773438 359.769531 C 366.09375 359.453125 366.121094 357.085938 365.949219 346.199219 C 365.773438 334.503906 365.6875 332.972656 365.285156 332.796875 C 365.023438 332.683594 360.714844 332.652344 355.710938 332.769531 C 350.707031 332.855469 334.421875 333.117188 319.554688 333.289062 C 265.234375 333.953125 263.789062 334.011719 263.324219 334.472656 C 262.976562 334.847656 262.949219 337.101562 263.152344 350.933594 C 263.414062 368.085938 264.078125 416.949219 264.105469 421.972656 C 264.164062 426.710938 263.558594 428.585938 262.832031 425.929688 C 262.660156 425.265625 262.285156 424.457031 261.996094 424.140625 C 261.675781 423.824219 261.070312 422.378906 260.578125 420.964844 C 258.003906 413.078125 252.304688 406.988281 243.050781 402.25 C 241.3125 401.355469 238.972656 400.285156 237.84375 399.855469 C 236.742188 399.449219 235.644531 398.988281 235.441406 398.8125 C 235.238281 398.640625 234.371094 398.324219 233.503906 398.09375 C 232.636719 397.890625 231.21875 397.542969 230.378906 397.3125 C 229.542969 397.109375 228.472656 396.734375 228.007812 396.503906 C 227.515625 396.242188 226.300781 395.898438 225.261719 395.722656 C 221.386719 395.089844 218.523438 394.539062 217.074219 394.136719 C 216.238281 393.90625 214.789062 393.617188 213.835938 393.527344 C 212.882812 393.414062 211.378906 393.152344 210.507812 392.953125 C 209.640625 392.75 208.339844 392.488281 207.617188 392.402344 C 205.304688 392.085938 196.597656 390.207031 193.300781 389.3125 C 191.390625 388.792969 189.65625 388.101562 186.359375 386.597656 C 184.421875 385.703125 181.730469 383.21875 180.863281 381.542969 C 180.484375 380.792969 179.996094 379.089844 179.761719 377.761719 C 179.417969 375.710938 179.417969 374.929688 179.707031 372.738281 C 180.140625 369.675781 180.660156 368.347656 182.164062 366.355469 C 184.855469 362.773438 190.347656 360.234375 197.203125 359.394531 C 206.519531 358.269531 209.121094 358.183594 213.257812 358.875 C 214.703125 359.105469 216.785156 359.308594 217.886719 359.308594 C 219.011719 359.308594 220.691406 359.453125 221.644531 359.625 C 222.601562 359.769531 224.507812 360.089844 225.867188 360.320312 C 227.257812 360.519531 228.644531 360.839844 228.992188 361.011719 C 229.308594 361.214844 230.523438 361.53125 231.683594 361.734375 C 234.574219 362.28125 240.648438 364.015625 243.917969 365.257812 C 245.046875 365.660156 246.605469 366.238281 247.386719 366.527344 C 248.199219 366.816406 249.585938 367.367188 250.484375 367.769531 C 252.074219 368.464844 252.160156 368.492188 252.421875 368 C 252.59375 367.683594 252.652344 362.195312 252.535156 353.417969 C 252.390625 341.144531 252.304688 339.265625 251.898438 338.777344 C 251.582031 338.371094 250.832031 338.140625 249.355469 337.96875 C 248.226562 337.824219 247.128906 337.621094 246.953125 337.503906 C 246.78125 337.390625 245.710938 337.1875 244.613281 337.042969 C 243.511719 336.898438 242.269531 336.609375 241.835938 336.378906 C 241.371094 336.148438 240.242188 335.886719 239.289062 335.800781 C 238.335938 335.6875 236.453125 335.425781 235.09375 335.195312 C 220.140625 332.683594 210.828125 332.046875 194.746094 332.480469 Z M 194.746094 332.480469 " fill-opacity="1" fill-rule="nonzero"/></g><g clip-path="url(#c6c039d884)"><path fill="#000000" d="M 578.152344 276.742188 C 575.910156 276.742188 566.582031 280.601562 535.476562 293.957031 C 512.019531 304.050781 493.238281 312.539062 493.832031 312.792969 C 494.425781 313.046875 503.265625 314.40625 513.546875 315.675781 C 523.832031 316.949219 532.332031 318.136719 532.5 318.222656 C 532.640625 318.363281 527.523438 328.59375 519.332031 344.617188 C 516.03125 351.070312 512.234375 358.46875 508.078125 366.523438 C 508.078125 366.527344 508.082031 366.527344 508.082031 366.53125 L 508.078125 366.53125 C 503.820312 374.78125 499.191406 383.726562 494.339844 393.058594 L 486.777344 407.570312 L 453.039062 384.492188 L 419.382812 361.410156 L 411.140625 371.167969 C 404.28125 379.421875 397.195312 388.019531 390.835938 395.789062 C 390.832031 395.789062 390.832031 395.792969 390.832031 395.792969 L 390.828125 395.792969 C 379.074219 410.148438 369.785156 421.679688 368.917969 423 C 368.863281 423.085938 368.84375 423.128906 368.855469 423.128906 C 368.863281 423.128906 368.878906 423.117188 368.902344 423.09375 C 368.914062 423.089844 368.925781 423.082031 368.933594 423.074219 C 368.933594 423.074219 368.933594 423.070312 368.933594 423.070312 L 368.9375 423.070312 C 369.28125 422.816406 369.539062 422.652344 369.738281 422.652344 C 370.304688 422.652344 370.347656 424.007812 370.347656 428.441406 L 370.347656 429.085938 C 371 431.496094 371.726562 433.824219 372.496094 435.929688 C 372.855469 436.90625 373.226562 437.871094 373.609375 438.828125 L 390.320312 419.363281 C 390.613281 419.019531 390.90625 418.679688 391.199219 418.339844 C 391.199219 418.335938 391.199219 418.335938 391.199219 418.335938 L 391.203125 418.335938 C 406.277344 400.816406 418.710938 386.609375 419.128906 386.609375 C 419.132812 386.609375 419.136719 386.609375 419.144531 386.609375 C 419.648438 386.609375 424.195312 390.652344 429.328125 395.691406 C 471.871094 436.917969 488.882812 452.984375 490.121094 452.984375 C 490.144531 452.984375 490.164062 452.976562 490.175781 452.964844 C 490.703125 452.4375 501.78125 433.019531 520.945312 399.007812 C 520.945312 399.003906 520.945312 399.003906 520.945312 399 L 520.949219 399 C 525.738281 390.503906 531.03125 381.09375 536.789062 370.84375 C 536.789062 370.84375 536.789062 370.839844 536.785156 370.839844 L 536.792969 370.839844 C 537.8125 369.023438 538.84375 367.183594 539.894531 365.316406 C 548.648438 349.703125 556.296875 336.382812 556.804688 335.785156 C 556.875 335.714844 556.964844 335.679688 557.074219 335.679688 C 558.144531 335.679688 561.230469 339.289062 569.640625 350.382812 C 576.105469 358.847656 581.492188 365.742188 581.785156 365.742188 C 581.789062 365.742188 581.789062 365.742188 581.792969 365.738281 C 582.21875 365.398438 579.242188 278.257812 578.734375 276.984375 C 578.667969 276.832031 578.492188 276.742188 578.152344 276.742188 Z M 578.152344 276.742188 " fill-opacity="1" fill-rule="nonzero"/></g></svg>