<!DOCTYPE svg PUBLIC "-//W3C//DTD SVG 1.1//EN" "http://www.w3.org/Graphics/SVG/1.1/DTD/svg11.dtd">
<!-- Uploaded to: SVG Repo, www.svgrepo.com, Transformed by: SVG Repo Mixer Tools -->
<svg fill="#5F2710" height="800px" width="800px" version="1.1" xmlns="http://www.w3.org/2000/svg" viewBox="0 0 512 512" xmlns:xlink="http://www.w3.org/1999/xlink" enable-background="new 0 0 512 512" stroke="#5F2710">
<g id="SVGRepo_bgCarrier" stroke-width="0"/>
<g id="SVGRepo_tracerCarrier" stroke-linecap="round" stroke-linejoin="round"/>
<g id="SVGRepo_iconCarrier"> <g> <g> <circle cx="147.2" cy="147.2" r="21"/> <path d="m495,268.7l-251.7-251.7c-5.3-5.3-13.2-7.3-20.4-5.1l-151.5,46c-6.5,2-11.6,7.1-13.6,13.6l-46,151.4c-2.2,7.2-0.2,15 5.1,20.4l251.8,251.7c12.7,11.3 25,3.8 28.9,0l197.4-197.4c8-8 8-20.9 0-28.9zm-211.9,183l-228.6-228.6 39.3-129.3 129.3-39.3 228.6,228.6-168.6,168.6z"/> <path d="m200,166.1c-9.8,9.8-8.6,22.6-1.3,38 5.8,13 5.8,20.4-0.7,26.9-7,7-17.2,6.5-26.3-2.7-6.2-6.2-10-14.1-11.5-20.6l-9.8,5.2c1.2,6.2 6.6,15.4 13.3,22.1 16.4,16.4 33.6,15 44.3,4.3 10.2-10.2 9.9-21.8 2.7-38.1-5.9-13.3-6.9-20.7-0.4-27.2 4.7-4.7 14-6.8 23.5,2.7 6.3,6.3 8.9,13 9.9,16.5l9.8-4.8c-1.3-4.8-4.8-11.6-11.9-18.7-13.8-13.5-30.8-14.4-41.6-3.6z"/> <polygon points="240.2,309.5 247.7,302 217.7,272 242.7,247 269.6,273.9 277,266.5 250.1,239.6 272,217.7 300.5,246.2 308,238.6 270.5,201.2 201.2,270.5 "/> <path d="m277.8,349.4c17.7,17.7 44.9,19.6 68.7-4.3 20.6-20.6 22.8-47.3 3.9-66.3-18.5-18.5-46.6-17.8-68.6,4.2-21,21-22.3,48.1-4,66.4zm64.9-63.7c14.9,14.9 7.7,36.5-6.1,50.3-15.7,15.7-36.8,20.8-51,6.6-14.1-14.1-8.9-35.4 6-50.2 15.2-15.2 36.3-21.5 51.1-6.7z"/> </g> </g> </g>
</svg>