<?xml version="1.0" encoding="UTF-8" standalone="no" ?>
<!DOCTYPE svg PUBLIC "-//W3C//DTD SVG 1.1//EN" "http://www.w3.org/Graphics/SVG/1.1/DTD/svg11.dtd">
<svg xmlns="http://www.w3.org/2000/svg" xmlns:xlink="http://www.w3.org/1999/xlink" version="1.1" width="1080" height="1080" viewBox="0 0 1080 1080" xml:space="preserve">
<desc>Created with Fabric.js 5.2.4</desc>
<defs>
</defs>
<g transform="matrix(1 0 0 1 540 540)" id="aa555de6-8dcc-4840-a5aa-326882e37357"  >
<rect style="stroke: none; stroke-width: 1; stroke-dasharray: none; stroke-linecap: butt; stroke-dashoffset: 0; stroke-linejoin: miter; stroke-miterlimit: 4; fill: rgb(255,255,255); fill-rule: nonzero; opacity: 1; visibility: hidden;" vector-effect="non-scaling-stroke"  x="-540" y="-540" rx="0" ry="0" width="1080" height="1080" />
</g>
<g transform="matrix(1 0 0 1 540 540)" id="db48b216-d65d-4be1-a75c-792ca44c5795"  >
</g>
<g transform="matrix(1.33 0 0 1.33 520.34 529.84)"  >
<path style="stroke: none; stroke-width: 1; stroke-dasharray: none; stroke-linecap: butt; stroke-dashoffset: 0; stroke-linejoin: miter; stroke-miterlimit: 4; fill: rgb(252,206,26); fill-rule: nonzero; opacity: 1;" vector-effect="non-scaling-stroke"  transform=" translate(-406.02, -417.36)" d="M 572.523438 395.769531 C 572.523438 302.96875 496.734375 227.726562 403.667969 229.121094 C 314.226562 230.234375 241.226562 302.96875 239.554688 392.421875 C 238.4375 452.058594 268.53125 504.730469 314.785156 535.105469 C 326.488281 542.910156 333.730469 556.007812 333.730469 570.21875 L 333.730469 589.449219 C 333.730469 598.367188 340.976562 605.609375 349.613281 605.609375 L 462.460938 605.609375 C 471.378906 605.609375 478.34375 598.367188 478.34375 589.449219 L 478.34375 570.21875 C 478.34375 556.007812 485.589844 542.628906 497.570312 534.828125 C 542.707031 505.007812 572.523438 453.734375 572.523438 395.769531 Z M 572.523438 395.769531" stroke-linecap="round" />
</g>
<g transform="matrix(1.33 0 0 1.33 498.24 507.56)"  >
<path style="stroke: none; stroke-width: 1; stroke-dasharray: none; stroke-linecap: butt; stroke-dashoffset: 0; stroke-linejoin: miter; stroke-miterlimit: 4; fill: rgb(35,31,32); fill-rule: nonzero; opacity: 1;" vector-effect="non-scaling-stroke"  transform=" translate(-389.45, -400.64)" d="M 389.460938 218.808594 C 388.625 218.808594 388.066406 218.808594 387.230469 218.808594 C 301.6875 219.921875 230.914062 290.429688 229.242188 375.980469 C 228.128906 431.4375 255.15625 482.714844 301.6875 513.371094 C 315.0625 522.285156 323.421875 537.335938 323.421875 553.777344 L 323.421875 573.007812 C 323.421875 578.300781 327.601562 582.761719 333.175781 582.761719 L 445.742188 582.761719 C 451.316406 582.761719 455.496094 578.300781 455.496094 573.007812 L 455.496094 553.777344 C 455.496094 537.335938 463.855469 522.285156 477.785156 513.089844 C 522.925781 483.273438 549.953125 433.109375 549.953125 379.046875 C 549.953125 335.851562 532.957031 295.164062 502.027344 264.789062 C 471.933594 234.972656 431.8125 218.808594 389.460938 218.808594 Z M 445.742188 595.023438 L 333.175781 595.023438 C 320.914062 595.023438 310.882812 585.269531 310.882812 573.007812 L 310.882812 553.777344 C 310.882812 541.515625 304.753906 530.367188 294.722656 523.679688 C 244.570312 490.796875 215.589844 435.617188 216.707031 375.703125 C 217.542969 330.835938 235.652344 288.476562 267.695312 256.707031 C 299.738281 224.9375 342.089844 206.824219 386.953125 206.269531 C 433.761719 205.710938 477.507812 223.265625 510.945312 256.152344 C 544.101562 288.757812 562.214844 332.507812 562.214844 379.046875 C 562.214844 437.289062 533.234375 491.355469 484.472656 523.402344 C 474.164062 530.367188 468.035156 541.515625 468.035156 553.777344 L 468.035156 573.007812 C 468.035156 585.269531 458.003906 595.023438 445.742188 595.023438 Z M 445.742188 595.023438" stroke-linecap="round" />
</g>
<g transform="matrix(1.33 0 0 1.33 520.51 827.67)"  >
<path style="stroke: none; stroke-width: 1; stroke-dasharray: none; stroke-linecap: butt; stroke-dashoffset: 0; stroke-linejoin: miter; stroke-miterlimit: 4; fill: rgb(65,64,66); fill-rule: nonzero; opacity: 1;" vector-effect="non-scaling-stroke"  transform=" translate(-406.15, -640.72)" d="M 344.597656 605.609375 C 339.582031 605.609375 335.683594 610.070312 336.519531 615.085938 C 340.976562 649.363281 370.511719 675.835938 406.175781 675.835938 C 441.5625 675.835938 471.097656 649.363281 475.835938 615.085938 C 476.394531 610.070312 472.492188 605.609375 467.476562 605.609375 Z M 344.597656 605.609375" stroke-linecap="round" />
</g>
<g transform="matrix(1.33 0 0 1.33 498.26 805.56)"  >
<path style="stroke: none; stroke-width: 1; stroke-dasharray: none; stroke-linecap: butt; stroke-dashoffset: 0; stroke-linejoin: miter; stroke-miterlimit: 4; fill: rgb(35,31,32); fill-rule: nonzero; opacity: 1;" vector-effect="non-scaling-stroke"  transform=" translate(-389.46, -624.14)" d="M 328.160156 595.023438 C 327.324219 595.023438 326.765625 595.578125 326.488281 595.859375 C 326.210938 596.136719 325.929688 596.695312 325.929688 597.53125 C 330.390625 629.296875 357.695312 652.984375 389.460938 652.984375 C 421.503906 652.984375 448.808594 629.296875 452.988281 597.53125 C 452.988281 596.695312 452.710938 596.136719 452.429688 595.859375 C 452.152344 595.578125 451.59375 595.023438 450.757812 595.023438 Z M 389.460938 665.527344 C 351.285156 665.527344 318.6875 637.101562 313.671875 599.203125 C 313.113281 595.023438 314.226562 590.839844 317.015625 587.777344 C 319.800781 584.433594 323.980469 582.757812 328.160156 582.757812 L 450.757812 582.757812 C 454.9375 582.757812 459.117188 584.433594 461.90625 587.777344 C 464.691406 590.839844 465.804688 595.023438 465.25 599.203125 C 460.234375 637.101562 427.632812 665.527344 389.460938 665.527344 Z M 389.460938 665.527344" stroke-linecap="round" />
</g>
<g transform="matrix(1.33 0 0 1.33 519.06 164.97)" clip-path="url(#CLIPPATH_3)"  >
<clipPath id="CLIPPATH_3" >
	<path transform="matrix(1 0 0 1 -0.06 0.38) translate(-405, -144.09)" id="ea2f1f2343" d="M 398 108.171875 L 412 108.171875 L 412 180 L 398 180 Z M 398 108.171875" stroke-linecap="round" />
</clipPath>
<path style="stroke: none; stroke-width: 1; stroke-dasharray: none; stroke-linecap: butt; stroke-dashoffset: 0; stroke-linejoin: miter; stroke-miterlimit: 4; fill: rgb(35,31,32); fill-rule: nonzero; opacity: 1;" vector-effect="non-scaling-stroke"  transform=" translate(-405.06, -143.7)" d="M 405.0625 179.234375 C 401.71875 179.234375 398.933594 176.449219 398.933594 173.105469 L 398.933594 114.304688 C 398.933594 110.960938 401.71875 108.171875 405.0625 108.171875 C 408.40625 108.171875 411.191406 110.960938 411.191406 114.304688 L 411.191406 173.105469 C 411.191406 176.449219 408.40625 179.234375 405.0625 179.234375 Z M 405.0625 179.234375" stroke-linecap="round" />
</g>
<g transform="matrix(1.33 0 0 1.33 611.22 181.11)"  >
<path style="stroke: none; stroke-width: 1; stroke-dasharray: none; stroke-linecap: butt; stroke-dashoffset: 0; stroke-linejoin: miter; stroke-miterlimit: 4; fill: rgb(35,31,32); fill-rule: nonzero; opacity: 1;" vector-effect="non-scaling-stroke"  transform=" translate(-474.18, -155.81)" d="M 464.96875 189.824219 C 464.414062 189.824219 463.855469 189.824219 463.019531 189.546875 C 459.953125 188.433594 458.003906 185.089844 459.117188 181.746094 L 477.507812 126.007812 C 478.621094 122.945312 482.246094 120.992188 485.308594 122.109375 C 488.652344 123.222656 490.324219 126.84375 489.210938 129.910156 L 471.097656 185.644531 C 470.265625 188.152344 467.757812 189.824219 464.96875 189.824219 Z M 464.96875 189.824219" stroke-linecap="round" />
</g>
<g transform="matrix(1.33 0 0 1.33 691.64 220.19)"  >
<path style="stroke: none; stroke-width: 1; stroke-dasharray: none; stroke-linecap: butt; stroke-dashoffset: 0; stroke-linejoin: miter; stroke-miterlimit: 4; fill: rgb(35,31,32); fill-rule: nonzero; opacity: 1;" vector-effect="non-scaling-stroke"  transform=" translate(-534.5, -185.12)" d="M 518.746094 216.023438 C 517.632812 216.023438 516.238281 215.464844 515.402344 214.90625 C 512.335938 212.957031 511.5 209.054688 513.453125 206.269531 L 545.214844 156.941406 C 547.167969 154.15625 550.789062 153.320312 553.855469 155.269531 C 556.640625 156.941406 557.476562 160.84375 555.527344 163.628906 L 524.039062 212.957031 C 522.648438 214.90625 520.695312 216.023438 518.746094 216.023438 Z M 518.746094 216.023438" stroke-linecap="round" />
</g>
<g transform="matrix(1.33 0 0 1.33 753.52 280.3)"  >
<path style="stroke: none; stroke-width: 1; stroke-dasharray: none; stroke-linecap: butt; stroke-dashoffset: 0; stroke-linejoin: miter; stroke-miterlimit: 4; fill: rgb(35,31,32); fill-rule: nonzero; opacity: 1;" vector-effect="non-scaling-stroke"  transform=" translate(-580.9, -230.2)" d="M 559.148438 256.152344 C 557.476562 256.152344 555.804688 255.316406 554.691406 253.921875 C 552.183594 251.414062 552.460938 247.511719 554.96875 245.28125 L 598.4375 205.988281 C 600.945312 203.480469 604.84375 203.761719 607.351562 206.269531 C 609.582031 208.777344 609.300781 212.675781 606.796875 215.183594 L 563.328125 254.480469 C 562.214844 255.59375 560.820312 256.152344 559.148438 256.152344 Z M 559.148438 256.152344" stroke-linecap="round" />
</g>
<g transform="matrix(1.33 0 0 1.33 797.77 346.57)"  >
<path style="stroke: none; stroke-width: 1; stroke-dasharray: none; stroke-linecap: butt; stroke-dashoffset: 0; stroke-linejoin: miter; stroke-miterlimit: 4; fill: rgb(35,31,32); fill-rule: nonzero; opacity: 1;" vector-effect="non-scaling-stroke"  transform=" translate(-614.09, -279.9)" d="M 587.847656 299.066406 C 585.617188 299.066406 583.390625 297.671875 582.273438 295.445312 C 580.601562 292.378906 581.996094 288.757812 585.0625 287.363281 L 637.722656 261.445312 C 640.789062 259.773438 644.410156 261.167969 646.082031 264.234375 C 647.476562 267.296875 646.082031 270.921875 643.015625 272.59375 L 590.632812 298.511719 C 589.796875 298.789062 588.683594 299.066406 587.847656 299.066406 Z M 587.847656 299.066406" stroke-linecap="round" />
</g>
<g transform="matrix(1.33 0 0 1.33 820.55 434.86)"  >
<path style="stroke: none; stroke-width: 1; stroke-dasharray: none; stroke-linecap: butt; stroke-dashoffset: 0; stroke-linejoin: miter; stroke-miterlimit: 4; fill: rgb(35,31,32); fill-rule: nonzero; opacity: 1;" vector-effect="non-scaling-stroke"  transform=" translate(-631.18, -346.12)" d="M 602.617188 358.425781 C 599.550781 358.425781 597.042969 356.472656 596.484375 353.410156 C 595.648438 350.066406 597.878906 346.722656 601.222656 346.164062 L 658.621094 333.902344 C 661.964844 333.34375 665.308594 335.296875 665.867188 338.917969 C 666.703125 342.261719 664.472656 345.328125 661.128906 346.164062 L 603.730469 358.148438 C 603.453125 358.425781 602.894531 358.425781 602.617188 358.425781 Z M 602.617188 358.425781" stroke-linecap="round" />
</g>
<g transform="matrix(1.33 0 0 1.33 325.13 234.27)"  >
<path style="stroke: none; stroke-width: 1; stroke-dasharray: none; stroke-linecap: butt; stroke-dashoffset: 0; stroke-linejoin: miter; stroke-miterlimit: 4; fill: rgb(252,206,26); fill-rule: nonzero; opacity: 1;" vector-effect="non-scaling-stroke"  transform=" translate(-259.62, -195.68)" d="M 259.617188 181.746094 C 252.09375 181.746094 245.960938 188.152344 245.960938 195.679688 C 245.960938 203.203125 252.09375 209.332031 259.617188 209.332031 C 267.136719 209.332031 273.269531 203.203125 273.269531 195.679688 C 273.269531 188.152344 267.136719 181.746094 259.617188 181.746094 Z M 259.617188 215.742188 C 248.46875 215.742188 239.554688 206.546875 239.554688 195.679688 C 239.554688 184.53125 248.46875 175.613281 259.617188 175.613281 C 270.761719 175.613281 279.675781 184.53125 279.675781 195.679688 C 279.675781 206.546875 270.761719 215.742188 259.617188 215.742188 Z M 259.617188 215.742188" stroke-linecap="round" />
</g>
<g transform="matrix(1.33 0 0 1.33 534.48 706.35)"  >
<path style="stroke: none; stroke-width: 1; stroke-dasharray: none; stroke-linecap: butt; stroke-dashoffset: 0; stroke-linejoin: miter; stroke-miterlimit: 4; fill: rgb(35,31,32); fill-rule: nonzero; opacity: 1;" vector-effect="non-scaling-stroke"  transform=" translate(-416.63, -549.74)" d="M 416.765625 542.074219 C 412.585938 542.074219 409.242188 545.417969 409.242188 549.597656 C 409.242188 553.777344 412.585938 557.121094 416.765625 557.121094 C 420.945312 557.121094 424.289062 553.777344 424.289062 549.597656 C 424.289062 545.417969 420.945312 542.074219 416.765625 542.074219 Z M 416.765625 563.53125 C 409.242188 563.53125 402.832031 557.121094 402.832031 549.597656 C 402.832031 542.074219 409.242188 535.941406 416.765625 535.941406 C 424.289062 535.941406 430.417969 542.074219 430.417969 549.597656 C 430.417969 557.121094 424.289062 563.53125 416.765625 563.53125 Z M 416.765625 563.53125" stroke-linecap="round" />
</g>
<g transform="matrix(1.33 0 0 1.33 298.2 805.56)"  >
<path style="stroke: none; stroke-width: 1; stroke-dasharray: none; stroke-linecap: butt; stroke-dashoffset: 0; stroke-linejoin: miter; stroke-miterlimit: 4; fill: rgb(35,31,32); fill-rule: nonzero; opacity: 1;" vector-effect="non-scaling-stroke"  transform=" translate(-239.41, -624.14)" d="M 239.554688 616.480469 C 235.375 616.480469 232.03125 619.824219 232.03125 624.003906 C 232.03125 628.183594 235.375 631.527344 239.554688 631.527344 C 243.734375 631.527344 247.078125 628.183594 247.078125 624.003906 C 247.078125 619.824219 243.734375 616.480469 239.554688 616.480469 Z M 239.554688 637.9375 C 231.75 637.9375 225.621094 631.808594 225.621094 624.003906 C 225.621094 616.480469 231.75 610.347656 239.554688 610.347656 C 247.078125 610.347656 253.207031 616.480469 253.207031 624.003906 C 253.207031 631.808594 247.078125 637.9375 239.554688 637.9375 Z M 239.554688 637.9375" stroke-linecap="round" />
</g>
<g transform="matrix(1.33 0 0 1.33 241.36 673.05)"  >
<path style="stroke: none; stroke-width: 1; stroke-dasharray: none; stroke-linecap: butt; stroke-dashoffset: 0; stroke-linejoin: miter; stroke-miterlimit: 4; fill: rgb(252,206,26); fill-rule: nonzero; opacity: 1;" vector-effect="non-scaling-stroke"  transform=" translate(-196.78, -524.76)" d="M 136.457031 537.058594 C 135.621094 537.058594 134.785156 536.5 134.230469 535.941406 C 133.113281 534.828125 133.113281 532.875 134.230469 531.484375 L 149.554688 516.433594 C 151.503906 514.484375 154.292969 514.484375 156.242188 516.433594 L 168.78125 528.976562 L 183.269531 514.484375 C 185.21875 512.8125 188.285156 512.8125 189.957031 514.484375 L 204.445312 528.976562 L 219.492188 513.925781 C 221.441406 511.976562 224.507812 511.976562 226.179688 513.925781 L 240.667969 528.417969 L 254.878906 514.207031 C 255.992188 513.089844 257.945312 513.089844 259.335938 514.207031 C 260.453125 515.597656 260.453125 517.550781 259.335938 518.664062 L 244.011719 533.710938 C 242.339844 535.664062 239.273438 535.664062 237.324219 533.710938 L 222.835938 519.222656 L 207.789062 534.546875 C 206.953125 535.386719 205.839844 535.941406 204.445312 535.941406 C 203.332031 535.941406 201.9375 535.386719 201.101562 534.546875 L 186.613281 520.058594 L 172.125 534.546875 C 171.289062 535.386719 170.171875 535.941406 168.78125 535.941406 C 167.664062 535.941406 166.273438 535.386719 165.4375 534.546875 L 152.898438 521.730469 L 138.6875 535.941406 C 138.128906 536.5 137.292969 537.058594 136.457031 537.058594 Z M 136.457031 537.058594" stroke-linecap="round" />
</g>
<g transform="matrix(1.33 0 0 1.33 638.83 587.55)"  >
<path style="stroke: none; stroke-width: 1; stroke-dasharray: none; stroke-linecap: butt; stroke-dashoffset: 0; stroke-linejoin: miter; stroke-miterlimit: 4; fill: rgb(255,255,255); fill-rule: nonzero; opacity: 1;" vector-effect="non-scaling-stroke"  transform=" translate(-494.89, -460.64)" d="M 457.445312 514.761719 C 456.332031 514.761719 455.496094 514.207031 454.9375 513.371094 C 453.824219 511.976562 454.101562 510.023438 455.773438 508.910156 C 518.746094 464.324219 529.335938 409.703125 529.335938 409.144531 C 529.613281 407.472656 531.285156 406.078125 532.957031 406.636719 C 534.628906 406.914062 535.742188 408.308594 535.464844 410.257812 C 535.1875 412.488281 524.597656 467.945312 459.117188 514.207031 C 458.5625 514.484375 458.003906 514.761719 457.445312 514.761719 Z M 457.445312 514.761719" stroke-linecap="round" />
</g>
<g transform="matrix(1.33 0 0 1.33 578.88 327.91)"  >
<path style="stroke: none; stroke-width: 1; stroke-dasharray: none; stroke-linecap: butt; stroke-dashoffset: 0; stroke-linejoin: miter; stroke-miterlimit: 4; fill: rgb(255,255,255); fill-rule: nonzero; opacity: 1;" vector-effect="non-scaling-stroke"  transform=" translate(-449.92, -265.9)" d="M 436.269531 249.742188 C 436.269531 249.742188 436.269531 249.742188 435.992188 249.742188 C 435.992188 250.019531 435.992188 250.019531 435.992188 250.296875 L 435.992188 281.511719 C 435.992188 281.789062 435.992188 281.789062 435.992188 282.066406 C 436.269531 282.066406 436.546875 282.066406 436.546875 282.066406 L 463.855469 266.183594 C 463.855469 266.183594 463.855469 266.183594 463.855469 265.90625 C 463.855469 265.625 463.855469 265.625 463.855469 265.625 L 436.550781 249.742188 C 436.550781 249.742188 436.550781 249.742188 436.269531 249.742188 Z M 436.269531 288.199219 C 435.15625 288.199219 434.042969 287.921875 432.925781 287.363281 C 430.976562 286.246094 429.582031 284.019531 429.582031 281.511719 L 429.582031 250.296875 C 429.582031 247.789062 430.976562 245.5625 432.925781 244.445312 C 435.15625 243.332031 437.664062 243.332031 439.613281 244.445312 L 466.921875 260.050781 C 468.871094 261.445312 470.261719 263.398438 470.261719 265.90625 C 470.261719 268.414062 468.871094 270.363281 466.921875 271.757812 L 439.613281 287.363281 C 438.5 287.921875 437.382812 288.199219 436.269531 288.199219 Z M 436.269531 288.199219" stroke-linecap="round" />
</g>
<g transform="matrix(1.33 0 0 1.33 240.66 471.71)"  >
<path style="stroke: none; stroke-width: 1; stroke-dasharray: none; stroke-linecap: butt; stroke-dashoffset: 0; stroke-linejoin: miter; stroke-miterlimit: 4; fill: rgb(35,31,32); fill-rule: nonzero; opacity: 1;" vector-effect="non-scaling-stroke"  transform=" translate(-196.26, -373.75)" d="M 196.644531 396.324219 C 195.25 396.324219 193.855469 395.210938 193.578125 393.816406 C 192.1875 380.441406 192.1875 367.34375 193.578125 353.964844 C 193.855469 352.292969 195.25 351.179688 196.921875 351.179688 C 198.871094 351.457031 199.988281 353.128906 199.707031 354.800781 C 198.316406 367.34375 198.316406 380.441406 199.988281 392.980469 C 199.988281 394.652344 198.871094 396.324219 197.199219 396.324219 C 196.921875 396.324219 196.921875 396.324219 196.644531 396.324219 Z M 196.644531 396.324219" stroke-linecap="round" />
</g>
<g transform="matrix(1.33 0 0 1.33 261.03 379.11)"  >
<path style="stroke: none; stroke-width: 1; stroke-dasharray: none; stroke-linecap: butt; stroke-dashoffset: 0; stroke-linejoin: miter; stroke-miterlimit: 4; fill: rgb(35,31,32); fill-rule: nonzero; opacity: 1;" vector-effect="non-scaling-stroke"  transform=" translate(-211.53, -304.31)" d="M 202.773438 328.050781 C 202.496094 328.050781 202.214844 328.050781 201.9375 328.050781 C 200.265625 327.492188 199.152344 325.820312 199.707031 324.148438 C 203.886719 309.65625 210.019531 295.722656 217.542969 282.066406 C 218.378906 280.675781 220.328125 280.117188 222 280.953125 C 223.394531 281.789062 223.949219 283.738281 223.113281 285.132812 C 215.589844 298.230469 209.738281 311.886719 205.839844 325.820312 C 205.28125 327.214844 204.167969 328.050781 202.773438 328.050781 Z M 202.773438 328.050781" stroke-linecap="round" />
</g>
<g transform="matrix(1.33 0 0 1.33 292.53 322.71)"  >
<path style="stroke: none; stroke-width: 1; stroke-dasharray: none; stroke-linecap: butt; stroke-dashoffset: 0; stroke-linejoin: miter; stroke-miterlimit: 4; fill: rgb(35,31,32); fill-rule: nonzero; opacity: 1;" vector-effect="non-scaling-stroke"  transform=" translate(-235.16, -262)" d="M 227.574219 275.101562 C 227.015625 275.101562 226.457031 274.820312 225.902344 274.542969 C 224.507812 273.707031 223.949219 271.757812 224.785156 270.363281 C 233.421875 257.265625 240.109375 250.019531 240.390625 249.742188 C 241.78125 248.625 243.734375 248.625 244.847656 249.742188 C 246.242188 250.855469 246.242188 252.808594 245.125 254.199219 C 244.847656 254.199219 238.160156 261.167969 230.078125 273.707031 C 229.523438 274.542969 228.410156 275.101562 227.574219 275.101562 Z M 227.574219 275.101562" stroke-linecap="round" />
</g>
<g transform="matrix(1.33 0 0 1.33 678.07 772.49)"  >
<path style="stroke: none; stroke-width: 1; stroke-dasharray: none; stroke-linecap: butt; stroke-dashoffset: 0; stroke-linejoin: miter; stroke-miterlimit: 4; fill: rgb(252,206,26); fill-rule: nonzero; opacity: 1;" vector-effect="non-scaling-stroke"  transform=" translate(-524.32, -599.34)" d="M 548.28125 602.546875 L 500.355469 602.546875 C 498.683594 602.546875 497.292969 601.152344 497.292969 599.203125 C 497.292969 597.53125 498.683594 596.136719 500.355469 596.136719 L 548.28125 596.136719 C 549.953125 596.136719 551.347656 597.53125 551.347656 599.203125 C 551.347656 601.152344 549.953125 602.546875 548.28125 602.546875 Z M 548.28125 602.546875" stroke-linecap="round" />
</g>
<g transform="matrix(1.33 0 0 1.33 678.07 794.6)"  >
<path style="stroke: none; stroke-width: 1; stroke-dasharray: none; stroke-linecap: butt; stroke-dashoffset: 0; stroke-linejoin: miter; stroke-miterlimit: 4; fill: rgb(252,206,26); fill-rule: nonzero; opacity: 1;" vector-effect="non-scaling-stroke"  transform=" translate(-524.32, -615.92)" d="M 548.28125 618.988281 L 500.355469 618.988281 C 498.683594 618.988281 497.292969 617.59375 497.292969 615.921875 C 497.292969 614.25 498.683594 612.855469 500.355469 612.855469 L 548.28125 612.855469 C 549.953125 612.855469 551.347656 614.25 551.347656 615.921875 C 551.347656 617.59375 549.953125 618.988281 548.28125 618.988281 Z M 548.28125 618.988281" stroke-linecap="round" />
</g>
<g transform="matrix(1.33 0 0 1.33 678.07 816.71)"  >
<path style="stroke: none; stroke-width: 1; stroke-dasharray: none; stroke-linecap: butt; stroke-dashoffset: 0; stroke-linejoin: miter; stroke-miterlimit: 4; fill: rgb(252,206,26); fill-rule: nonzero; opacity: 1;" vector-effect="non-scaling-stroke"  transform=" translate(-524.32, -632.5)" d="M 548.28125 635.707031 L 500.355469 635.707031 C 498.683594 635.707031 497.292969 634.316406 497.292969 632.363281 C 497.292969 630.691406 498.683594 629.296875 500.355469 629.296875 L 548.28125 629.296875 C 549.953125 629.296875 551.347656 630.691406 551.347656 632.363281 C 551.347656 634.316406 549.953125 635.707031 548.28125 635.707031 Z M 548.28125 635.707031" stroke-linecap="round" />
</g>
<g transform="matrix(1.33 0 0 1.33 801.04 522.61)"  >
<path style="stroke: none; stroke-width: 1; stroke-dasharray: none; stroke-linecap: butt; stroke-dashoffset: 0; stroke-linejoin: miter; stroke-miterlimit: 4; fill: rgb(35,31,32); fill-rule: nonzero; opacity: 1;" vector-effect="non-scaling-stroke"  transform=" translate(-616.55, -411.93)" d="M 616.546875 390.472656 C 604.566406 390.472656 594.8125 400.226562 594.8125 411.929688 C 594.8125 423.914062 604.566406 433.667969 616.546875 433.667969 C 628.25 433.667969 638.003906 423.914062 638.003906 411.929688 C 638.003906 400.226562 628.25 390.472656 616.546875 390.472656 Z M 616.546875 439.796875 C 601.222656 439.796875 588.683594 427.257812 588.683594 411.929688 C 588.683594 396.605469 601.222656 384.0625 616.546875 384.0625 C 631.871094 384.0625 644.410156 396.605469 644.410156 411.929688 C 644.410156 427.257812 631.871094 439.796875 616.546875 439.796875 Z M 616.546875 439.796875" stroke-linecap="round" />
</g>
<g transform="matrix(1.33 0 0 1.33 707.98 658.79)"  >
<path style="stroke: none; stroke-width: 1; stroke-dasharray: none; stroke-linecap: butt; stroke-dashoffset: 0; stroke-linejoin: miter; stroke-miterlimit: 4; fill: rgb(35,31,32); fill-rule: nonzero; opacity: 1;" vector-effect="non-scaling-stroke"  transform=" translate(-546.75, -514.07)" d="M 546.886719 526.46875 C 544.9375 526.46875 543.542969 525.074219 543.542969 523.402344 L 543.542969 504.730469 C 543.542969 503.058594 544.9375 501.664062 546.886719 501.664062 C 548.558594 501.664062 549.953125 503.058594 549.953125 504.730469 L 549.953125 523.402344 C 549.953125 525.074219 548.558594 526.46875 546.886719 526.46875 Z M 546.886719 526.46875" stroke-linecap="round" />
</g>
<g transform="matrix(1.33 0 0 1.33 707.98 703.01)"  >
<path style="stroke: none; stroke-width: 1; stroke-dasharray: none; stroke-linecap: butt; stroke-dashoffset: 0; stroke-linejoin: miter; stroke-miterlimit: 4; fill: rgb(35,31,32); fill-rule: nonzero; opacity: 1;" vector-effect="non-scaling-stroke"  transform=" translate(-546.75, -547.23)" d="M 546.886719 559.628906 C 544.9375 559.628906 543.542969 558.234375 543.542969 556.5625 L 543.542969 537.894531 C 543.542969 536.222656 544.9375 534.828125 546.886719 534.828125 C 548.558594 534.828125 549.953125 536.222656 549.953125 537.894531 L 549.953125 556.5625 C 549.953125 558.234375 548.558594 559.628906 546.886719 559.628906 Z M 546.886719 559.628906" stroke-linecap="round" />
</g>
<g transform="matrix(1.33 0 0 1.33 730.27 680.9)"  >
<path style="stroke: none; stroke-width: 1; stroke-dasharray: none; stroke-linecap: butt; stroke-dashoffset: 0; stroke-linejoin: miter; stroke-miterlimit: 4; fill: rgb(35,31,32); fill-rule: nonzero; opacity: 1;" vector-effect="non-scaling-stroke"  transform=" translate(-563.47, -530.65)" d="M 572.523438 533.710938 L 554.132812 533.710938 C 552.460938 533.710938 551.066406 532.320312 551.066406 530.648438 C 551.066406 528.976562 552.460938 527.582031 554.132812 527.582031 L 572.523438 527.582031 C 574.472656 527.582031 575.867188 528.976562 575.867188 530.648438 C 575.867188 532.320312 574.472656 533.710938 572.523438 533.710938 Z M 572.523438 533.710938" stroke-linecap="round" />
</g>
<g transform="matrix(1.33 0 0 1.33 686.06 680.9)"  >
<path style="stroke: none; stroke-width: 1; stroke-dasharray: none; stroke-linecap: butt; stroke-dashoffset: 0; stroke-linejoin: miter; stroke-miterlimit: 4; fill: rgb(35,31,32); fill-rule: nonzero; opacity: 1;" vector-effect="non-scaling-stroke"  transform=" translate(-530.31, -530.65)" d="M 539.367188 533.710938 L 520.976562 533.710938 C 519.304688 533.710938 517.910156 532.320312 517.910156 530.648438 C 517.910156 528.976562 519.304688 527.582031 520.976562 527.582031 L 539.367188 527.582031 C 541.316406 527.582031 542.707031 528.976562 542.707031 530.648438 C 542.707031 532.320312 541.316406 533.710938 539.367188 533.710938 Z M 539.367188 533.710938" stroke-linecap="round" />
</g>
</svg>