<svg xmlns="http://www.w3.org/2000/svg" xmlns:xlink="http://www.w3.org/1999/xlink" width="1080" zoomAndPan="magnify" viewBox="0 0 810 809.999993" height="1080" preserveAspectRatio="xMidYMid meet" version="1.0"><defs><clipPath id="3cbbeb1884"><path d="M 72.585938 76.792969 L 729 76.792969 L 729 733.207031 L 72.585938 733.207031 Z M 72.585938 76.792969 " clip-rule="nonzero"/></clipPath><clipPath id="ed59b6ec7f"><path d="M 400.792969 76.792969 C 219.527344 76.792969 72.585938 223.734375 72.585938 405 C 72.585938 586.265625 219.527344 733.207031 400.792969 733.207031 C 582.054688 733.207031 729 586.265625 729 405 C 729 223.734375 582.054688 76.792969 400.792969 76.792969 " clip-rule="nonzero"/></clipPath><clipPath id="48780945dd"><path d="M 193 195 L 610 195 L 610 614.96875 L 193 614.96875 Z M 193 195 " clip-rule="nonzero"/></clipPath></defs><g clip-path="url(#3cbbeb1884)"><g clip-path="url(#ed59b6ec7f)"><path fill="#ffc700" d="M 72.585938 76.792969 L 729 76.792969 L 729 733.207031 L 72.585938 733.207031 Z M 72.585938 76.792969 " fill-opacity="1" fill-rule="nonzero"/></g></g><g clip-path="url(#48780945dd)"><path fill="#000000" d="M 532.484375 195.351562 C 512.761719 195.351562 493.042969 202.851562 478.03125 217.851562 C 448.015625 247.851562 448.015625 296.695312 478.03125 326.695312 C 508.050781 356.695312 556.925781 356.695312 586.945312 326.695312 C 617.347656 296.3125 617.347656 247.851562 586.945312 217.851562 C 571.933594 202.851562 552.207031 195.351562 532.484375 195.351562 Z M 532.679688 233.621094 C 539.222656 233.621094 544.226562 238.621094 544.226562 245.160156 L 544.226562 299.007812 C 544.226562 305.546875 539.222656 310.546875 532.679688 310.546875 C 526.136719 310.546875 521.132812 305.546875 521.132812 299.007812 L 521.132812 245.160156 C 521.132812 238.621094 526.136719 233.621094 532.679688 233.621094 Z M 378.734375 245.160156 C 276.75 245.160156 194.003906 327.851562 194.003906 429.777344 C 194.003906 474.78125 210.171875 517.472656 239.421875 550.9375 L 197.085938 594.785156 C 194.007812 598.246094 192.847656 602.855469 194.769531 607.472656 C 196.695312 611.703125 200.929688 614.398438 205.550781 614.398438 L 378.734375 614.398438 C 480.722656 614.398438 563.46875 531.703125 563.46875 429.777344 C 563.46875 425.164062 563.46875 420.167969 563.085938 415.550781 C 562.316406 409.011719 556.925781 404.394531 550.382812 404.777344 C 543.839844 405.164062 539.226562 410.929688 539.609375 417.082031 C 539.996094 421.3125 539.992188 425.546875 539.992188 429.777344 C 539.992188 519.011719 467.640625 591.320312 378.351562 591.320312 L 232.871094 591.320312 L 263.660156 559.394531 C 267.894531 554.777344 267.894531 547.859375 263.660156 543.242188 C 233.644531 512.859375 217.09375 472.472656 217.09375 429.777344 C 217.09375 340.546875 289.449219 268.238281 378.734375 268.238281 C 382.96875 268.238281 387.207031 268.234375 391.441406 268.621094 C 397.980469 269.003906 403.367188 264.394531 403.753906 257.855469 C 404.136719 251.316406 399.515625 245.925781 392.972656 245.542969 C 388.355469 245.15625 383.738281 245.160156 378.734375 245.160156 Z M 313.308594 383.625 C 306.765625 383.625 301.765625 388.625 301.765625 395.164062 C 301.765625 401.703125 306.765625 406.703125 313.308594 406.703125 L 444.164062 406.703125 C 450.703125 406.703125 455.707031 401.703125 455.707031 395.164062 C 455.707031 388.625 450.703125 383.625 444.164062 383.625 Z M 313.308594 452.855469 C 306.765625 452.855469 301.765625 457.855469 301.765625 464.394531 C 301.765625 470.933594 306.765625 475.933594 313.308594 475.933594 L 371.039062 475.933594 C 377.582031 475.933594 382.585938 470.933594 382.585938 464.394531 C 382.585938 457.855469 377.582031 452.855469 371.039062 452.855469 Z M 432.617188 452.855469 C 426.074219 452.855469 421.070312 457.855469 421.070312 464.394531 C 421.070312 470.933594 426.074219 475.933594 432.617188 475.933594 L 448.011719 475.933594 C 454.554688 475.933594 459.558594 470.933594 459.558594 464.394531 C 459.558594 457.855469 454.554688 452.855469 448.011719 452.855469 Z M 432.617188 452.855469 " fill-opacity="1" fill-rule="nonzero"/></g></svg>