<svg xmlns="http://www.w3.org/2000/svg" width="36" height="36" id="cross"><g transform="translate(0 -1016.362)"><rect width="36" height="36" y="1016.362" fill="#f8b84e" rx="6" ry="6"></rect><g color="#000"><path style="isolation:auto;mix-blend-mode:normal" fill="#34485c" d="M16 1024.362c-6.627 0-12 5.373-12 12s5.373 12 12 12 12-5.373 12-12-5.373-12-12-12z" overflow="visible" transform="translate(2 -2)"></path><path style="isolation:auto;mix-blend-mode:normal" fill="none" stroke="#34485c" stroke-dashoffset="1.4" stroke-linejoin="round" d="M16 1022.862a13.5 13.5 0 0 1 12.472 8.334 13.5 13.5 0 0 1-2.926 14.712 13.5 13.5 0 0 1-14.712 2.927 13.5 13.5 0 0 1-8.334-12.473" overflow="visible" transform="translate(2 -2)"></path><path style="isolation:auto;mix-blend-mode:normal" fill="none" stroke="#34485c" stroke-dasharray="1 1" stroke-dashoffset=".7" stroke-linejoin="round" d="M2.5 1036.362a13.5 13.5 0 0 1 13.5-13.5" overflow="visible" transform="translate(2 -2)"></path><path d="m19.09 1028.862-4.09 4.091-4.09-4.09-3.41 3.408 4.09 4.091-4.09 4.091 3.41 3.41 4.09-4.092 4.09 4.091 3.41-3.409-4.09-4.09 4.09-4.092-3.41-3.409z" opacity=".15" overflow="visible" style="isolation:auto;mix-blend-mode:normal" transform="translate(2 -2)"></path><path style="isolation:auto;mix-blend-mode:normal" fill="#f05542" d="m20.09 1028.862-4.09 4.091-4.09-4.09-3.41 3.408 4.09 4.091-4.09 4.091 3.41 3.41 4.09-4.092 4.09 4.091 3.41-3.409-4.09-4.09 4.09-4.092-3.41-3.409z" overflow="visible" transform="translate(2 -2)"></path></g></g></svg>