<svg xmlns="http://www.w3.org/2000/svg" viewBox="0 0 32 32" id="remove" fill="#8B0000"><path d="M2.56 7.34c0 .83.67 1.5 1.5 1.5h.8v17.72c0 2.73 2.21 4.94 4.93 4.94h12.42c2.72 0 4.93-2.21 4.93-4.94V8.84h.8c.83 0 1.5-.67 1.5-1.5s-.67-1.5-1.5-1.5h-5.25V4.29C22.69 2.2 20.99.5 18.9.5h-5.8c-2.09 0-3.79 1.7-3.79 3.79v1.55H4.06c-.83 0-1.5.67-1.5 1.5zm18.67 5.76v11.14c0 .83-.67 1.5-1.5 1.5s-1.5-.67-1.5-1.5V13.1c0-.83.67-1.5 1.5-1.5s1.5.67 1.5 1.5zm-8.92-8.81c0-.44.35-.79.79-.79h5.8c.44 0 .79.35.79.79v1.55h-7.38V4.29zm-1.54 8.81c0-.83.67-1.5 1.5-1.5s1.5.67 1.5 1.5v11.14c0 .83-.67 1.5-1.5 1.5s-1.5-.67-1.5-1.5V13.1z"></path></svg>