<svg xmlns="http://www.w3.org/2000/svg" viewBox="0 0 47.5 47.5" id="dog"><defs><clipPath id="a"><path d="M0 38h38V0H0v38Z"></path></clipPath></defs><g clip-path="url(#a)" transform="matrix(1.25 0 0 -1.25 0 47.5)"><path fill="#662113" d="M30 21.111s6 0 4 6c-1 3 1 1 2-1s2-8-5-7-1 2-1 2"></path><path fill="#d99e82" d="M33.958 17.16c.027.313.042.597.042.841 0 .658-.063 1-.171 1.123-.896 2.946-5.522 2.896-10.853 2.879-2.987.023-4.976 4.1-4.976 4.998 0 5-4.848 6.182-7.5 3-2.5-3-7.5.037-7.5-3 0-5 3.358-8 7.5-8 .648 0 1.736.149 3.01.381.941-1.647 1.39-3.881 1.49-4.381.024-.119.05-.235.075-.353.435-4.62 2.681-13.647 3.925-13.647 1.07 0 1.681 2.484 1.902 5.4.886-.26 1.91-.4 3.098-.4 1.112 0 2.137.247 3.078.659.205-3.027.82-5.659 1.922-5.659 1.292 0 4.544 11.5 4.956 16.144l.002.015"></path><path fill="#662113" d="M5 26.5c0-.829-1.171-1.5-2-1.5s-1.5 1.171-1.5 2 .671 1 1.5 1c2 0 2-.671 2-1.5M19 25c0-3.038-1.344-3.5-3-3.5-1.657 0-3 .462-3 3.5s.343 7 2 7 4-3.962 4-7"></path><path fill="#292f33" d="M12 28a1 1 0 1 0-2 0 1 1 0 0 0 2 0"></path><path fill="#c1694f" d="M32 17.5c0-1.38-1.343-2.5-3-2.5s-3 1.12-3 2.5c0 1.381 1.343 2.5 3 2.5s3-1.119 3-2.5M25 18.5a1.5 1.5 0 1 0-3.001.001A1.5 1.5 0 0 0 25 18.5M27 13.5a1.5 1.5 0 1 0-3.001.001A1.5 1.5 0 0 0 27 13.5"></path></g></svg>