<svg xmlns="http://www.w3.org/2000/svg" xmlns:xlink="http://www.w3.org/1999/xlink" width="96" height="96" viewBox="0 0 96 96" id="gst"><defs><linearGradient id="b" x1="906.952" x2="931.379" y1="515.915" y2="546.094" gradientTransform="translate(-2777.437 -1586.04) scale(3.0757)" gradientUnits="userSpaceOnUse" xlink:href="#a"></linearGradient><linearGradient id="a"><stop offset="0" stop-color="#ffd800"></stop><stop offset="1" stop-color="#ff6100"></stop></linearGradient></defs><rect width="96" height="96" fill="url(#b)" rx="20.288" ry="20.288"></rect><path fill="#fff" d="m 50.375654,29.450904 c -0.273,-0.018 -0.517969,0.179125 -0.542969,0.453125 l -0.548828,5.974609 c -0.025,0.275 0.176171,0.516969 0.451172,0.542969 0.016,10e-4 0.03187,0.002 0.04687,0.002 0.255,0 0.474047,-0.194125 0.498047,-0.453125 l 0.548828,-5.974609 c 0.025,-0.275 -0.178124,-0.519922 -0.453125,-0.544922 z m 3.095703,1.6875 c -0.194579,0.0086 -0.373766,0.128765 -0.447266,0.322266 l -1.439453,3.84375 c -0.096,0.259 0.03592,0.545578 0.294922,0.642578 0.058,0.021 0.117782,0.0332 0.175781,0.0332 0.203001,0 0.391797,-0.125172 0.466797,-0.326172 l 1.4375,-3.841797 c 0.097,-0.259 -0.03397,-0.547531 -0.292969,-0.644531 -0.06475,-0.02375 -0.130453,-0.03216 -0.195312,-0.0293 z m 15.265625,0.373047 c -0.06488,-5.63e-4 -0.132063,0.01086 -0.195313,0.03711 l -1.845703,0.765625 -0.002,0 -1.847656,0.765625 c -0.123001,0.051 -0.220484,0.148484 -0.271484,0.271484 -0.051,0.123001 -0.051,0.259813 0,0.382813 l 0.382812,0.923828 c 0.08,0.192 0.266891,0.308594 0.462891,0.308594 0.064,0 0.129406,-0.01111 0.191406,-0.03711 0.254999,-0.106001 0.374531,-0.399297 0.269531,-0.654297 l -0.189453,-0.460938 0.923829,-0.382812 2.105468,5.080078 c 0.08,0.192 0.264938,0.308593 0.460938,0.308593 0.064,0 0.129406,-0.01111 0.191406,-0.03711 0.254999,-0.107 0.376484,-0.40025 0.271484,-0.65625 l -2.105468,-5.080078 0.923828,-0.382813 0.191406,0.460938 c 0.105,0.256 0.400344,0.376484 0.652344,0.271484 0.254999,-0.106 0.376484,-0.397343 0.271484,-0.652343 L 69.19592,31.820043 c -0.07875,-0.19125 -0.26436,-0.306906 -0.458985,-0.308593 z m -23.072266,1.566406 c -0.25989,-0.0022 -0.524297,0.04734 -0.779297,0.152344 -1.019,0.422 -1.503032,1.593328 -1.082031,2.611328 l 0.05273,0.130859 -9.22461,7.998047 -7.314453,3.029297 c -0.123,0.051 -0.220484,0.148484 -0.271484,0.271484 -0.051,0.123 -0.051,0.259813 0,0.382813 l 0.574219,1.386719 -2.310547,0.957031 c -0.255,0.105 -0.376484,0.397344 -0.271484,0.652344 l 1.531249,3.695312 c 0.08,0.192 0.266891,0.308594 0.462891,0.308594 0.064,0 0.129406,-0.01111 0.191406,-0.03711 l 2.308594,-0.957032 0.957031,2.310547 c 0.08,0.192 0.266891,0.308594 0.462891,0.308594 0.064,0 0.129406,-0.01306 0.191406,-0.03906 l 0.517578,-0.214843 7.371094,12.71289 c 0.092,0.159 0.259595,0.25 0.433594,0.25 0.064,0 0.129406,-0.01111 0.191406,-0.03711 l 3.695313,-1.53125 c 0.123,-0.051 0.220484,-0.148485 0.271484,-0.271484 0.051,-0.123 0.051,-0.259813 0,-0.382813 l -1.148438,-2.771484 c -0.051,-0.123 -0.148483,-0.220485 -0.271484,-0.271485 l -1.115234,-0.460937 -1.650391,-3.990235 1.34375,-0.988281 c 0.125,-0.092 0.199125,-0.234672 0.203125,-0.388672 0.004,-0.155 -0.06359,-0.30239 -0.183594,-0.40039 l -3.164062,-2.582032 c -0.002,-0.002 -0.0058,-0.0029 -0.0078,-0.0039 l -0.478515,-1.15625 1.3125,-0.542969 12.175781,-0.865234 0.05469,0.128906 c 0.205,0.494 0.588032,0.878032 1.082032,1.082032 0.247,0.103 0.506625,0.152343 0.765625,0.152343 0.259,0 0.518625,-0.05034 0.765625,-0.152343 1.019,-0.422 1.504031,-1.594282 1.082031,-2.613282 L 47.4987,34.312232 c -0.315749,-0.76425 -1.054311,-1.227672 -1.833984,-1.234375 z m -0.01367,1 c 0.393,0 0.764828,0.232187 0.923828,0.617187 l 6.888672,16.63086 c 0.101,0.246 0.100047,0.516672 -0.002,0.763672 -0.102,0.247 -0.294016,0.439015 -0.541016,0.541015 -0.247,0.102 -0.516672,0.103 -0.763672,0 -0.246999,-0.102 -0.439014,-0.294015 -0.541015,-0.541015 L 48.17053,43.775123 44.918577,35.921607 44.727171,35.46067 c -0.210999,-0.509001 0.03297,-1.094641 0.542969,-1.306641 0.125,-0.052 0.25386,-0.07617 0.380859,-0.07617 z m 16.615234,0.113281 c -0.06513,0 -0.129906,0.01161 -0.191406,0.03711 l -3.697266,1.53125 c -0.123,0.051 -0.218531,0.148484 -0.269531,0.271484 -0.051,0.123 -0.051,0.259813 0,0.382812 l 1.146484,2.771485 c 0.036,0.086 0.09797,0.149172 0.167969,0.201172 0.017,0.013 0.03278,0.0232 0.05078,0.0332 0.075,0.043 0.156142,0.07227 0.244141,0.07227 l 0.002,0 c 0.064,0 0.127453,-0.01111 0.189453,-0.03711 l 3.234375,-1.339844 0.765625,1.847657 -2.771484,1.148437 -0.191406,-0.460937 c -0.105,-0.255 -0.399344,-0.375485 -0.652344,-0.271485 -0.255,0.106 -0.376484,0.397344 -0.271484,0.652344 l 0.382812,0.923828 c 0.08,0.192 0.266891,0.310547 0.462891,0.310547 0.064,0 0.129406,-0.01306 0.191406,-0.03906 l 3.693359,-1.53125 c 0.255,-0.105 0.376485,-0.397343 0.271485,-0.652343 l -1.148438,-2.773438 c -0.026,-0.062 -0.06238,-0.116109 -0.109375,-0.162109 -0.025,-0.024 -0.05498,-0.03959 -0.08398,-0.05859 -0.026,-0.017 -0.04717,-0.03783 -0.07617,-0.04883 -0.046,-0.019 -0.09458,-0.02234 -0.142578,-0.02734 -0.016,-0.002 -0.03088,-0.0098 -0.04687,-0.0098 -0.066,0 -0.13136,0.01111 -0.19336,0.03711 l -3.234375,1.339844 -0.765625,-1.847656 2.771485,-1.148438 0.191406,0.462891 c 0.106,0.255 0.398344,0.373531 0.652344,0.269531 0.255,-0.105 0.376484,-0.397344 0.271484,-0.652344 l -0.380918,-0.923804 c -0.051,-0.123 -0.148484,-0.220484 -0.271484,-0.271484 -0.061,-0.0255 -0.126282,-0.03711 -0.191406,-0.03711 z m -6.464844,2.679688 c -0.06497,-6.1e-4 -0.131562,0.01111 -0.195312,0.03711 l -3.695313,1.53125 c -0.254,0.104 -0.373577,0.394391 -0.267578,0.650391 l 1.91211,4.61914 0,0.002 0.382812,0.923828 c 0.034,0.083 0.09602,0.148172 0.166016,0.201172 0.018,0.013 0.03373,0.02416 0.05273,0.03516 0.018,0.01 0.03078,0.02716 0.05078,0.03516 0.062,0.025 0.126407,0.03711 0.191407,0.03711 0.064,0 0.129406,-0.01111 0.191406,-0.03711 l 3.695312,-1.53125 c 0.255,-0.105 0.376485,-0.397344 0.271485,-0.652344 l -1.148438,-2.771484 c -0.105,-0.255 -0.399297,-0.375484 -0.654297,-0.271484 L 54.9069,40.445099 c -0.255,0.105001 -0.374531,0.397344 -0.269531,0.652344 0.106,0.255 0.399344,0.376485 0.652344,0.271485 l 1.384765,-0.574219 0.765625,1.847656 -2.771484,1.148438 -1.91211,-4.621094 2.771485,-1.146484 0.191406,0.460937 c 0.106,0.255 0.399344,0.376484 0.652344,0.271484 0.255,-0.105 0.376484,-0.397343 0.271484,-0.652343 l -0.382812,-0.923828 c -0.07875,-0.191251 -0.264078,-0.306766 -0.458985,-0.308594 z m -11.541015,0.07422 4.359375,10.521485 1.615234,3.902344 -11.566406,0.822265 -1.583984,-3.824218 -1.583985,-3.824219 8.759766,-7.597657 z m -9.632813,8.109376 1.53125,3.695312 1.53125,3.695312 -3.113281,1.291016 -2.890625,1.197266 -0.460938,0.189453 -0.957031,-2.308594 -1.53125,-3.695312 c 0,0 -0.002,-0.002 -0.002,-0.002 l -0.574219,-1.384766 6.466797,-2.677734 z m 22.220703,0.746093 c -0.194531,0.0084 -0.374515,0.130719 -0.447265,0.324219 -0.097,0.259 0.03497,0.547531 0.292968,0.644531 l 4.119141,1.541016 c 0.058,0.021 0.117781,0.03125 0.175781,0.03125 0.203,0 0.391797,-0.123219 0.466797,-0.324219 0.097,-0.259 -0.03301,-0.548531 -0.291015,-0.644531 l -4.121094,-1.541016 c -0.06425,-0.024 -0.130469,-0.03406 -0.195313,-0.03125 z m -24.90039,1.457031 a 0.50001264,0.50001264 0 0 0 -0.195313,0.03711 0.50001264,0.50001264 0 0 0 -0.269531,0.654297 0.50001264,0.50001264 0 0 0 0.652342,0.269529 0.50001264,0.50001264 0 0 0 0.271485,-0.652344 0.50001264,0.50001264 0 0 0 -0.458985,-0.308594 z m 22.865234,0.431641 c -0.127375,0.01175 -0.248437,0.07223 -0.335937,0.177735 -0.177,0.211999 -0.1495,0.529078 0.0625,0.705078 l 4.613281,3.835937 c 0.094,0.078 0.208313,0.115235 0.320312,0.115235 0.144001,0 0.285766,-0.06169 0.384766,-0.179688 0.177001,-0.212 0.147547,-0.527125 -0.06445,-0.703125 l -4.61328,-3.835937 c -0.107,-0.0885 -0.239813,-0.126985 -0.367188,-0.115235 z m -24.712891,0.333985 a 0.50001264,0.50001264 0 0 0 -0.195312,0.03711 0.50001264,0.50001264 0 0 0 -0.271484,0.654297 0.50001264,0.50001264 0 0 0 0.654296,0.269531 0.50001264,0.50001264 0 0 0 0.269532,-0.652344 0.50001264,0.50001264 0 0 0 -0.457032,-0.308593 z m -2.097656,1.939453 1.148438,2.773437 -1.847656,0.763672 -1.148438,-2.769531 1.847656,-0.767578 z m 7.708985,1.173828 c -0.06488,-6.1e-4 -0.13011,0.01111 -0.19336,0.03711 l -3.695312,1.53125 c -0.255,0.105 -0.374532,0.399297 -0.269531,0.654297 0.08,0.192 0.264937,0.308594 0.460937,0.308594 0.064,0 0.129406,-0.01306 0.191406,-0.03906 l 3.695313,-1.529297 c 0.255,-0.105 0.374531,-0.399296 0.269531,-0.654297 -0.07875,-0.19125 -0.264359,-0.306765 -0.458984,-0.308593 z m 0.517578,3 4.017578,9.699219 c 0.048,0.121999 0.145578,0.220484 0.267578,0.271484 l 1.115234,0.460937 0.876953,2.119141 -2.828124,1.171875 -3.039063,-5.242187 1.240234,-0.513672 c 0.255,-0.105 0.376485,-0.397344 0.271485,-0.652344 -0.105,-0.255 -0.401297,-0.375485 -0.654297,-0.271484 l -1.361328,0.564453 -0.507813,-0.873047 1.150391,-0.476563 c 0.255,-0.105 0.376484,-0.397344 0.271484,-0.652343 -0.105,-0.255001 -0.398343,-0.375485 -0.652343,-0.271485 l -1.273438,0.527344 -0.505859,-0.873047 1.11914,-0.462891 c 0.255,-0.105 0.376485,-0.399296 0.271485,-0.654297 -0.106,-0.255 -0.398344,-0.373531 -0.652344,-0.269531 l -1.244141,0.513672 -0.505859,-0.873047 1.05664,-0.435547 c 0.255,-0.105 0.376485,-0.399296 0.271485,-0.654297 -0.105,-0.255 -0.399297,-0.373531 -0.654297,-0.269531 l -1.177734,0.486328 -0.503907,-0.867187 3.63086,-1.501953 z m 2.207031,2.71875 1.232422,1.005859 -0.626953,0.460938 -0.605469,-1.466797 z"></path></svg>