<svg xmlns="http://www.w3.org/2000/svg" data-name="Layer 1" viewBox="0 0 128 128" id="joke" fill="#fff"><path d="M64 0a63.817 63.817 0 0 0-4.093 127.514 17.468 17.468 0 0 0 8.186 0A63.817 63.817 0 0 0 64 0Zm3.457 123.562c-1.145.065-2.3.107-3.457.107s-2.312-.041-3.457-.107A13.984 13.984 0 0 1 50 110.147l1.841-17.76c3.933.232 7.954.364 12.052.364h.122c4.13 0 8.182-.138 12.142-.376L78 110.147a13.984 13.984 0 0 1-10.543 13.415Zm-29.778-36.6-1.24-6.181H62v7.955a182.612 182.612 0 0 1-24.321-1.771ZM66 88.736v-7.952h25.561l-1.233 6.149A182.025 182.025 0 0 1 66 88.736Zm11.223 33.45A17.837 17.837 0 0 0 82 110.048c0-.068 0-.137-.011-.206L80.15 92.1c4.036-.328 16.544-2.159 18.43-2.542a41.725 41.725 0 0 1-13.38 12.453l.448 4.317a45.86 45.86 0 0 0 22.262-26.947 2 2 0 0 0-1.91-2.587H22a2 2 0 0 0-1.9 2.615 47.409 47.409 0 0 0 22.281 26.674l.449-4.327a43.7 43.7 0 0 1-13.094-12.087c1.832.364 14.031 2.121 18.112 2.448l-1.838 17.726a2.015 2.015 0 0 0-.011.206 17.837 17.837 0 0 0 4.777 12.138 60 60 0 1 1 26.445 0Zm17.32-35.934 1.1-5.469h7.553a42.45 42.45 0 0 1-1.826 4.081c-2.187.517-4.477.972-6.827 1.389Zm-61.077.039c-2.291-.4-4.52-.843-6.654-1.339a42.52 42.52 0 0 1-1.956-4.17h7.506Z"></path><path d="M96.051 36.2a31.851 31.851 0 0 0-13.562-4.13 31.8 31.8 0 0 0-14.229 1.7 2 2 0 1 0 1.48 3.707 27.7 27.7 0 0 1 12.389-1.429 27.774 27.774 0 0 1 11.82 3.552 2 2 0 1 0 2.1-3.4zM59.74 33.766a31.816 31.816 0 0 0-14.229-1.7A31.851 31.851 0 0 0 31.949 36.2a2 2 0 0 0 2.1 3.4 27.774 27.774 0 0 1 11.82-3.552 27.692 27.692 0 0 1 12.391 1.425 2 2 0 1 0 1.48-3.707zm57.291 16.568a7.673 7.673 0 0 0-4.761-5.257l-8.156-3.02A3.994 3.994 0 0 0 99.06 47.4l3.5 7.941a7.68 7.68 0 0 0 14.466-5.011zm-4.637 4.31a3.686 3.686 0 0 1-6.167-.907l-3.5-7.941 8.156 3.02a3.667 3.667 0 0 1 1.511 5.829zM25.3 41.747a4 4 0 0 0-1.413.253l-8.2 3.088a7.7 7.7 0 1 0 9.8 10.25l3.48-8.021a3.991 3.991 0 0 0-3.667-5.57zm-3.48 12.011a3.716 3.716 0 0 1-6.248.912 3.7 3.7 0 0 1 1.53-5.845l8.2-3.088z"></path></svg>