<svg xmlns="http://www.w3.org/2000/svg" enable-background="new 0 0 1920 1080" viewBox="0 0 1920 1080" id="man-walking-with-dog"><rect width="220.81" height="868.97" x="626.21" y="101.04" fill="#ffdab6" opacity=".43"></rect><rect width="279.89" height="644.07" x="774.88" y="325.94" fill="#ffdab6" opacity=".43"></rect><rect width="282.19" height="754.01" x="995.38" y="216" fill="#ffdab6" opacity=".43"></rect><path fill="#ffdab6" d="M503.11,389.37c-39.16,0-70.91,31.75-70.91,70.91c0,36.26,27.22,66.17,62.35,70.39v441.33h17.13V530.67  c35.12-4.22,62.35-34.12,62.35-70.39C574.01,421.12,542.27,389.37,503.11,389.37z M511.67,515.07c-2.79,0.43-5.65,0.66-8.56,0.66  s-5.78-0.22-8.57-0.66c-26.56-4.12-46.88-27.08-46.88-54.78c0-30.63,24.82-55.45,55.45-55.45c30.62,0,55.44,24.82,55.44,55.45  C558.55,487.99,538.22,510.96,511.67,515.07z"></path><path fill="#fccca4" d="M542.11,460.72h-43.7c-0.95,0-1.72-0.77-1.72-1.72v-22.14c0-1.53-1.85-2.3-2.93-1.21l-23.1,23.1  c-0.67,0.67-0.67,1.76,0,2.43l22.59,22.59c1.07,1.07,2.9,0.34,2.93-1.17l0.51-21.87"></path><rect width="36.21" height="14.99" x="495.8" y="453.22" fill="#fccca4"></rect><path fill="#ffdab6" d="M1519.41 848.72c0 0 24.82-15.9 57.06-.38 32.24 15.53 34.33 42.11 27.7 48.3S1551.74 845.61 1519.41 848.72zM1445.27 857.33c0 0-5.63-59.76 69.52-93.44C1589.93 730.2 1479.85 820.38 1445.27 857.33z"></path><path fill="#ffdab6" d="M1432.78 856.17c0 0 23.71-47.95 4.38-97.65s-29.36.67-19.84 39.17C1426.83 836.2 1432.78 856.17 1432.78 856.17zM1403.52 817.67c0 0-5.15-27.31-32.06-45.93-26.91-18.62-61.29-11.73-70.7 11.42S1378.39 781.96 1403.52 817.67zM1394.08 851.17c0 0-25.29-31.79-61.93-29.84-36.64 1.95-46.48 25.36-36.11 38.05C1306.42 872.07 1360.46 832.1 1394.08 851.17z"></path><path fill="none" stroke="#020202" stroke-linecap="round" stroke-miterlimit="10" d="M1429.33 966.12c0 0-12.97-111.6 64.78-176.8M1427.54 788.72c11.56 54.24-2.59 177.63-2.59 177.63s5.26-111.29-26.32-156.8c-31.58-45.51-84.11-28.93-84.11-28.93"></path><path fill="none" stroke="#020202" stroke-linecap="round" stroke-miterlimit="10" d="M1419.08,965.92c0,0,15.38-99.33-36.21-121.54c-51.59-22.21-74.74,3.83-74.74,3.83"></path><path fill="none" stroke="#020202" stroke-linecap="round" stroke-miterlimit="10" d="M1434.4,965.13c0,0-20.43-70.43,50.92-104.8c71.35-34.37,97.74,9.66,97.74,9.66"></path><path fill="#fccea7" d="M1458.25,915.46v38.93c0,9.33-7.57,16.89-16.9,16.89h-27.87c-9.33,0-16.89-7.56-16.89-16.89v-38.93H1458.25z"></path><path fill="#ffdab6" d="M1458.25,928.97v25.42c0,9.33-7.57,16.89-16.9,16.89h-27.87c-9.33,0-16.89-7.56-16.89-16.89v-25.42H1458.25z"></path><path fill="#cee9ea" d="M1354.77,971.28c0,0,35.41-45.35-1.16-89c-36.57-43.65-80.11-1.3-80.11-1.3s25.54-17.11,4.64-38.73  c-20.9-21.62-41.79,1.59-41.79,1.59s24.38-58.03-47.6-96.34s-137.01,7.85-125.97,72.42c0,0-1.61-42.6-40.04-45.72  s-79.65,27.58-54.31,75.71c0,0-10.65-14.35-22.89-10.56c-10.24,3.17-23.22,13.31-10.45,28.07c0,0-33.28-36.22-82.62-5.13  c-39.95,25.17-38.7,71.55-9.29,108.99L1354.77,971.28z"></path><path fill="#cee9ea" d="M537.51,971.28c0,0-21.6-27.66,0.71-54.29s48.86-0.8,48.86-0.8s-15.58-10.44-2.83-23.62  c12.75-13.18,25.49,0.97,25.49,0.97s-14.87-35.4,29.03-58.77c43.9-23.37,83.57,4.79,76.84,44.17c0,0,0.98-25.99,24.43-27.89  c23.44-1.9,48.59,16.82,33.13,46.18c0,0,7.59-4.98,13.96-6.44c6.37-1.46,14.16,8.12,6.37,17.12c0,0,29.15-22.57,50.4-3.13  s23.6,43.64,5.67,66.48L537.51,971.28z"></path><line x1="1469.44" x2="468.57" y1="971.71" y2="971.71" fill="none" stroke="#020202" stroke-miterlimit="10" stroke-width="3"></line><path fill="#e2821a" d="M776.49 940.9c-5.38-2.36-11.43-5.83-18.11-10.75-26.55-19.53-10.17-33.34-10.17-33.34s2.4-5.24 7.08-5.79c4.16-.5 15.79-1.23 19.21 11.88 0 0 0 .02 0 .05.42 1.57.71 3.32.86 5.31 1.4 18.64 14.05 24.43 28 24.93C815.13 933.61 805.45 953.52 776.49 940.9zM643.71 920.68c0 0 .38 40.79-1.58 41.9-1.95 1.11-2.96 3.01-2.42 4.75.54 1.74 18.46.63 21.16.5 2.7-.13.05-34.26.05-34.26L643.71 920.68zM743.65 931.91c0 0-1.96 6.7-2.8 15.14-.97 9.79-.87 21.51-1.58 21.34-1.33-.31-14.72 1.35-16.52-.92-1.8-2.27 3.16-4.88 3.16-4.88l-2.51-31.16L743.65 931.91z"></path><path fill="none" stroke="#020202" stroke-linecap="round" stroke-miterlimit="10" d="M930.58,440.58c5.13-1.51,14.65-2.62,23.27,5.63c12.57,12.02,0.27,32.15,3.28,44.22"></path><path fill="#f9a88c" d="M1254.21,840.59l44.92,58.5l-84.09,69.01c0,0-8.05-4.35-10.32-18.75c-2.89-18.35,25.33-49.87,25.33-49.87  l-31.16-37.85L1254.21,840.59z"></path><path fill="#cc7219" d="M1006.05,462.61c0,0,46.49,16.03,110.52,18.58c64.02,2.55,81.88-26.66,81.88-26.66l-156.68-17.43  L1006.05,462.61z"></path><path fill="#54b6c6" d="M1270.93,840.46c0,0-5.75,7.77-15.94,17.33c-4.84,4.5-10.69,9.45-17.41,14.14  c-6.35,4.44-13.48,8.66-21.26,12.13c-0.06,0.01-0.13,0.05-0.17,0.07c-6.87,3.06-14.26,5.51-22.07,6.99c0,0-7.89-7.04-19.92-22.43  c-16.2-20.71-39.94-56.56-62.06-110.71v-0.01c-8.16-19.98-16.1-42.45-23.37-67.54c-5.41-18.7-10.42-38.86-14.89-60.55  c-15.53-75.46-4.44-123.53,14.47-154.03c13.96-22.57,32.2-35.54,47.11-42.87c5.78-2.86,11.05-4.85,15.37-6.25  c7.14-2.29,11.7-2.92,11.7-2.92l1.53,1.93l24.19,30.58c0,0,0.1,3.04,0.28,8.41c0.16,4.43,0.36,10.47,0.61,17.66  c1.53,44.49,4.58,133.74,5.62,169.13c0.15,5.24,0.26,9.29,0.32,11.85c0.07,3.41,1.42,8.95,3.71,16v0.01  c10.65,32.79,41.63,98.33,59.34,134.9C1265.74,830.07,1270.93,840.46,1270.93,840.46z"></path><path fill="#75c3db" d="M1272.65,842.21c-2.64,2.87-9.62,9.01-17.65,15.58c-5.78,4.69-12.11,9.61-17.75,13.65  c-0.53,0.37-1.05,0.75-1.6,1.11c-6.19,4.32-12.94,8.26-19.33,11.51c-0.05,0.02-0.12,0.05-0.17,0.07c-8.72,4.42-16.75,7.52-21.68,8.4  c-0.92,0.15-1.85-0.19-2.47-0.88l-18.14-20.52c-0.68-0.77-0.49-1.9,0.31-2.43c0.12-0.1,0.26-0.17,0.41-0.22  c6.87-2.36,13.76-5.46,20.47-8.94l0.17-0.09c2.14-1.11,4.25-2.26,6.34-3.45l0.07-0.03c26.68-15.12,49.6-35.4,56.27-41.52  c0.07-0.05,0.14-0.12,0.2-0.15c0.99-0.71,2.38-0.37,2.94,0.73l12.02,24.21C1273.55,840.2,1273.4,841.41,1272.65,842.21z"></path><path fill="#fff" d="M1237.59,871.93c-6.36,4.44-13.48,8.66-21.27,12.12c-0.05,0.02-0.12,0.05-0.17,0.07  c-8.72,4.42-16.75,7.52-21.68,8.4c-0.92,0.15-1.85-0.19-2.47-0.88l-18.14-20.52c-0.68-0.77-0.49-1.9,0.31-2.43  c-16.21-20.71-39.94-56.56-62.07-110.72v-0.02c-8.16-19.98-16.1-42.44-23.36-67.54l27.24-115.21c0,0-7.3,168.27,76.26,285.86  l2.98-1.62l6.34-3.45l0.07-0.03c0,0,16.87,27.38,34.03,16.6c0.53-0.32,1.07-0.7,1.6-1.11L1237.59,871.93z" opacity=".22"></path><path fill="#f9a88c" d="M1076.74,899.14V972H966.21c-1.36,0-2.6-0.51-3.54-1.34c-0.65-2.86-1.34-10.08,4.3-19.69  c7.89-13.47,41.78-17.99,52.42-19.1c0.03,0,0.07,0,0.09-0.02c1.97-0.19,3.13-0.27,3.13-0.27l-0.41-4.81l-4.08-47.32L1076.74,899.14z  "></path><path fill="#75c3db" d="M1179.75,458.66c0,0-3.11,5.32-8.15,17.45c-10.59,25.59-29.72,81.45-46.05,181.4  c-4.83,29.52-9.42,62.88-13.47,100.45v0.02c-3.77,34.96-7.07,73.54-9.69,116.07c-0.56,9.39-1.11,18.96-1.62,28.74  c0,0-10.3,5.7-30.83,9.13c-11.78,1.97-26.94,3.21-45.44,2.21c-8.08-0.46-16.78-1.33-26.12-2.74c0,0-1.31-9.98-3.04-27.31  c-5.1-51.03-13.86-165.73-3.55-276.24l1.39-13.79c0.02-0.15,0.02-0.22,0.02-0.22c4.91-45.2,13.2-89.21,26.44-127.31  c1.75-5.07,3.59-10.02,5.53-14.84c0,0,61.49-26.97,110.22-18.7C1153.02,435.94,1168.97,443.52,1179.75,458.66z"></path><path fill="#23a2b7" d="M1189.11,482.38c-16.75,3.09-52.8,3.81-77.56-1.73c-8.11-1.82-15.9-3.42-23.24-4.81  c-37.61-7.11-64.19-9.05-68.65-9.32c1.75-5.07,3.59-10.02,5.53-14.84c0,0,61.49-26.97,110.22-18.7c5.78-2.86,11.05-4.85,15.37-6.24  l13.23-0.99l24.2,30.57c0,0,0.1,3.04,0.29,8.4C1188.65,469.15,1188.85,475.19,1189.11,482.38z" opacity=".54"></path><path fill="#f9a88c" d="M973.63,419.97c-1.6,1.45-3.98,3.01-6.77,4.56c-10.76,6.02-27.56,12.07-28.86,12.53  c-0.03,0-0.05,0.02-0.08,0.03c-4.01,4.01-7.33,19.77-14.67,17.58c-2.5-0.75,1.1-8.47,1.75-10.54c-3.03,8.21-6.47,13.09-11.4,15.1  c-3.59,1.46-9.07,1.4-10.3-0.02c-2.91-3.38-2.55-12.65,1.28-20.12s15.12-15.3,15.12-15.3l21.9-19.44c0,0,7.09,1.48,14.71,3.72  C966.77,411.18,978.27,415.76,973.63,419.97z"></path><path fill="#f9977d" d="M945.65,425.16c-5.46-10.93-4.06-20.8-4.06-20.8s7.09,1.48,14.71,3.72l10.56,16.44  c-10.76,6.02-27.56,12.07-28.86,12.53C946.84,432.32,945.65,425.16,945.65,425.16z"></path><polygon fill="#cc7219" points="961.11 432.08 987 429.33 977.08 415.88"></polygon><path fill="#ed8a1d" d="M1074.57,374.42c-5.07,6.63-11.27,12.04-18.91,17.04c-11.68,7.67-26.76,14.37-46.32,23.06  c-5.59,2.48-10.98,4.71-16.12,6.7c-12.52,4.88-23.48,8.38-32.1,10.87c-2.28-1.33-4.3-2.79-6.09-4.39c-2.35-2.02-4.3-4.22-5.93-6.46  c-0.02-0.02-0.02-0.02-0.02-0.02c-1.09-1.48-2.02-2.98-2.84-4.46c-4.63-8.35-5.22-15.92-5.22-15.92l17.8-16.34l42.77-39.25  l41.93-38.5l36.07-33.11c1.62,4.56,4.97,14.62,7.24,27.28C1090.77,322.72,1091.52,352.21,1074.57,374.42z"></path><path fill="#d6751d" d="M1086.83,300.93l-20.35,46.63l-10.81,43.91c-11.68,7.67-26.76,14.37-46.32,23.06  c-5.59,2.48-10.98,4.71-16.12,6.7c0,0,52.59-25.48,54.38-79.58c0,0,4.36-14.39-4.08-34.87l36.07-33.11  C1081.2,278.21,1084.55,288.27,1086.83,300.93z"></path><path fill="#f7941d" d="M1198.44,454.53c0,0-36.61,11.48-91.28,6.56c-27.63-2.48-53.17-2.07-71.66-1.05  c-18.09,1-29.45,2.57-29.45,2.57c11.95-18.35,29.93-75.62,41.46-118.3c0.02-0.12,0.03-0.17,0.03-0.17c1-3.76,1.97-7.4,2.87-10.88  v-0.05c1.67-6.36,3.11-12.23,4.32-17.36c0,0,0.02-0.03,0.03-0.12c0.39-1.68,0.83-3.33,1.33-4.97c0.2-0.65,0.41-1.29,0.61-1.94  c0.22-0.7,0.46-1.39,0.71-2.09c0.27-0.8,0.58-1.58,0.88-2.36c0.29-0.75,0.58-1.48,0.88-2.19c0.29-0.68,0.6-1.36,0.88-2.02  c0.41-0.9,0.83-1.79,1.28-2.65c0.27-0.56,0.56-1.14,0.87-1.7c0.73-1.38,1.5-2.74,2.3-4.06c0.41-0.66,0.82-1.33,1.24-1.97  c0.43-0.66,0.85-1.31,1.29-1.96c0.44-0.63,0.88-1.26,1.34-1.89c0.44-0.61,0.92-1.24,1.39-1.85c0.44-0.56,0.88-1.12,1.34-1.68  c1.51-1.84,3.11-3.59,4.78-5.27c0,0,0,0,0.02-0.02c0.02,0,0.03-0.03,0.08-0.07c0.46-0.48,0.92-0.94,1.39-1.39  c1.28-1.21,2.58-2.36,3.93-3.49c0.43-0.36,0.87-0.7,1.29-1.04c0.71-0.58,1.43-1.12,2.14-1.65c0.39-0.27,0.77-0.56,1.16-0.82  c1.26-0.88,2.55-1.73,3.86-2.53c0.48-0.31,0.95-0.6,1.45-0.88c0.27-0.15,0.54-0.32,0.82-0.48c0.15-0.08,0.29-0.17,0.44-0.24  c0.44-0.26,0.88-0.49,1.34-0.73c1.07-0.54,2.18-1.05,3.28-1.53c0.65-0.27,1.29-0.53,1.96-0.77c0.78-0.31,1.58-0.6,2.38-0.85  c1.87-0.61,3.79-1.11,5.73-1.51l20.03-4.2c1.12-0.05,2.21-0.09,3.28-0.09c1.5,0,2.92,0.07,4.3,0.19c1.38,0.1,2.69,0.27,3.95,0.48  c0.51,0.09,1.02,0.19,1.51,0.29c1.26,0.26,2.45,0.56,3.59,0.92h0.02c21.02,6.34,23.79,26.95,23.89,27.67v0.02  c2.82,12.14,4.52,27.36,6.65,45.96c1.87,16.34,5.31,36.13,9,55.04C1190.43,421.52,1198.44,454.53,1198.44,454.53z"></path><path fill="none" stroke="#18a1b7" stroke-linecap="round" stroke-miterlimit="10" stroke-width="2" d="M1102.25,451.67c0,0-59.41,169.98-40.45,441.08"></path><path fill="#f9a88c" d="M1096.79,469.58c-0.03,0.65-0.09,1.36-0.15,2.11c-0.56,7.07-2.53,18.26-9.44,29.86  c-4.34,7.28-9.32,12.53-13.31,16.09h-0.02c-15.47-9.59-23.45-23.6-23.45-39.59l1.43-1.19h0.02l16.43-13.62  C1078.39,464.46,1086.69,468.35,1096.79,469.58z"></path><path fill="#d6751d" d="M1185.16,394.32c-19.42,45.2-69.19,67.38-69.19,67.38s14.3-21.67,31.92-58.4  c17.63-36.75,21.59-73.52,21.59-73.52l-1.73-45.4c2.82,12.14,4.52,27.36,6.65,45.96C1176.27,346.68,1181.47,375.41,1185.16,394.32z"></path><path fill="#fff" d="M1057.97,459.28c-18.09,1-51.92,3.32-51.92,3.32c11.95-18.35,29.93-75.62,41.46-118.3  C1046.49,348.42,1027.37,448.39,1057.97,459.28z" opacity=".22"></path><path fill="#ffbc73" d="M975.47,413.11c0,0-1.41,9.78-14.36,18.97c-2.28-1.33-4.3-2.79-6.09-4.39c-2.35-2.02-4.3-4.22-5.93-6.46  c-0.02-0.02-0.02-0.02-0.02-0.02c-1.09-1.48-2.02-2.98-2.84-4.46c-4.63-8.35-5.22-15.92-5.22-15.92l17.8-16.34L975.47,413.11z"></path><circle cx="966.86" cy="414.96" r="2.6" fill="#070707"></circle><polygon fill="#cc7219" points="1111.5 469.05 1116.94 473.16 1096.79 487.2 1093.14 479"></polygon><path fill="#f7941d" d="M1164.01,371.17c-1.85,8.54-4.59,17.04-7.96,25.32c-0.02,0.05-0.02,0.07-0.02,0.07  c-1.16,2.86-2.38,5.68-3.66,8.47c-0.85,1.84-1.72,3.66-2.6,5.48c-1.36,2.75-2.77,5.49-4.22,8.18c-3.69,6.82-7.64,13.4-11.61,19.54  c0,0,0,0,0,0.02c-0.03,0.02-0.05,0.05-0.09,0.1c-13.04,20.17-26.51,35.98-33.04,43.28c-2.53,2.82-6.53,3.74-10.05,2.35  c-2.75-1.12-6.26-2.72-10.07-4.98h-0.02c-2.7-1.58-5.54-3.49-8.38-5.78c0,0-0.02-0.02-0.03-0.03c-3.04-2.43-6.07-5.29-8.89-8.64  c-1.16-1.36-1.19-3.35-0.05-4.73c7.12-8.66,31.63-41.71,35.4-90.51v-0.1c0.17-2.09,0.29-4.22,0.37-6.36  c1.16-30.52,0.71-45.28,0.6-53.79c-0.1-6.9,0.56-15.71,2.69-23.72v-0.02c2.01-7.57,5.32-14.44,10.53-18.36c0,0,0.02,0,0.03-0.02  c0.61-0.46,1.31-0.94,2.09-1.41c4.71-2.94,12.01-6.1,17.97-7.63c0.2-0.05,0.41-0.1,0.58-0.14c0.12-0.03,0.24-0.05,0.36-0.08  C1162.38,251.09,1183.1,282.87,1164.01,371.17z"></path><path fill="#ed8a1d" d="M1133.86 438.34c-13.04 20.17-28.51 42.9-36.54 48.49-.53.37-3.03-1.48-6.55-2.87-2.75-1.12-6.26-2.72-10.07-4.98C1105.34 478.94 1132.21 440.72 1133.86 438.34zM1135.36 257.35c28.47-4.63 47.75 25.51 28.65 113.82-1.85 8.54-4.59 17.04-7.96 25.32-.02.05-.02.07-.02.07-1.16 2.86-2.38 5.68-3.66 8.47-.85 1.84-1.72 3.66-2.6 5.48-1.36 2.75-2.77 5.49-4.22 8.18 0 0 0 0-.02 0 .46-1.87 18.09-53.43 5.03-102.96-8.54-32.38-34.6-34.57-48.18-30.4v-.02c4.06-11.65 12.8-15.75 18-19.68 0 0 .71-.47.72-.49.61-.46.62-.46 1.4-.94"></path><path fill="#f9977d" d="M1096.64,471.68c-0.56,7.07-2.53,18.26-9.44,29.86c-4.34,7.28-9.32,12.53-13.31,16.09h-0.02  c-15.47-9.59-23.45-23.6-23.45-39.59l1.43-1.19h0.02c-1.04,20.54,26.07,30.85,26.07,30.85s8.26-4.54,6.55-14.35  c-1.7-9.81-8.47-16.49-8.47-16.49L1096.64,471.68z"></path><path fill="#ffbc73" d="M1105.04,464.76c0,0-0.42,3.68-2.79,11.15c-1.91,6.01-5.47,11.3-5.47,11.3s-20.64-4.95-35.12-24.6l12.84-19.81  C1074.51,442.79,1079.96,455.06,1105.04,464.76z"></path><circle cx="1096.79" cy="469.05" r="2.6" fill="#070707"></circle><path fill="none" stroke="#18a1b7" stroke-linecap="round" stroke-miterlimit="10" stroke-width="2" d="M1076.01,518.9c-0.73-0.43-1.45-0.83-2.13-1.28h-0.02c-15.47-9.59-21.15-21.24-22.84-30.86  c-1.89-10.75,1.21-18.98,1.21-18.98"></path><path fill="#f4b7ae" d="M911.24,459.22l1.43,0.34c-3.59,1.46-8.15,1.07-9.37-0.34c-2.91-3.38-2.55-12.65,1.28-20.12  s15.12-15.3,15.12-15.3S900.05,438.36,911.24,459.22z"></path><path fill="#8cd0e0" d="M1104.75,876.17l-1.09,27.33c-0.02,0.8-0.49,1.5-1.22,1.82c-3.67,1.58-15.63,6.36-32.85,9.17  c-8.6,1.39-18.52,2.3-29.37,2.06c-5.93-0.14-11.1-0.32-15.63-0.53c-17.5-0.87-25.05-2.24-27.82-2.91c-0.83-0.2-1.45-0.88-1.56-1.72  l-3.79-25.15c-0.2-1.36,0.95-2.55,2.33-2.36c0.48,0.07,1.02,0.14,1.62,0.2c5.27,0.68,15.01,1.67,27.45,1.85  c14.47,0.22,32.6-0.65,51.57-4.34c9.1-1.77,18.4-4.18,27.58-7.45c0.15-0.05,0.29-0.08,0.44-0.1  C1103.64,873.87,1104.8,874.84,1104.75,876.17z"></path><path fill="#fff" d="M1127.21,254.91c-57.73,20.83-71.62,58.48-72.44,60.81c0.39-1.68,0.83-3.33,1.33-4.97  c0.2-0.65,0.41-1.29,0.61-1.94c0.22-0.7,0.46-1.39,0.71-2.09c0.27-0.8,0.58-1.58,0.88-2.36c0.29-0.75,0.58-1.48,0.88-2.19  c0.29-0.68,0.6-1.36,0.88-2.02c0.41-0.9,0.83-1.79,1.28-2.65c0.27-0.56,0.56-1.14,0.87-1.7c0.73-1.38,1.5-2.74,2.3-4.06  c0.41-0.66,0.82-1.33,1.24-1.97c0.43-0.66,0.85-1.31,1.29-1.96c0.44-0.63,0.88-1.26,1.34-1.89c0.44-0.61,0.92-1.24,1.39-1.85  c0.44-0.56,0.88-1.12,1.34-1.68c1.51-1.84,3.11-3.59,4.78-5.27c0.49-0.49,0.99-0.99,1.5-1.48c1.28-1.21,2.58-2.36,3.93-3.49  c0.43-0.36,0.87-0.7,1.29-1.04c0.71-0.58,1.43-1.12,2.14-1.65c0.39-0.27,0.77-0.56,1.16-0.82c1.72-1.21,3.49-2.35,5.31-3.42  c0.41-0.24,0.83-0.48,1.26-0.71c0.44-0.26,0.88-0.49,1.34-0.73c4.2-2.16,8.71-3.69,13.35-4.66L1127.21,254.91z" opacity=".22"></path><path fill="#ffbc73" d="M1143.84,256.7c-6.95,3.16-28.4,10.59-39.94,11.78c-11.07,1.14-13.88-2.09-14.11-2.38  c0.48-0.31,0.95-0.6,1.45-0.88c0.27-0.15,0.54-0.32,0.82-0.48c0.15-0.08,0.29-0.17,0.44-0.24c0.44-0.26,0.88-0.49,1.34-0.73  c1.07-0.54,2.18-1.05,3.28-1.53c0.65-0.27,1.29-0.53,1.96-0.77l10.29-0.19l21.14-6.46c1.5,0,2.92,0.07,4.3,0.19  c1.38,0.1,2.69,0.27,3.95,0.48c0.51,0.09,1.02,0.19,1.51,0.29C1141.51,256.03,1142.7,256.34,1143.84,256.7z"></path><path fill="#f9a88c" d="M1138.74,255.49c-1.36,0.54-2.67,1.05-3.95,1.55c-10.66,4.12-16.89,6.07-22.92,7.35  c-14.79,3.11-18.04-0.61-18.04-0.61c1.07-0.54,2.18-1.05,3.28-1.53c1.43-0.6,2.87-1.14,4.34-1.62c1.87-0.61,3.79-1.11,5.73-1.51  l2.19-0.46v-0.02c2.81-8.43,2.99-16.34,2.86-20.29c-0.07-1.7-0.19-2.67-0.19-2.67l18.14-16.02c-0.12,5.34,0.09,10.12,0.46,14.35  c0.2,2.19,0.46,4.25,0.75,6.16c0,0,0,0,0,0.02c0.83,5.54,1.97,9.9,3.04,13.13c0.19,0.56,0.31,1.14,0.36,1.7  C1136.17,255.12,1137.48,255.29,1138.74,255.49z"></path><path fill="#f9977d" d="M1131.39,240.17c0,0,0,0,0,0.02c-0.22,0.68-4.91,15.32-22.02,18.45c2.81-8.43,2.99-16.34,2.86-20.29  l18.42-4.34C1130.85,236.21,1131.1,238.26,1131.39,240.17z"></path><path fill="#f9a88c" d="M1127,244.27c-18.41,3.84-21.76,0.59-21.76,0.59c-2.76-2.52-2.67-11.13-2.67-11.13h-0.02l-3.39-0.59  c-0.62-0.09-1.04-0.72-0.91-1.34c0.55-2.54,2.93-8.88,3.65-14.08c0.08-0.7,0.15-1.38,0.17-2.02c0.08-1.91-0.57-3.61-0.64-5.36  c-0.02-0.57-0.02-1.1,0-1.63c0-0.02,0-0.02,0-0.02c2.42-4.56,7.04-7.46,10.54-8.36c0.34-0.09,0.68-0.17,1.02-0.23  c4.24-0.93,10.05-0.95,16.52,0.53c0.28,0.06,0.59,0.13,0.89,0.21c0.02,0,0.02,0,0.04,0.02c2.54,0.66,5.24,2.71,6.66,4.86  c0.02,0.02,0.04,0.06,0.06,0.09c1.1,1.91,1.93,4.24,2.4,7.04c0.17,1.02,0.32,2.02,0.44,2.97c0.09,0.64,0.17,1.25,0.25,1.85  c0.28,2.27,0.44,4.33,0.53,6.21C1141.19,232.97,1135.89,242.42,1127,244.27z"></path><path d="M1119.51,215.7c0,0-0.44,7.58,0.92,8.82c1.72,1.57,4.46,1.37,4.46,1.37s-0.35-4.97,4.21-4.46  c4.56,0.51,2.79,10.19-0.2,11.77c0,0,1.72,8.96,5.83,6.87c0,0,3.32-2.17,5.22-4.6s1.22-8.74,1.67-11.1  c0.46-2.36,1.67-8.21-5.09-9.28c-6.77-1.06-19.69,1.14-19.69,1.14L1119.51,215.7z"></path><path fill="#75c3db" d="M1140.25,217.68c-0.11,0.02-0.23,0.04-0.34,0.04h-52.84c-8.48,0-5.32-1.72-5.32-1.72l17.54-0.28l0.61-0.02  c0.19-1.87,0.74-5.47,1.53-6.98c0-0.02,0-0.02,0-0.02c2.42-4.56,7.04-7.46,10.54-8.36c0.34-0.09,0.68-0.17,1.02-0.23  c0.95-0.23,1.97-0.4,3.05-0.53c1.91-0.23,3.99-0.28,6.26-0.11c2.21,0.15,4.62,0.51,7.21,1.17c0.28,0.06,0.59,0.13,0.89,0.21  c0.02,0,0.02,0,0.04,0.02c2.54,0.66,5.24,2.71,6.66,4.86c0.02,0.02,0.04,0.06,0.06,0.09c1.99,3.08,3.39,7.74,4.05,10.22  C1141.4,216.77,1140.95,217.49,1140.25,217.68z"></path><circle cx="1108.89" cy="223.25" r="1.88"></circle><path fill="none" stroke="#000" stroke-linecap="round" stroke-miterlimit="10" stroke-width=".75" d="M1104.35,238.92c0,0,4.53,0.8,6.74-1.46"></path><path fill="#f9977d" d="M1098.25,231.8c-0.13,0.62,0.28,1.25,0.91,1.34l3.39,0.59c0,0,1.45-1.95,1.28-3.11  C1103.66,229.46,1098.25,231.8,1098.25,231.8z"></path><path fill="#54b6c6" d="M1140.25,217.68c-0.11,0.02-0.23,0.04-0.34,0.04h-37.17c12.57,0,23.13-2.42,23.13-2.42  c1.4-9.42-3.56-15.84-3.56-15.84c2.21,0.15,4.62,0.51,7.21,1.17c0.28,0.06,0.59,0.13,0.89,0.21c0.02,0,0.02,0,0.04,0.02  c2.54,0.66,5.24,2.71,6.66,4.86c0.02,0.02,0.04,0.06,0.06,0.09c1.99,3.08,3.39,7.74,4.05,10.22  C1141.4,216.77,1140.95,217.49,1140.25,217.68z"></path><path fill="#aadde2" d="M1116.04,199.57c-2.73,0.81-11.6,4.33-13.3,16.12l-3.44,0.02l0.61-0.02c0.19-1.87,0.74-5.47,1.53-6.98  c0-0.02,0-0.02,0-0.02c2.42-4.56,7.04-7.46,10.54-8.36c0.34-0.09,0.68-0.17,1.02-0.23C1113.94,199.88,1114.96,199.71,1116.04,199.57  z"></path><path d="M1125.56,657.51c-4.83,29.52-9.42,62.88-13.47,100.45v0.02c-3.77,34.96-7.07,73.54-9.69,116.07  c1.24-0.17,2.4,0.8,2.35,2.13l-1.09,27.33c-0.02,0.8-0.49,1.5-1.22,1.82c-3.67,1.58-15.63,6.36-32.85,9.17l0.37-2.57l4.42-30.32  l9-2.6c0,0,25.64-171.13,54.82-288.64L1125.56,657.51z" opacity=".07"></path><path fill="#fff" d="M1024.64 915.99l-.05.02c-17.5-.87-25.05-2.24-27.82-2.91-.83-.2-1.45-.88-1.56-1.72l-3.79-25.15c-.2-1.36.95-2.55 2.33-2.36.48.07 1.02.14 1.62.2-5.1-51.03-13.86-165.73-3.55-276.24l1.39-13.79c-.27 5.32-5.32 105.58 9.57 188.7 15.3 85.41 20.03 103.18 20.03 103.18l1.72 28.19L1024.64 915.99zM955.02 427.69c-2.35-2.02-4.3-4.22-5.93-6.46-.02-.02-.02-.02-.02-.02-1.09-1.48-2.02-2.98-2.84-4.46-4.63-8.35-5.22-15.92-5.22-15.92l60.57-55.59C981.77 363.42 948.12 407.58 955.02 427.69zM1077.52 450.85c-7.73 12.48-5.78 21.76-5.25 22.31-3.04-2.43-6.07-5.29-8.89-8.64-1.16-1.36-1.19-3.35-.05-4.73 7.12-8.66 31.63-41.71 35.4-90.51C1097.57 413.32 1086.83 435.82 1077.52 450.85z" opacity=".22"></path><path fill="none" stroke="#fff" stroke-linecap="round" stroke-miterlimit="10" d="M1116.81 268.72c0 0-18.39 5.73-17.11 40.31.9 24.55.46 49.68.46 49.68M1047.51 344.3c0 0-22.05 81.43-41.46 118.3 0 0 20.6-2.91 41.46-3.09"></path><path fill="none" stroke="#020202" stroke-linecap="round" stroke-miterlimit="10" d="M958.82 384.5l15.76 27.07c.62 1.07.76 2.35.37 3.53-.73 2.2-2.37 5.82-5.85 8.87M1091.85 458.53l11.86 5.6c.8.38 1.27 1.24 1.13 2.11-.58 3.68-2.55 13.48-8.05 20.96M1179.75 458.66c0 0-60 138.44-67.66 299.29M993.74 883.87c0 0-2.64.33-1.35 8.89 1.29 8.56 2.81 18.63 2.81 18.63s.1 1.4 1.56 1.72c1.46.32 18.64 2.69 31.83 3.08M1258.09 814.27c0 0 2.18-.8 2.94.73.76 1.53 12.02 24.21 12.02 24.21s1.14 1.41-.41 2.99c-1.55 1.58-22.28 19.29-22.28 19.29M1122.31 199.46c0 0 4.99 7.07 3.56 15.84M1184.21 389.37l14.23 65.16c0 0-5.83 7.65-9.95 10.19"></path><path fill="#f7941d" d="M1081.84,930.23v36.27c0,2.91-2.24,5.29-5.1,5.49c-0.14,0.02-0.27,0.02-0.41,0.02H966.21  c-1.36,0-2.6-0.51-3.54-1.34c-1.09-0.94-1.77-2.31-1.79-3.84c0-0.75,0-1.5,0.03-2.19c0.41-9.45,4.03-15.12,7.19-18.3h0.02  c1.58-1.6,3.03-2.57,3.93-3.08c0.58-0.34,0.92-0.48,0.92-0.48c20.85-11.34,44.77-10.95,46.42-10.9c0.05,0,0.09,0,0.09,0v-2.74  c0-1.48,1.33-2.57,2.72-2.36c0.14,0.02,0.27,0.05,0.41,0.1c2.79,0.97,6.07,1.94,9.78,2.74c4.76,1.04,10.24,1.82,16.29,1.96  c11.51,0.26,21.12-1.84,28.06-4.03c0.32-0.1,0.63-0.2,0.94-0.31C1079.73,926.55,1081.84,928.07,1081.84,930.23z"></path><path fill="#ffbc73" d="M1017.7,935.28c0,0-9.17,1.58-16.55-2.19c-4.49-2.3,0.19-7.74,7.52-10.81c0.02,0,0.02,0,0.02-0.02  c0.02,0,0.02,0,0.02,0c4.69-1.97,10.46-2.96,15.59-1.53c2.58,0.71,4.76,1.68,6.39,2.75C1037.38,927.86,1035.32,934.27,1017.7,935.28  z"></path><path fill="#4c4c4c" d="M987.62 936.7c0 0 1.1-1.98 4.85-1.16 3.67.8 18.77 2.43 21.22 4.95 2.45 2.52 1.91 3.79 1.91 3.79s-2.18.8-3.44 0c-1.26-.8-.69-2.29-7-4.13C998.85 938.31 987.62 936.7 987.62 936.7zM978.06 940.35c0 0 1.03-1.85 4.52-1.08 3.42.75 17.52 2.27 19.8 4.62s1.79 3.53 1.79 3.53-2.04.75-3.21 0-.64-2.14-6.53-3.85C988.54 941.86 978.06 940.35 978.06 940.35z"></path><path fill="#fff" d="M993.98 966.29c-.12.02-.24.03-.36.03-.78 0-1.5-.54-1.67-1.34-3.69-16.94-18.11-18.65-23.82-18.65 1.58-1.6 3.03-2.57 3.93-3.08 7.69.99 19.76 5.12 23.21 21.02C995.48 965.19 994.9 966.09 993.98 966.29zM1081.84 941.55v3.47c-19.15 4.61-18.38 18.88-18.35 19.49.07.94-.63 1.73-1.56 1.8-.05.02-.08.02-.14.02-.87 0-1.62-.68-1.68-1.56-.02-.19-1.14-17.96 21.34-23.16C1081.59 941.57 1081.72 941.55 1081.84 941.55z"></path><path d="M1077.68,927.23c-0.31,0.1-0.61,0.2-0.94,0.31c-6.94,2.19-16.55,4.29-28.06,4.03  c-5.48-0.12-10.45-0.79-14.88-1.68c1.1-2.1-0.13-4.46-3.11-6.41c7.16,6.5-10.61,10.1-20.37,6.82c-9.39-3.15-2.23-7.67-1.65-8.03  c-7.33,3.08-12.01,8.52-7.52,10.81c7.38,3.77,16.55,2.19,16.55,2.19c4.73-0.27,8.3-0.94,10.92-1.84l-0.02,0.02  c0,0,17.4,5.22,31.49,3.57c14.1-1.63,16.65-2.55,16.65-2.55s0.54,28.41-8.55,30.15c-4.52,0.87-9.52,4.22-13.38,7.38h21.53  c0.14,0,0.27,0,0.41-0.02c2.86-0.2,5.1-2.58,5.1-5.49v-36.27C1081.84,928.07,1079.73,926.55,1077.68,927.23z" opacity=".09"></path><path fill="#4c4c4c" d="M1081.84,964.62v1.87c0,3.04-2.47,5.51-5.51,5.51H966.21c-2.89,0-5.29-2.3-5.32-5.19c0-0.75,0-1.5,0.03-2.19  H1081.84z"></path><path fill="#f7941d" d="M1276.52,863.51l23.39,27.72c1.88,2.22,1.7,5.49-0.36,7.49c-0.09,0.1-0.2,0.19-0.3,0.28l-84.16,71.02  c-1.04,0.88-2.32,1.29-3.57,1.25c-1.43-0.01-2.84-0.63-3.84-1.79c-0.48-0.57-0.97-1.14-1.39-1.7c-5.79-7.49-6.67-14.15-6.3-18.62  l0.01-0.01c0.18-2.24,0.66-3.91,1.02-4.89c0.22-0.63,0.39-0.96,0.39-0.96c8.62-22.11,27.15-37.25,28.45-38.27  c0.04-0.03,0.06-0.05,0.06-0.05l-1.77-2.09c-0.95-1.13-0.64-2.82,0.55-3.56c0.11-0.07,0.24-0.14,0.38-0.19  c2.76-1.06,5.89-2.43,9.24-4.21c4.31-2.28,9-5.21,13.71-9.01c8.96-7.23,14.96-15.02,18.84-21.18c0.18-0.29,0.35-0.56,0.52-0.84  C1272.54,862.06,1275.13,861.86,1276.52,863.51z"></path><path fill="#ffbc73" d="M1230.76,908.73c0,0-5.98,7.12-14.06,8.99c-4.91,1.14-4.85-6.03-1.23-13.11c0.01-0.01,0.01-0.01,0-0.02  c0.01-0.01,0.01-0.01,0.01-0.01c2.31-4.53,6.08-9.01,10.93-11.23c2.44-1.12,4.72-1.78,6.66-2.02  C1241.02,890.38,1243.58,896.61,1230.76,908.73z"></path><path fill="#4c4c4c" d="M1208.69 929.22c0 0-.43-2.22 2.96-4.01 3.32-1.75 15.91-10.25 19.41-9.9 3.5.35 3.91 1.66 3.91 1.66s-1.15 2.02-2.63 2.22c-1.48.2-2.01-1.31-8.01 1.36C1218.31 923.21 1208.69 929.22 1208.69 929.22zM1203.75 938.18c0 0-.41-2.07 2.76-3.74 3.1-1.63 14.85-9.57 18.11-9.24s3.64 1.55 3.64 1.55-1.07 1.89-2.46 2.07c-1.38.19-1.87-1.22-7.48 1.27C1212.72 932.58 1203.75 938.18 1203.75 938.18z"></path><path fill="#fff" d="M1232.64 947.74c-.08.09-.16.18-.25.26-.6.5-1.49.55-2.14.05-13.74-10.56-25.87-2.58-30.24 1.11.18-2.24.66-3.91 1.02-4.89 6.51-4.2 18.4-8.83 31.29 1.09C1233.07 945.93 1233.21 946.99 1232.64 947.74zM1283.83 872.16l2.24 2.65c-11.66 15.87-1.87 26.28-1.45 26.73.66.67.64 1.73-.03 2.39-.03.05-.05.07-.09.1-.66.56-1.67.52-2.3-.11-.13-.13-12.45-12.99 1.37-31.46C1283.64 872.34 1283.74 872.24 1283.83 872.16z"></path><path d="M1271.41,863.91c-0.17,0.28-0.34,0.55-0.52,0.84c-3.89,6.15-9.88,13.95-18.84,21.18  c-4.27,3.44-8.5,6.14-12.46,8.32c-0.52-2.31-2.97-3.32-6.51-2.9c9.66,0.35-1.59,14.56-11.17,18.35c-9.2,3.65-6.65-4.42-6.44-5.07  c-3.62,7.08-3.68,14.25,1.23,13.11c8.07-1.88,14.06-8.99,14.06-8.99c3.44-3.26,5.74-6.07,7.16-8.45l0,0.03  c0,0,16.66-7.23,26.37-17.58c9.72-10.34,11.08-12.69,11.08-12.69s18.74,21.36,12.91,28.56c-2.9,3.58-4.56,9.36-5.47,14.27  l16.45-13.88c0.1-0.09,0.21-0.18,0.3-0.28c2.05-2,2.23-5.27,0.36-7.49l-23.39-27.72C1275.13,861.86,1272.54,862.06,1271.41,863.91z" opacity=".09"></path><path fill="#4c4c4c" d="M1298.71,889.79l1.21,1.43c1.96,2.33,1.67,5.8-0.66,7.76l-84.16,71.02c-2.21,1.86-5.52,1.66-7.41-0.53  c-0.48-0.57-0.97-1.14-1.39-1.7L1298.71,889.79z"></path><path fill="none" stroke="#020202" stroke-linecap="round" stroke-miterlimit="10" d="M1052.91 931.56c0 0 16.91-1.49 23.83-4.02 6.93-2.53 5.1 8.07 5.1 8.07v22.38M1268.02 869l3.39-5.09c0 0 2.72-3.23 5.11-.4 2.39 2.83 22.19 26.29 22.19 26.29"></path><path fill="none" stroke="#fff" stroke-linecap="round" stroke-miterlimit="10" d="M1214.84 905.94c0 0-1.39 10.27 11.45 1.38M1008.67 922.27c0 0-7.72 4.48.66 7.66 8.38 3.18 16.85.79 16.85.79"></path><path fill="#f7941d" d="M762.08,970.9c-3.09,1.22-15.17,0.81-18.88,0c-4.05-0.89,3.27-6.77,3.27-6.77s4.95-24.79-7.3-27.38  c-12.27-2.62-46.98,11.45-65.62,7.92c0,0-2.58,26.64-7.04,27.04c-5.2,0.47-12.61,0.46-13.87-1.1c-1.23-1.56,2.19-5.6,2.19-5.6  s2.74-18.66,0.51-21.28c-1.19-1.39-5.5-8.35-9.79-16.4c0-0.02,0-0.05-0.02-0.05c-0.07-0.12-0.14-0.24-0.21-0.39  c-0.8-1.55-1.63-3.13-2.4-4.73c-2.79-5.65-5.26-11.38-6.45-15.84c-3.3-12.39-3.27-24.46-3.27-24.46s-1.8,0.1-4.36-0.03  c-4.43-0.2-11.21-1.08-15.03-4.29c-6.04-5.01-8.15-13.77-8.15-13.77s0.71-7.7,7.36-7.54c6.68,0.16,13.93-2.49,13.93-2.49  c6.78-5.23,18.17-19.57,29.61-15.2c11.44,4.37,20.29,21.01,23.9,31.37c3.61,10.34,3.21,16.24,3.21,16.24s2.48,3.65,10.4,4.61  c7.93,0.96,46.15,2.13,52.28,3.04c6.13,0.91,16.19,9.87,17.12,24.26C764.42,932.47,765.2,969.68,762.08,970.9z"></path><path fill="#e2821a" d="M669.41 892.44c-.62 1.02-1.36 1.88-2.19 2.61-8 6.97-24.17 1.03-21.12-6.06.84-1.92 1.37-5.04 1.67-8.82l0-.02c.94-11.38-.11-28.58-.51-35.96-.53-9.83 3.5-9.35 3.5-9.35 4.65-1.23 12.02 4.33 13.63 8.8C665.99 848.12 676.01 881.62 669.41 892.44zM612.18 858.87c-.04 1.7-.88 3.19-2.14 4.15l-.02 0c-.92.7-2.07 1.09-3.3 1.06-2.94-.07-5.27-2.52-5.2-5.46.07-2.94 2.52-5.27 5.46-5.2.65.02 1.27.15 1.83.38C610.83 854.57 612.23 856.58 612.18 858.87z"></path><circle cx="640.25" cy="855.81" r="3.34"></circle><path fill="none" stroke="#000" stroke-linecap="round" stroke-miterlimit="10" d="M616.62,879.3c0,0,7.65,1.08,12.35-2.66"></path><path fill="#f7941d" d="M610.02,863.01c-0.92,0.7-2.07,1.09-3.3,1.06c-2.94-0.07-5.27-2.52-5.2-5.46c0.07-2.94,2.52-5.27,5.46-5.2  c0.65,0.02,1.27,0.15,1.83,0.38c0,0-4.32,0.9-3.98,4.9C605.18,862.68,608.21,864.07,610.02,863.01z"></path><path fill="#ffbc73" d="M667.26,894.97l-0.05,0.07c-8,6.97-24.17,1.03-21.12-6.06c0.84-1.92,1.37-5.04,1.67-8.82  C647.56,900.54,666.35,895.24,667.26,894.97z"></path><path fill="#c46d16" d="M776.49,940.9c2.19-2.32,4.32-6.56,1.39-13.16c-4.75-10.7-3.48-23.87-3.38-24.8c0.42,1.57,0.71,3.32,0.86,5.31  c1.4,18.64,14.05,24.43,28,24.93C815.13,933.61,805.45,953.52,776.49,940.9z"></path><path fill="#ffbc73" d="M642.93 922.17c-2.79-5.65-5.26-11.38-6.45-15.84-3.3-12.39-3.27-24.46-3.27-24.46s-1.8.1-4.36-.03c0 0 7.71-.77 9.94-4.96C638.79 876.88 634.32 902.59 642.93 922.17zM645.58 927.34l-.02 0c0-.02 0-.05-.02-.05C645.56 927.31 645.59 927.31 645.58 927.34z"></path><path fill="none" stroke="#000" stroke-linecap="round" stroke-miterlimit="10" d="M716.37 892.1c0 0 22.31.89 29.98 1.72 7.68.82 16.31 13.25 16.9 22.06M715.24 939.63c0 0 14.99-4.11 23.94-2.87M645.33 926.9c0 0 3.71 7.65 10.02 16.84 0 0 2.8 6.47-.51 21.28 0 0-6.2 6.88 1.15 6.65"></path><path fill="#020202" d="M641.88,919.8c6.63-2.66,26.46-11.45,46.2-28.5c1.28-1.1,1.22-3.1-0.09-4.16l-1.38-1.12  c-0.93-0.75-2.24-0.81-3.23-0.14c-6.92,4.73-33.75,22.77-44.89,26.39l0,0c-1.41,0.64-2.01,2.32-1.31,3.71l1.28,2.52  C639.09,919.75,640.57,920.32,641.88,919.8z"></path><path fill="none" stroke="#020202" stroke-linecap="round" stroke-miterlimit="10" d="M685.03,887.5c106.23-72.9,153.21-292.96,207.88-402.89c10.39-20.89,23.05-34.66,31.34-39.4"></path><path fill="#41acb7" d="M1198.76,679.36v0.01c-3.41,9.41-16.54,17.37-16.54,17.37c11.68-17.04,11.68-45.74,11.68-45.74l0.83,0.51  c0.15,5.24,0.26,9.29,0.32,11.85C1195.11,666.77,1196.46,672.31,1198.76,679.36z"></path><path fill="none" stroke="#020202" stroke-linecap="round" stroke-miterlimit="10" d="M1193.52,613.43c0,0,4.38,58.79-8.36,79.46"></path><path fill="none" stroke="#000" stroke-linecap="round" stroke-miterlimit="10" d="M804.64 925.73c0 0 7.37-1.09 10.66 5.7M809.97 923.5c1.47-.04 4.61.76 5.94 3.65M1317.32 917.94c0 0 21.54-9.97 10.22-30.44M1337.76 895.3c0 0 2.92 14.59-6.94 21.28M969.46 481.35c0 0-4.42 8.16 0 16.44M893.74 456.28c0 0-2.37-10.47 4.41-22.15M890.51 435.47c0 0-4.02 5.66-3.29 12.6"></path><polyline fill="none" stroke="#000" stroke-linecap="round" stroke-miterlimit="10" points="532.01 468.21 495.8 468.21 495.8 482.59"></polyline><line x1="489.52" x2="475.29" y1="439.88" y2="454.12" fill="none" stroke="#000" stroke-linecap="round" stroke-miterlimit="10"></line><path fill="none" stroke="#000" stroke-linecap="round" stroke-miterlimit="10" d="M440.74,494.06c0,0,18.91,33.96,53.79,36.61v73.48"></path><line x1="495.76" x2="495.76" y1="755.03" y2="869.37" fill="none" stroke="#000" stroke-linecap="round" stroke-miterlimit="10"></line><path fill="none" stroke="#000" stroke-miterlimit="10" d="M678.2 216c0 5.1-10.03 8.55-11.52 13.15-1.55 4.77 4.48 13.45 1.59 17.41-2.92 4.01-13.05.94-17.06 3.86-3.97 2.89-4.16 13.49-8.93 15.04-4.6 1.49-10.97-6.92-16.07-6.92-5.1 0-11.47 8.41-16.07 6.92-4.77-1.55-4.96-12.15-8.93-15.04-4.01-2.92-14.14.15-17.06-3.86-2.89-3.97 3.14-12.65 1.59-17.41-1.49-4.6-11.52-8.05-11.52-13.15 0-5.1 10.03-8.55 11.52-13.15 1.55-4.77-4.48-13.45-1.59-17.41 2.92-4.01 13.05-.94 17.06-3.86 3.97-2.89 4.16-13.49 8.93-15.04 4.6-1.49 10.97 6.92 16.07 6.92 5.1 0 11.47-8.41 16.07-6.92 4.77 1.55 4.96 12.15 8.93 15.04 4.01 2.92 14.14-.15 17.06 3.86 2.89 3.97-3.14 12.65-1.59 17.41C668.17 207.45 678.2 210.9 678.2 216zM1250.03 419.92c9.44 0 9.44 14 18.87 14 9.44 0 9.44-14 18.88-14 9.44 0 9.44 14 18.88 14 9.44 0 9.44-14 18.88-14 9.44 0 9.44 14 18.88 14M1290.46 449.62c9.44 0 9.44 14 18.87 14 9.44 0 9.44-14 18.88-14 9.44 0 9.44 14 18.88 14 9.44 0 9.44-14 18.88-14 9.44 0 9.44 14 18.88 14"></path></svg>