<svg xmlns="http://www.w3.org/2000/svg" width="24" height="24" fill="none" id="remove"><path fill="url(#a)" d="M19.78 4.22A11 11 0 1 0 4.227 19.78 11 11 0 0 0 19.78 4.22Zm-1.42 14.14A9 9 0 1 1 5.624 5.64 9 9 0 0 1 18.36 18.36Zm-2.12-9.19L13.41 12l2.83 2.83a1 1 0 0 1 0 1.41 1 1 0 0 1-1.41 0L12 13.41l-2.83 2.83a1 1 0 0 1-1.41 0 1 1 0 0 1 0-1.41L10.59 12 7.76 9.17a1 1 0 0 1 1.41-1.41L12 10.59l2.83-2.83a1.001 1.001 0 1 1 1.41 1.41Z"></path><defs><linearGradient id="a" x1="12.004" x2="12.004" y1="1" y2="23" gradientUnits="userSpaceOnUse"><stop stop-color="#FFA68D"></stop><stop offset="1" stop-color="#FD3A84"></stop></linearGradient></defs></svg>