<svg xmlns="http://www.w3.org/2000/svg" width="24" height="24" fill-rule="evenodd" fill="orange" stroke-linejoin="round" stroke-miterlimit="2" clip-rule="evenodd" id="reschedule"><path d="M602,69L584,69C583.448,69 583,68.552 583,68C583,67.127 583,66 583,66C583,65.204 583.316,64.441 583.879,63.879C584.441,63.316 585.204,63 586,63L588,63L588,61.5C588,61.367 588.053,61.24 588.146,61.146C588.24,61.053 588.367,61 588.5,61C588.633,61 588.76,61.053 588.854,61.146C588.947,61.24 589,61.367 589,61.5L589,63L597,63L597,61.5C597,61.367 597.053,61.24 597.146,61.146C597.24,61.053 597.367,61 597.5,61C597.633,61 597.76,61.053 597.854,61.146C597.947,61.24 598,61.367 598,61.5L598,63L600,63C600.796,63 601.559,63.316 602.121,63.879C602.684,64.441 603,65.204 603,66L603,78C603,78.796 602.684,79.559 602.121,80.121C601.559,80.684 600.796,81 600,81C596.949,81 586.858,81 584.497,81C584.365,81 584.239,80.948 584.146,80.854C584.052,80.761 584,80.635 584,80.503C584,80.502 584,80.501 584,80.5C584,80.367 584.053,80.24 584.146,80.146C584.24,80.053 584.367,80 584.5,80C587.208,80 600,80 600,80C600.53,80 601.039,79.789 601.414,79.414C601.789,79.039 602,78.53 602,78L602,69ZM582.707,77L583.854,78.146C584.049,78.341 584.049,78.658 583.854,78.853C583.658,79.049 583.342,79.049 583.146,78.853L581.146,76.853C580.951,76.658 580.951,76.342 581.146,76.146L583.146,74.146C583.342,73.951 583.658,73.951 583.854,74.146C584.049,74.341 584.049,74.658 583.854,74.853L582.707,76L590.5,76C590.776,76 591,76.224 591,76.5C591,76.776 590.776,77 590.5,77L582.707,77ZM589.293,72L581.5,72C581.224,72 581,72.224 581,72.5C581,72.776 581.224,73 581.5,73L589.293,73L588.146,74.146C587.951,74.341 587.951,74.658 588.146,74.853C588.341,75.049 588.658,75.049 588.853,74.853L590.853,72.853C591.049,72.658 591.049,72.342 590.853,72.146L588.853,70.146C588.658,69.951 588.341,69.951 588.146,70.146C587.951,70.341 587.951,70.658 588.146,70.853L589.293,72ZM588,64L586,64C585.47,64 584.961,64.211 584.586,64.586C584.211,64.961 584,65.47 584,66L584,68L602,68L602,66C602,65.47 601.789,64.961 601.414,64.586C601.039,64.211 600.53,64 600,64L598,64L598,65.5C598,65.633 597.947,65.76 597.854,65.854C597.76,65.947 597.633,66 597.5,66C597.367,66 597.24,65.947 597.146,65.854C597.053,65.76 597,65.633 597,65.5L597,64L589,64L589,65.5C589,65.633 588.947,65.76 588.854,65.854C588.76,65.947 588.633,66 588.5,66C588.367,66 588.24,65.947 588.146,65.854C588.053,65.76 588,65.633 588,65.5L588,64Z" transform="translate(-580 -60)"></path></svg>