<svg xmlns="http://www.w3.org/2000/svg" xmlns:xlink="http://www.w3.org/1999/xlink" width="48" height="48" id="website"><defs><linearGradient id="b" x1="906.952" x2="931.379" y1="515.915" y2="546.094" gradientTransform="translate(-1388.719 211.343) scale(1.53785)" gradientUnits="userSpaceOnUse" xlink:href="#a"></linearGradient><linearGradient id="a"><stop offset="0" stop-color="#ffd800"></stop><stop offset="1" stop-color="#ff6100"></stop></linearGradient></defs><g transform="translate(0 -1004.362)"><rect width="48" height="48" y="1004.362" fill="url(#b)" rx="10.144" ry="10.144"></rect><path style="line-height:normal;-inkscape-font-specification:Sans;text-indent:0;text-align:start;text-decoration-line:none;text-transform:none;block-progression:tb;marker:none" fill="#fff" d="M8.344 1012.365a.5.5 0 0 0-.344.5v31a.5.5 0 0 0 .5.5h31a.5.5 0 0 0 .5-.5v-31a.5.5 0 0 0-.5-.5h-31a.5.5 0 0 0-.156 0zm.656 1h30v3H9v-3zm1.5 1a.5.5 0 1 0 0 1 .5.5 0 0 0 0-1zm2 0a.5.5 0 1 0 0 1 .5.5 0 0 0 0-1zm2 0a.5.5 0 1 0 0 1 .5.5 0 0 0 0-1zm-5.5 3h30v26h-6V1039.584c-.014-1.132-.493-2.208-1.312-2.907-.247-.21-.574-.38-.781-.5l-.907-.53v-10.563c0-2.142-1.25-4.025-3.062-5a5.488 5.488 0 0 0-.375-.188 7.165 7.165 0 0 0-.375-.156 6.188 6.188 0 0 0-2.188-.375c-3.299 0-6 2.546-6 5.719v10.593l-.562.313c-.351.202-.935.52-1.313.906a3.933 3.933 0 0 0-1.093 2.281v.031c-.042.329-.032.744-.032 1v3.157H9v-26zm15 3a5.226 5.226 0 0 1 2.157.438c.11.05.205.099.312.156 1.513.815 2.531 2.365 2.531 4.125v10l-1.625-.937c-.47-.27-.75-.754-.75-1.282v-1.25c.079-.083.178-.16.25-.25.705-.866 1.125-1.98 1.125-3.093v-3.438a.5.5 0 0 0-.375-.5c-.685-.16-1.314-.348-1.75-.687-.01-.01-.02-.023-.03-.031a.5.5 0 0 0-.188-.062.5.5 0 0 0-.094-.031c-.145-.057-.284-.125-.438-.125-.257 0-.533.09-.75.25-.008.01-.023-.01-.03 0-.235.169-.892.298-1.626.312-.748.015-1.557-.03-2.187-.03a.5.5 0 0 0-.5.437l-.032.281a.5.5 0 0 0 0 .062v3.562c0 1.114.42 2.228 1.125 3.094.073.09.172.167.25.25v.75c0 .827-.455 1.61-1.187 2.031l-1.188.688v-10c0-2.608 2.211-4.719 5-4.719zm1.125 4.032c.05 0 .083 0 .125.03a.5.5 0 0 0 .063.032.5.5 0 0 0 .062.03.5.5 0 0 0 .063.032c.008.01.023-.01.031 0 .472.316.999.512 1.531.656v3.093c0 .848-.345 1.78-.906 2.469-.56.69-1.308 1.125-2.094 1.125-.786 0-1.533-.435-2.093-1.125-.561-.689-.907-1.621-.907-2.469v-3.343c.524.016 1.106.044 1.75.03.817-.015 1.617-.062 2.22-.53.042-.034.106-.032.155-.032zm-2.75 8.03a3.26 3.26 0 0 0 1.625.438 3.26 3.26 0 0 0 1.625-.437v.437a2.49 2.49 0 0 0 1.25 2.157l.75.437a.5.5 0 0 0 0 .031 3.688 3.688 0 0 1-7.375 0l.438-.25a3.335 3.335 0 0 0 1.687-2.812zm6.188 3.563 1.844 1.063c.195.112.52.316.625.406.583.498.958 1.27.968 2.125v3.782h-1.906v-1.594h-1v1.594H18.625v-1.594h-1v1.594H16v-3.157c0-.263.008-.719.032-.906a2.972 2.972 0 0 1 .812-1.719c.178-.181.752-.521 1.094-.718l1.375-.813c.276 2.318 2.235 4.125 4.625 4.125 2.41 0 4.376-1.841 4.625-4.187z" color="#000" font-family="Sans" font-weight="400" overflow="visible"></path></g></svg>